<?xml version="1.0" standalone="no"?>
<!DOCTYPE svg PUBLIC "-//W3C//DTD SVG 20010904//EN"
 "http://www.w3.org/TR/2001/REC-SVG-20010904/DTD/svg10.dtd">
<svg version="1.0" xmlns="http://www.w3.org/2000/svg"
 width="1052.000000pt" height="1052.000000pt" viewBox="0 0 1052.000000 1052.000000"
 preserveAspectRatio="xMidYMid meet">
<metadata>
Created by potrace 1.11, written by Peter Selinger 2001-2013
</metadata>
<g transform="translate(0.000000,1052.000000) scale(0.100000,-0.100000)"
fill="#000000" stroke="none">
<path d="M4567 10393 c-4 -3 -7 -18 -7 -32 0 -15 -8 -31 -19 -38 -19 -12 -21
-36 -6 -83 3 -8 -6 -1 -20 15 -14 17 -25 33 -25 38 0 4 -11 7 -25 7 -24 0 -29
-9 -28 -47 1 -7 -8 -13 -18 -13 -25 0 -38 -27 -35 -75 3 -52 7 -63 32 -92 13
-14 20 -32 17 -43 -12 -45 30 -58 81 -25 22 14 29 15 42 4 12 -10 15 -10 12 0
-2 7 6 15 18 17 24 4 90 -30 87 -45 -2 -6 4 -8 14 -4 13 5 15 2 10 -11 -4 -9
-3 -15 2 -12 9 6 31 -36 31 -60 0 -34 -93 9 -116 54 -6 12 -14 19 -17 15 -4
-3 -7 1 -7 10 0 12 -8 16 -24 15 -14 -1 -24 -5 -24 -8 0 -3 -1 -8 -2 -12 -1
-5 -3 -14 -4 -20 0 -7 -11 -14 -24 -16 -19 -3 -23 -9 -20 -30 3 -25 7 -27 51
-30 26 -2 47 -7 47 -13 0 -5 -11 -7 -24 -3 -13 3 -34 0 -46 -6 -20 -11 -20
-13 -6 -35 14 -22 14 -23 -9 -29 -45 -11 -57 -76 -14 -76 10 0 19 -7 19 -15 0
-7 7 -18 16 -23 13 -7 10 -10 -17 -16 -23 -4 -37 -2 -50 10 -28 26 -53 10 -68
-44 -12 -45 -13 -46 -27 -27 -11 15 -14 33 -9 70 13 96 11 143 -8 162 -27 27
-53 6 -50 -43 2 -51 -15 -104 -33 -104 -8 0 -19 -10 -23 -22 -8 -19 -3 -29 29
-60 22 -20 42 -48 46 -62 9 -38 -5 -119 -19 -112 -7 3 -20 9 -29 12 -17 6 -22
17 -19 37 1 5 -3 6 -9 2 -5 -3 -10 -2 -10 3 0 5 -11 15 -25 22 -30 16 -56 0
-50 -31 2 -11 -2 -19 -9 -19 -8 0 -19 -7 -26 -15 -9 -11 -16 -12 -25 -5 -6 5
-15 7 -18 4 -15 -15 -26 8 -16 33 6 15 8 37 4 50 -5 20 -10 22 -51 18 -25 -3
-43 -1 -40 3 3 5 -2 18 -10 30 l-15 22 -49 -28 c-27 -15 -50 -34 -51 -42 0
-10 -3 -8 -8 5 -5 11 -4 22 0 23 5 2 7 7 4 12 -3 5 0 20 7 35 15 34 2 43 -59
42 -54 0 -71 -22 -46 -57 9 -13 19 -39 23 -59 4 -20 10 -43 14 -51 4 -9 1 -23
-6 -33 -12 -16 -15 -15 -42 8 -32 28 -35 29 -55 16 -8 -5 -12 -19 -9 -35 8
-41 -32 -32 -95 20 -35 29 -43 30 -57 3 -14 -25 8 -64 45 -81 14 -6 22 -15 19
-20 -3 -4 -11 -5 -17 -2 -7 4 -9 4 -5 -1 4 -4 3 -16 -2 -26 -8 -14 -5 -19 13
-25 12 -5 25 -7 30 -6 4 1 7 -4 7 -12 0 -11 -6 -12 -37 -1 -21 7 -45 12 -54
10 -11 -2 -19 5 -23 20 -7 28 -36 41 -51 23 -5 -7 -21 -13 -35 -13 -40 0 -39
-40 1 -81 l33 -34 -25 -2 c-31 -2 -37 -1 -82 10 -29 8 -41 7 -52 -4 -7 -8 -23
-14 -35 -14 -11 0 -23 -7 -26 -15 -5 -12 -9 -12 -30 2 -13 8 -24 12 -24 8 0
-5 -9 0 -20 10 -10 9 -26 15 -35 12 -9 -4 -15 -1 -16 8 -1 8 -3 20 -4 25 -1 6
-3 24 -4 40 -1 23 -6 30 -21 30 -10 0 -25 -6 -32 -13 -7 -8 -20 -12 -30 -9
-12 3 -21 -3 -27 -19 -7 -20 -2 -31 30 -66 22 -24 40 -51 40 -60 1 -10 3 -30
5 -46 1 -15 -1 -25 -5 -23 -5 3 -6 -5 -4 -17 3 -14 -4 -33 -16 -47 -20 -25
-20 -25 -35 -5 -9 11 -13 26 -11 32 2 7 0 12 -6 10 -6 -1 -16 7 -22 18 -7 11
-15 22 -19 25 -6 5 -12 37 -22 123 -3 21 -1 37 5 37 6 0 8 4 4 9 -7 13 16 63
39 82 11 9 32 15 49 13 61 -8 77 37 22 63 -27 13 -40 14 -59 5 -22 -10 -26 -8
-31 8 -4 11 -10 20 -15 20 -5 0 -16 8 -25 17 -11 10 -37 17 -72 19 -64 3 -74
-10 -50 -61 21 -45 1 -37 -35 13 -14 20 -40 45 -56 55 -28 16 -32 16 -46 1
-24 -23 -20 -40 17 -68 35 -28 28 -32 -22 -15 -42 15 -65 -2 -49 -36 14 -31
50 -43 111 -39 33 3 56 -1 73 -13 33 -21 72 -99 70 -140 0 -17 2 -29 7 -26 4
2 7 -3 7 -11 0 -9 -5 -16 -11 -16 -21 0 -88 43 -82 53 3 6 1 7 -4 4 -6 -4 -16
-1 -22 6 -6 8 -29 20 -51 27 -41 14 -70 4 -70 -25 0 -7 -14 -15 -32 -19 -17
-3 -37 -11 -45 -17 -16 -14 -17 -45 -2 -55 18 -10 53 -11 61 0 3 5 23 2 47 -7
23 -9 41 -13 41 -9 0 4 5 0 10 -8 6 -10 10 -11 10 -2 0 16 36 15 101 -4 42
-13 65 -28 101 -67 26 -28 45 -53 43 -56 -3 -2 2 -9 11 -16 9 -6 19 -29 23
-52 l8 -40 -49 -2 c-27 0 -53 -3 -58 -6 -5 -3 -11 -1 -15 4 -12 20 -62 38 -83
30 -28 -11 -28 -45 0 -60 22 -12 22 -12 -6 -26 -15 -8 -46 -17 -69 -21 -45 -8
-59 -30 -37 -57 17 -20 56 -18 105 4 60 27 103 18 118 -23 1 -5 15 -8 30 -8
22 0 25 -3 16 -14 -6 -8 -7 -14 -2 -14 5 0 15 -12 22 -26 10 -23 9 -26 -4 -21
-9 4 -15 1 -15 -8 0 -8 -4 -15 -10 -15 -5 0 -10 4 -10 9 0 5 -7 24 -15 43 -12
30 -18 35 -39 31 -19 -4 -26 -12 -28 -34 l-3 -29 -37 25 c-24 16 -51 25 -75
25 -46 0 -61 -9 -57 -34 4 -26 14 -34 49 -39 17 -2 42 -9 57 -16 22 -11 26
-18 21 -45 -4 -27 -1 -33 24 -43 24 -9 21 -10 -27 -6 -30 3 -61 5 -67 5 -47
-4 -84 -3 -101 2 -28 9 -55 -19 -42 -43 14 -27 68 -37 138 -26 12 2 22 -1 22
-8 0 -8 3 -7 9 2 5 7 11 9 14 4 4 -6 -7 -23 -24 -39 -25 -24 -32 -27 -49 -16
-25 15 -53 15 -68 0 -21 -21 -13 -37 29 -64 27 -17 39 -30 35 -40 -3 -8 -1
-12 4 -9 5 3 12 -7 16 -22 3 -15 7 -33 9 -40 2 -6 1 -13 -2 -16 -7 -7 -43 25
-43 39 0 21 -41 64 -61 64 -16 0 -24 -15 -21 -41 1 -4 -16 -9 -38 -13 -45 -7
-54 -18 -45 -53 5 -23 9 -25 45 -19 48 8 79 -4 135 -51 35 -29 95 -120 95
-145 0 -2 -19 -5 -43 -7 -55 -2 -130 29 -153 64 -25 39 -54 52 -70 31 -6 -9
-10 -26 -7 -36 4 -16 0 -20 -20 -20 -30 0 -45 -33 -26 -56 9 -12 24 -14 65 -8
29 3 60 2 70 -4 30 -17 -19 -35 -75 -28 -95 12 -96 12 -99 -10 -4 -28 29 -55
72 -57 20 -1 36 -3 36 -4 0 -2 -17 -11 -37 -20 -32 -15 -38 -23 -41 -54 -3
-33 0 -38 27 -47 23 -8 30 -16 28 -33 -4 -35 27 -47 65 -26 17 10 33 15 36 13
2 -3 -11 -13 -30 -22 -29 -13 -34 -20 -30 -41 3 -14 11 -27 18 -30 8 -3 14
-11 14 -19 0 -7 14 -21 31 -30 17 -8 28 -11 25 -6 -3 6 -1 12 4 14 6 2 13 21
16 42 2 21 12 52 22 68 19 33 84 70 121 69 64 -2 63 -2 40 -27 -12 -13 -26
-21 -32 -17 -6 3 -7 1 -3 -5 8 -13 -28 -35 -39 -24 -5 4 -5 2 -2 -5 4 -6 4
-19 1 -28 -6 -14 -9 -14 -29 5 -30 28 -55 17 -55 -24 0 -17 7 -41 15 -52 8
-12 11 -25 7 -29 -4 -3 -2 -5 3 -3 22 7 16 -18 -6 -29 -31 -17 -60 -16 -83 2
-10 8 -23 12 -27 9 -5 -3 -9 -1 -9 4 0 4 -13 23 -29 41 -25 28 -32 31 -50 21
-26 -14 -27 -40 -1 -73 20 -25 20 -25 0 -30 -27 -7 -25 -39 3 -63 12 -11 25
-19 29 -19 15 0 17 -13 3 -25 -31 -26 -12 -68 28 -62 10 2 26 -2 35 -10 13
-11 14 -11 7 1 -8 14 8 13 70 -2 11 -3 23 -6 28 -6 12 -2 8 -19 -9 -36 -9 -9
-23 -14 -30 -11 -8 3 -13 2 -12 -2 1 -4 -5 -20 -12 -35 -11 -23 -15 -25 -22
-12 -5 8 -6 20 -2 27 4 6 3 8 -3 5 -5 -4 -19 2 -29 11 -39 36 -69 52 -100 52
-31 0 -60 -21 -48 -33 4 -4 8 -24 9 -46 l2 -40 -29 15 c-19 10 -28 21 -24 30
3 9 1 12 -4 9 -6 -3 -10 -2 -10 3 0 5 -23 21 -51 37 -46 25 -52 26 -67 12 -21
-21 -3 -64 29 -69 28 -4 38 -28 12 -28 -26 0 -43 -19 -35 -39 8 -24 23 -31 67
-31 41 0 87 -18 55 -21 -20 -2 -44 -1 -107 5 -30 3 -55 0 -59 -5 -3 -6 -17
-14 -30 -19 -13 -5 -24 -13 -24 -18 0 -4 18 -31 40 -61 22 -29 37 -58 33 -64
-3 -6 -1 -7 5 -3 7 4 29 -5 49 -19 l38 -25 -42 3 c-24 2 -43 0 -43 -5 0 -5
-11 -14 -25 -20 -21 -9 -25 -18 -25 -52 0 -43 17 -66 65 -88 19 -8 23 -17 19
-37 -7 -37 7 -54 40 -45 15 3 25 9 22 12 -7 6 36 38 46 34 5 -1 7 3 5 10 -1 6
16 17 38 24 48 15 125 18 125 5 0 -22 -60 -37 -73 -18 -6 8 -7 7 -3 -5 3 -11
-2 -19 -13 -23 -10 -3 -26 -14 -36 -25 -11 -12 -31 -20 -50 -20 -41 0 -50 -21
-23 -49 16 -18 18 -27 9 -51 -5 -16 -8 -42 -5 -57 3 -15 6 -39 7 -54 1 -15 5
-25 9 -23 3 2 19 -12 35 -31 27 -34 29 -35 51 -20 28 21 28 36 -3 69 -14 15
-26 34 -26 42 -1 7 -2 20 -3 27 -6 34 54 111 72 93 8 -9 -7 -51 -26 -71 -12
-13 -16 -28 -12 -45 7 -29 39 -39 55 -16 11 14 14 14 30 -4 11 -13 16 -30 13
-49 -3 -24 0 -32 14 -37 10 -3 16 -10 13 -15 -9 -13 28 2 41 17 9 11 17 6 43
-27 32 -39 34 -40 52 -23 26 24 24 36 -15 87 -19 25 -31 49 -28 53 4 4 2 4 -5
1 -23 -14 -45 5 -41 34 3 16 0 25 -5 22 -6 -3 -8 7 -5 25 2 17 1 29 -4 26 -11
-7 -10 -2 7 39 18 45 52 77 72 70 12 -5 12 -7 1 -15 -9 -7 -7 -8 8 -3 30 8 85
-17 74 -34 -4 -8 -6 -20 -3 -27 2 -7 -5 -22 -17 -34 -12 -12 -20 -31 -18 -43
3 -23 13 -24 90 -11 21 3 45 3 53 0 26 -9 -12 -52 -63 -72 -24 -10 -47 -25
-52 -34 -12 -22 15 -61 35 -54 8 4 15 2 15 -3 0 -5 6 -17 13 -27 14 -19 47
-13 47 9 0 7 14 12 31 13 18 0 37 6 42 11 22 22 106 3 91 -20 -4 -6 -11 -6
-20 2 -12 10 -15 10 -12 -1 2 -9 -14 -18 -47 -25 -34 -8 -51 -17 -53 -29 -5
-24 15 -45 37 -39 11 3 18 -1 19 -11 1 -9 3 -22 4 -30 2 -20 49 -12 62 10 6
11 15 28 21 38 17 32 58 56 103 60 37 4 42 2 42 -15 0 -11 -7 -22 -15 -25 -8
-4 -15 -15 -15 -26 0 -29 -39 -90 -52 -82 -7 4 -8 2 -4 -4 8 -13 -27 -38 -66
-47 -22 -6 -37 0 -70 24 -43 31 -72 39 -83 21 -9 -15 16 -90 30 -90 7 0 15
-16 17 -35 3 -29 1 -34 -11 -29 -36 15 -52 16 -65 5 -18 -15 -15 -37 8 -54 16
-11 17 -17 6 -36 -28 -54 31 -72 73 -22 14 17 28 27 31 24 3 -4 6 -1 6 6 0 9
10 12 29 9 17 -2 27 0 24 5 -3 5 4 6 18 2 13 -4 25 -11 27 -16 2 -4 10 -5 18
-2 9 3 14 -1 14 -12 0 -9 -4 -14 -9 -11 -5 3 -11 0 -14 -8 -3 -7 -16 -13 -29
-12 -26 2 -60 -38 -51 -60 3 -8 16 -14 29 -14 17 0 25 -7 30 -25 4 -18 13 -25
30 -25 14 0 26 6 28 13 2 6 9 31 15 54 8 31 16 41 26 36 10 -3 13 -1 10 8 -7
18 23 36 74 48 38 8 39 8 31 -13 -4 -11 -13 -20 -20 -18 -6 1 -9 -2 -5 -7 3
-6 -1 -21 -9 -34 -9 -13 -22 -43 -29 -68 -15 -50 -6 -69 32 -69 16 0 23 10 32
46 9 36 14 43 21 30 5 -9 18 -16 28 -16 19 0 82 31 110 54 24 21 44 30 37 19
-4 -6 1 -21 11 -33 20 -24 48 -19 57 11 4 11 10 17 15 14 5 -3 12 0 16 6 4 8
3 9 -4 5 -24 -14 -12 24 15 48 26 24 48 26 40 3 -4 -13 38 -57 54 -57 6 0 7
-4 4 -10 -3 -5 0 -7 9 -4 8 3 31 -10 54 -30 22 -20 44 -36 50 -36 15 0 45 50
30 50 -8 0 -6 5 5 11 19 11 23 44 5 55 -6 4 -29 6 -51 6 -50 -2 -90 22 -111
66 -24 49 -13 177 21 250 13 28 28 52 33 52 4 0 10 9 13 21 4 13 10 18 18 13
8 -4 10 -3 5 4 -12 19 99 178 143 207 22 14 43 25 45 25 2 0 33 16 68 36 34
20 108 59 162 86 90 46 105 50 163 49 34 -1 73 -5 85 -10 13 -5 53 -17 90 -27
40 -10 65 -21 61 -27 -3 -6 -1 -7 5 -3 6 4 22 4 36 0 17 -4 23 -11 21 -25 -2
-11 0 -17 6 -14 5 4 6 11 3 17 -5 8 4 9 27 4 19 -3 36 -11 37 -16 2 -6 8 -8
12 -5 10 6 90 -27 90 -37 0 -4 8 -4 17 -1 12 5 15 2 10 -10 -3 -9 -1 -19 5
-23 6 -4 8 -3 4 4 -13 22 10 19 57 -7 101 -57 183 -137 193 -188 9 -49 -3
-165 -18 -174 -8 -5 -9 -9 -2 -9 7 0 9 -10 6 -25 -2 -14 -8 -22 -13 -19 -5 3
-6 -1 -4 -8 4 -11 -14 -82 -72 -270 -3 -10 -10 -18 -15 -18 -5 0 -7 -4 -4 -9
10 -16 -53 -179 -135 -349 -49 -102 -49 -103 -83 -100 -38 2 -59 -11 -79 -51
-20 -37 -64 -117 -146 -265 -62 -110 -72 -134 -67 -162 4 -18 12 -34 18 -36 6
-2 1 -23 -16 -55 -24 -49 -46 -75 -46 -55 0 14 -58 1 -73 -17 -28 -32 -244
-417 -249 -444 -3 -15 -3 -25 0 -22 3 2 12 -4 19 -15 13 -19 11 -28 -25 -93
-38 -69 -41 -72 -74 -69 -25 2 -39 -3 -54 -20 -40 -44 -256 -413 -256 -436 0
-13 9 -33 20 -45 21 -20 21 -20 2 -56 -31 -57 -46 -72 -71 -70 -57 5 -63 -1
-169 -191 -14 -25 -45 -80 -68 -123 -26 -45 -48 -74 -54 -70 -7 3 -8 1 -4 -6
4 -6 1 -22 -6 -34 -16 -25 -11 -57 14 -87 14 -16 16 -24 6 -45 -6 -13 -15 -22
-21 -18 -6 3 -7 1 -3 -5 9 -14 -14 -63 -27 -55 -6 3 -7 1 -3 -5 14 -24 -24
-64 -201 -207 -102 -82 -228 -185 -280 -227 -53 -43 -99 -78 -102 -79 -3 0
-13 -2 -21 -4 -8 -1 -83 -6 -165 -9 -82 -4 -152 -9 -154 -12 -2 -2 -10 1 -18
7 -9 8 -13 8 -13 0 0 -15 -37 -8 -61 12 -10 9 -22 17 -24 17 -3 0 -34 18 -68
39 -68 44 -90 65 -154 157 -43 62 -72 81 -92 61 -22 -22 -2 -82 39 -117 3 -3
16 -22 29 -43 24 -40 118 -121 151 -132 11 -4 18 -10 15 -15 -3 -4 1 -7 8 -6
6 0 14 -3 17 -8 3 -6 -31 -27 -75 -48 -44 -21 -91 -44 -105 -51 -15 -7 -48
-52 -82 -112 -60 -106 -64 -137 -17 -143 20 -2 29 6 54 52 16 30 34 52 39 49
5 -3 6 -1 2 5 -7 12 19 59 44 79 8 7 22 10 30 7 8 -3 11 -1 6 3 -4 4 37 29 91
54 66 31 100 43 105 35 5 -7 8 -4 8 7 0 20 11 22 29 5 11 -10 12 -10 7 -1 -5
9 0 13 16 12 13 0 59 2 103 6 101 8 205 12 205 9 0 -3 -47 -107 -102 -224 -25
-52 -60 -129 -78 -170 -19 -41 -39 -80 -47 -86 -7 -6 -10 -13 -7 -16 3 -3 -25
-32 -62 -64 -37 -33 -88 -78 -113 -100 -57 -51 -77 -57 -170 -56 -88 2 -113
-9 -109 -46 l3 -27 96 -1 c53 0 103 -3 111 -6 9 -4 56 28 128 88 62 52 114 94
115 94 1 0 2 -17 3 -37 1 -21 4 -47 6 -58 2 -11 7 -58 11 -105 4 -47 8 -87 10
-90 2 -3 6 -37 10 -77 7 -72 6 -73 -45 -185 -33 -74 -62 -123 -83 -141 -44
-38 -50 -42 -78 -57 -64 -33 -84 -73 -53 -104 14 -15 21 -13 72 25 32 22 76
53 99 67 26 16 48 41 59 64 9 21 21 38 26 38 4 0 7 3 6 8 -3 15 15 62 24 62 5
0 7 3 4 8 -2 4 1 18 8 30 l12 23 28 -35 c15 -20 24 -41 21 -46 -4 -6 -1 -9 7
-8 7 2 12 -5 12 -14 -1 -10 2 -16 6 -15 14 4 88 -103 94 -136 3 -18 8 -43 11
-56 2 -13 7 -49 10 -80 10 -89 20 -110 52 -111 29 0 41 28 32 77 -5 26 -12 69
-14 96 l-5 47 52 -27 c29 -15 59 -28 67 -29 8 -2 18 -9 22 -16 5 -7 9 -9 9 -4
0 5 9 1 20 -9 11 -10 17 -22 14 -27 -3 -4 -1 -7 5 -6 5 2 21 -12 35 -31 20
-27 23 -37 13 -44 -8 -6 -7 -7 5 -4 25 8 66 -58 76 -125 6 -38 5 -61 -2 -68
-7 -7 -6 -10 2 -10 7 0 12 -13 12 -29 0 -31 22 -61 44 -61 35 0 43 52 22 148
-3 12 -3 22 0 22 3 0 28 -15 57 -33 68 -43 82 -48 101 -34 16 12 32 72 16 62
-11 -7 -180 93 -187 111 -3 8 -9 11 -14 8 -5 -3 -9 -1 -9 4 0 5 -19 30 -42 56
l-41 48 44 -3 c24 -1 49 -6 54 -9 15 -11 72 8 79 26 9 23 -12 54 -37 55 -180
4 -208 11 -364 88 -59 29 -89 50 -107 77 -14 21 -23 41 -20 46 3 5 1 7 -4 6
-13 -4 -132 158 -138 187 -12 57 -21 134 -20 166 1 21 -2 39 -7 39 -4 0 -7 19
-8 43 0 90 -4 147 -9 147 -3 0 -6 8 -6 18 -1 9 -2 37 -4 62 -2 39 11 74 97
255 55 116 104 219 110 230 6 11 19 39 28 61 13 32 44 64 137 140 66 55 126
104 132 109 60 53 130 104 137 99 5 -3 8 -1 7 4 -3 9 103 102 116 102 4 0 2
-10 -5 -21 -6 -12 -7 -19 -2 -16 4 3 7 -70 5 -161 -3 -191 5 -168 -128 -343
-89 -116 -110 -136 -203 -188 -85 -48 -104 -67 -90 -93 15 -28 53 -21 121 22
l63 40 5 -63 c4 -38 2 -65 -5 -69 -6 -5 -6 -8 0 -8 6 0 11 -11 11 -25 3 -45
43 -71 69 -46 6 6 8 53 5 113 -3 57 -2 108 3 115 4 6 3 14 -2 18 -9 5 9 47 29
65 3 3 13 18 23 33 10 15 22 25 27 22 6 -3 8 0 5 7 -3 7 8 28 24 45 16 18 39
46 51 63 l23 32 23 -27 c63 -74 168 -216 170 -231 5 -34 16 -220 15 -249 -2
-55 -13 -105 -22 -105 -6 0 -8 -4 -4 -9 3 -5 -4 -36 -16 -67 -26 -70 -26 -115
1 -186 11 -29 20 -62 20 -74 0 -32 37 -66 63 -58 32 10 32 10 18 62 -39 138
-48 177 -43 194 2 10 7 16 11 14 3 -2 7 6 7 17 4 65 26 100 43 69 6 -11 17
-26 24 -34 42 -43 95 -158 82 -178 -3 -5 -2 -10 2 -10 5 0 13 -15 18 -32 8
-26 16 -34 38 -36 46 -6 49 27 11 136 -37 106 -46 122 -121 210 -57 67 -54 57
-57 207 0 39 -5 73 -11 77 -6 5 -4 8 4 8 8 0 29 -11 47 -25 18 -14 36 -25 41
-25 4 0 19 -9 33 -20 32 -25 76 -26 89 -1 15 27 0 40 -114 107 -55 32 -105 63
-110 69 -24 23 -146 175 -141 175 3 0 -5 10 -17 23 -61 64 -63 67 -62 159 0
49 2 88 5 88 3 0 4 58 4 130 -1 83 2 128 8 124 6 -4 6 2 -1 13 -8 15 -7 25 5
39 14 17 15 18 10 1 -4 -11 -2 -16 5 -12 5 4 7 15 4 25 -4 12 6 40 24 72 28
48 34 53 68 55 61 3 71 6 66 18 -2 7 3 15 12 19 9 3 13 10 10 16 -3 5 -1 10 4
10 6 0 10 3 10 8 -3 20 3 23 19 11 15 -13 16 -12 4 3 -11 14 -11 22 3 48 9 18
21 28 27 24 7 -4 8 -3 4 4 -10 16 12 54 26 46 6 -4 8 -3 4 4 -9 14 14 63 27
55 6 -3 7 -1 3 6 -4 6 2 24 13 40 12 16 21 33 21 38 0 5 9 19 20 31 11 12 20
24 20 27 -1 25 1 27 18 14 14 -11 15 -11 5 1 -7 8 -13 23 -13 33 0 11 -9 34
-19 51 l-20 32 31 47 c28 43 34 47 59 42 27 -6 88 16 81 29 -3 6 31 68 73 135
6 9 21 35 34 58 16 28 29 40 40 36 14 -4 14 -3 1 7 -11 9 -12 13 -2 17 6 2 12
10 12 17 0 7 9 22 20 34 12 12 18 22 15 22 -3 0 6 18 20 40 28 45 29 78 0 109
-15 17 -16 25 -7 44 30 57 72 117 83 117 6 0 8 -4 5 -9 -3 -4 7 -6 22 -4 15 2
33 5 40 5 13 1 37 36 76 111 17 30 29 42 44 41 12 -1 19 3 16 7 -3 5 -10 7
-15 4 -5 -4 -9 1 -9 10 0 8 7 18 15 21 8 4 12 11 8 17 -4 7 0 8 13 3 14 -5 16
-4 8 4 -9 9 -5 24 14 58 14 26 30 49 34 50 4 2 8 10 8 18 0 9 5 12 12 8 6 -4
8 -3 5 3 -9 14 37 96 47 86 13 -14 2 21 -12 36 -7 7 -10 21 -7 29 3 9 3 13 -1
10 -3 -4 -12 -1 -19 5 -10 10 -10 17 4 37 9 14 21 34 27 44 6 11 16 22 24 24
7 3 10 0 7 -5 -6 -10 69 -1 77 8 11 14 116 204 116 210 0 5 5 9 10 9 6 0 10 9
10 20 0 11 5 20 10 20 6 0 10 7 10 16 0 9 5 12 12 8 7 -4 8 -3 4 4 -9 14 37
95 48 85 4 -4 4 1 0 11 -5 12 -4 17 3 13 5 -3 10 -1 10 6 1 7 4 26 8 42 5 23
1 35 -14 52 -24 25 -27 46 -8 65 6 7 13 20 15 28 6 25 74 141 96 162 11 12 15
18 8 13 -8 -4 3 18 23 49 21 30 41 53 46 51 4 -3 11 0 15 6 4 8 3 9 -4 5 -18
-11 -14 1 14 44 15 22 33 40 41 40 8 0 11 5 8 10 -8 12 55 101 66 95 4 -3 11
0 15 6 4 8 3 9 -4 5 -20 -12 -13 9 7 24 11 7 18 16 17 19 -2 3 6 15 17 26 18
18 19 18 14 2 -4 -11 -3 -16 4 -12 5 4 7 15 4 26 -6 18 4 24 28 20 5 -1 6 3 2
8 -8 13 26 52 38 44 6 -3 7 -1 4 4 -8 12 27 56 37 46 3 -3 6 1 6 11 0 9 5 14
10 11 6 -4 7 -11 4 -17 -4 -7 -2 -8 5 -4 6 4 8 12 5 18 -8 12 52 68 72 68 8 0
14 5 14 11 0 16 130 5 140 -11 4 -6 10 -11 14 -10 11 3 66 -22 66 -30 0 -3 6
-7 13 -7 18 0 138 -83 133 -92 -3 -4 1 -8 8 -8 11 0 134 -78 146 -93 3 -3 30
-24 60 -45 79 -57 90 -67 83 -78 -3 -6 -2 -7 4 -4 18 11 98 -60 123 -110 8
-15 17 -30 20 -33 14 -13 115 -174 112 -178 -2 -3 0 -8 5 -11 10 -7 66 -101
60 -101 -2 0 -1 -20 3 -45 5 -30 3 -45 -4 -45 -7 0 -6 -3 1 -8 8 -5 15 -44 18
-108 2 -55 7 -107 10 -115 3 -8 -12 -62 -33 -119 l-39 -104 -78 -53 c-75 -51
-81 -53 -144 -53 -48 0 -75 5 -99 20 -39 24 -37 24 -56 5 -12 -12 -13 -22 -5
-42 8 -22 7 -30 -9 -43 -11 -8 -25 -31 -31 -50 -6 -19 -23 -46 -37 -61 -31
-32 -28 -63 5 -67 30 -5 65 31 92 93 22 50 53 71 112 74 37 2 38 1 26 -21 -32
-59 -10 -152 34 -146 19 3 22 9 23 53 0 52 28 120 45 110 5 -4 8 -1 7 5 -3 11
97 89 114 90 3 0 9 -19 13 -42 4 -24 9 -52 11 -62 5 -28 -16 -106 -30 -107 -6
-1 -15 0 -21 1 -5 1 -7 -2 -3 -5 4 -4 -2 -15 -14 -24 -15 -13 -19 -23 -13 -40
6 -20 12 -23 42 -18 l35 6 -6 -37 c-8 -54 2 -82 29 -82 15 0 26 8 30 20 8 24
14 25 42 5 15 -11 24 -12 29 -4 4 8 9 7 15 -2 6 -10 9 -11 9 -1 0 6 4 12 10
12 6 0 7 -18 4 -42 -6 -43 14 -109 36 -123 28 -17 50 -13 56 10 3 13 3 29 -1
34 -3 7 2 11 14 11 12 0 21 -5 21 -11 0 -5 -6 -7 -12 -3 -9 5 -9 2 1 -9 15
-19 26 -23 15 -6 -4 7 0 9 14 5 15 -5 25 -1 34 13 7 12 18 21 25 21 7 0 15 11
19 25 3 14 11 22 17 18 7 -4 8 0 3 12 -7 18 -6 18 14 0 14 -13 24 -15 31 -8
13 13 19 74 7 67 -4 -3 -8 -2 -9 3 0 4 -3 27 -5 51 -5 43 -5 43 18 31 32 -16
56 -43 60 -65 2 -11 6 -21 10 -24 4 -3 10 -32 13 -65 7 -65 11 -75 28 -75 33
1 41 19 42 94 0 41 -2 70 -5 66 -3 -5 -10 2 -17 16 -10 22 -9 24 14 24 26 0
58 -24 49 -38 -8 -13 40 -8 57 7 9 7 23 11 31 8 31 -12 49 40 21 63 -8 7 -12
16 -9 21 3 5 1 8 -4 7 -5 -2 -21 9 -35 25 -30 31 -18 38 13 7 11 -11 20 -17
20 -13 0 3 9 -2 20 -12 11 -10 17 -21 15 -26 -3 -4 0 -11 6 -15 7 -4 9 -3 6 3
-5 7 14 10 56 9 58 -1 62 0 65 23 5 32 -9 43 -52 43 -20 0 -36 4 -36 10 0 5
-4 7 -9 3 -21 -13 -22 19 -1 35 26 20 24 53 -4 58 -10 2 -37 -6 -58 -18 -41
-23 -79 -22 -140 2 -36 14 -35 25 1 30 20 3 28 1 24 -6 -4 -6 1 -5 10 3 9 7
17 11 17 7 0 -10 59 23 82 46 17 17 19 23 8 44 l-13 24 -46 -24 c-40 -21 -90
-34 -153 -39 -9 -1 -15 -4 -12 -8 5 -9 -55 -20 -81 -14 -11 2 -35 4 -53 4 -22
1 -31 5 -26 13 4 7 3 8 -4 4 -7 -4 -37 12 -70 38 -47 35 -66 59 -92 113 -18
37 -33 74 -33 81 0 6 -4 12 -7 12 -19 0 -48 102 -54 185 -3 50 -10 114 -15
143 -8 52 -7 54 13 49 11 -3 31 -8 43 -10 73 -18 169 -79 156 -100 -3 -6 -2
-7 4 -4 5 3 27 -12 48 -33 30 -31 39 -48 41 -80 1 -23 4 -44 7 -47 3 -2 0 -25
-8 -49 -14 -46 -10 -54 28 -67 10 -4 16 -3 12 2 -3 5 -1 12 4 15 13 9 25 -32
22 -75 -2 -33 1 -38 30 -48 18 -6 35 -9 37 -6 3 3 0 5 -8 5 -10 0 -10 3 0 15
17 21 27 11 35 -34 5 -32 12 -42 35 -49 33 -12 44 3 34 44 -7 28 16 34 36 9 7
-8 25 -15 41 -15 22 0 30 6 35 24 4 17 11 23 24 21 23 -4 37 30 20 50 -6 8 -8
20 -4 26 4 7 3 9 -4 5 -6 -3 -13 -2 -17 4 -10 16 -15 73 -9 103 8 41 24 22 18
-23 -4 -33 -1 -41 17 -51 20 -10 25 -8 41 14 11 15 25 24 33 20 8 -3 12 -9 9
-14 -6 -10 25 -1 42 12 6 5 14 6 18 2 13 -13 -7 31 -21 48 -8 9 -27 19 -42 22
-19 4 -36 18 -49 41 l-21 36 25 25 c24 24 52 26 38 3 -4 -7 -2 -8 4 -4 13 8
52 -23 52 -41 0 -7 3 -13 8 -13 17 0 36 -48 37 -93 2 -57 31 -119 62 -134 13
-6 21 -8 18 -3 -3 4 2 10 10 14 21 8 19 28 -6 70 -24 40 -20 44 22 19 26 -15
57 -67 51 -85 -1 -5 2 -8 6 -8 4 0 9 -15 10 -32 4 -47 15 -53 64 -38 24 8 46
13 49 12 20 -4 -2 40 -33 70 -37 34 -52 76 -25 65 17 -6 107 59 107 77 0 7 -7
19 -16 27 -13 10 -24 8 -70 -15 -57 -29 -69 -29 -136 5 -35 18 -82 59 -75 66
7 6 67 -19 67 -29 0 -5 5 -6 10 -3 6 3 10 3 10 -2 0 -4 12 -16 25 -26 19 -14
29 -15 44 -7 19 9 26 50 9 50 -4 0 -8 7 -8 16 0 15 9 16 74 11 67 -6 74 -5 79
13 3 10 -3 27 -14 39 -18 19 -18 20 16 31 49 16 72 61 39 74 -28 11 -88 -12
-126 -48 -20 -19 -39 -32 -42 -29 -3 4 -6 1 -6 -5 0 -20 -17 -13 -23 8 -4 15
0 20 14 20 11 0 28 5 38 12 28 17 10 44 -40 64 -45 18 -79 62 -38 49 12 -4 31
-16 42 -26 12 -10 30 -22 41 -25 12 -4 24 -12 28 -18 6 -8 8 -8 8 0 0 7 10 9
25 7 19 -4 27 1 37 22 10 23 10 29 -5 40 -9 6 -13 15 -9 19 4 4 -5 2 -21 -5
-20 -9 -31 -9 -38 -2 -18 18 20 31 83 28 47 -2 64 2 93 22 19 13 35 28 35 34
0 6 5 7 11 4 6 -4 5 2 -3 14 -17 27 -35 33 -59 21 -11 -6 -24 -8 -29 -5 -6 4
-9 1 -8 -7 2 -7 -7 -14 -19 -16 -15 -2 -23 2 -23 11 0 9 4 17 9 19 5 2 5 13 0
26 -14 36 -50 25 -74 -23 -28 -54 -74 -78 -140 -70 -49 6 -125 45 -125 65 0 6
-6 10 -12 10 -7 0 -23 8 -36 18 l-22 17 30 18 c16 10 30 22 30 28 0 5 5 9 11
9 6 0 18 7 26 16 13 13 17 13 24 2 7 -10 9 -10 9 2 0 22 91 40 166 33 55 -5
61 -3 59 14 0 10 -3 23 -6 28 -8 15 -4 69 6 86 7 12 6 12 -7 1 -13 -10 -18 -8
-31 12 -16 24 -16 24 12 16 54 -15 86 36 39 61 -29 16 -99 19 -115 6 -9 -6
-13 -5 -13 4 0 11 -2 11 -10 -1 -5 -8 -10 -10 -11 -5 0 6 -2 18 -4 28 -3 14 1
18 16 14 27 -7 71 30 67 57 -2 16 -10 21 -30 21 -23 -1 -28 4 -29 25 -1 14 -3
37 -4 52 -4 27 17 44 37 31 6 -3 8 -1 4 5 -3 6 -1 14 5 18 6 3 9 19 5 34 -3
18 -1 30 8 33 8 3 11 16 8 36 -4 29 16 91 29 91 14 0 31 -32 34 -62 1 -19 11
-38 22 -45 17 -11 22 -10 37 6 27 30 13 92 -29 134 -32 32 -56 97 -36 97 22 0
81 -32 76 -41 -4 -5 -3 -8 2 -7 13 4 54 -28 45 -36 -4 -4 6 -2 21 5 23 10 27
17 22 36 -3 13 -1 23 4 23 16 0 65 -24 73 -35 5 -6 8 -6 8 1 0 7 9 14 20 17
27 7 26 44 -1 52 -12 4 -17 10 -12 14 18 12 22 39 8 58 -12 15 -17 16 -32 5
-78 -54 -113 -66 -113 -39 0 8 -3 8 -9 -2 -6 -9 -15 -11 -27 -6 -11 5 -21 9
-24 10 -56 14 -84 32 -106 66 -14 22 -22 45 -18 51 4 7 3 8 -4 4 -19 -12 -37
45 -34 107 2 40 7 57 15 54 7 -3 11 -11 9 -18 -2 -8 0 -11 3 -7 13 13 42 -10
74 -58 24 -37 31 -58 31 -96 0 -35 -3 -47 -12 -42 -7 4 -8 3 -4 -5 4 -6 11 -9
16 -6 5 3 11 1 15 -5 3 -5 15 -10 26 -10 18 0 21 5 23 40 1 8 10 16 21 19 11
2 25 10 31 19 10 13 7 21 -16 42 -15 14 -36 30 -46 37 -16 10 -13 10 14 3 19
-5 53 -27 77 -49 43 -39 104 -65 131 -54 17 6 19 49 2 60 -7 4 -26 13 -42 18
-16 6 -31 16 -34 23 -2 7 2 10 11 6 17 -6 68 15 105 44 15 12 21 24 17 35 -11
27 -40 29 -80 6 -71 -42 -254 -24 -293 28 -7 10 -15 17 -18 15 -17 -11 -118
108 -113 134 0 4 -3 10 -8 13 -5 3 -19 25 -31 48 -24 48 -29 43 71 63 32 7 61
9 64 6 4 -3 11 -1 18 4 7 5 40 14 75 18 71 10 225 -12 213 -31 -3 -6 -1 -7 6
-3 14 9 43 -12 35 -25 -3 -5 0 -8 8 -7 8 2 20 -19 32 -55 30 -92 126 -154 134
-86 2 20 -5 32 -31 52 -18 14 -34 31 -35 39 -1 7 -3 24 -4 38 -2 14 -16 37
-31 52 -27 26 -27 27 -7 38 11 6 38 10 59 8 63 -3 93 36 50 65 -21 15 -10 35
13 21 6 -4 8 -3 4 4 -4 6 3 12 16 14 17 2 23 9 22 26 -2 27 6 27 55 3 46 -24
66 -53 78 -112 8 -40 12 -44 39 -47 24 -2 31 1 32 15 1 33 -19 123 -29 123 -5
0 -9 4 -9 9 0 11 46 7 85 -8 22 -9 34 -9 51 -1 25 14 22 46 -5 54 -9 2 0 5 19
4 58 0 60 1 60 31 0 49 -75 57 -142 15 -30 -19 -54 -26 -91 -26 -28 1 -53 5
-56 9 -3 5 -13 8 -21 8 -8 -1 -23 3 -33 8 -17 8 -17 10 -3 26 9 10 34 26 55
36 43 19 59 50 33 64 -10 4 -23 6 -30 4 -9 -4 -13 2 -10 17 5 34 -25 49 -51
26 -12 -11 -21 -27 -21 -38 0 -42 -56 -110 -84 -103 -12 3 -14 2 -7 -2 9 -3
-6 -11 -39 -20 -29 -7 -55 -11 -57 -9 -6 6 17 89 29 103 6 7 15 10 20 7 13 -8
46 28 40 45 -3 9 0 11 8 6 9 -6 11 -4 5 4 -4 7 2 22 16 37 20 22 21 26 9 51
-8 16 -27 42 -44 60 l-29 32 24 20 c29 25 85 45 99 36 5 -3 10 -1 10 6 0 16
79 5 133 -20 24 -11 62 -22 85 -25 34 -4 44 -1 52 14 14 26 2 50 -26 50 -28 0
-104 29 -104 39 0 4 -16 7 -35 6 -28 -2 -33 0 -24 11 6 8 22 14 35 14 52 0 75
72 24 78 -18 2 -29 12 -37 32 -16 42 -50 31 -59 -19 -12 -67 -41 -108 -82
-116 -18 -3 -20 0 -13 18 9 25 4 48 -22 95 -33 60 -84 21 -55 -42 23 -48 9
-95 -42 -139 -47 -40 -120 -52 -120 -19 0 25 -48 119 -65 125 -7 3 -21 -3 -31
-14 -17 -19 -17 -21 5 -66 26 -53 21 -66 -14 -33 -14 13 -25 19 -25 14 0 -5
-6 2 -13 16 -13 27 -57 41 -57 18 0 -13 -49 41 -50 55 0 4 -13 22 -30 40 -16
18 -30 35 -30 39 0 10 61 28 73 21 5 -3 7 -2 4 3 -3 6 7 15 24 21 22 9 28 8
23 0 -5 -9 -4 -9 6 0 12 11 57 2 70 -15 3 -4 14 -12 25 -19 11 -6 19 -16 18
-21 -1 -5 3 -9 10 -9 35 1 46 -7 63 -44 26 -59 41 -72 65 -58 12 6 18 17 15
25 -3 9 -1 12 5 9 5 -4 16 -1 24 5 29 24 16 46 -40 75 -58 29 -70 45 -34 45
16 0 20 5 16 20 -3 11 -1 23 4 26 23 14 -10 74 -41 74 -6 0 -10 4 -10 10 0 5
-3 9 -7 9 -5 -1 -19 0 -33 1 l-25 2 25 8 c39 13 72 12 64 -2 -4 -7 -3 -8 5 -4
6 4 19 2 27 -5 8 -6 17 -9 21 -6 3 4 12 2 20 -5 7 -6 16 -8 20 -4 3 3 1 6 -6
6 -9 0 -9 5 0 22 10 19 8 25 -14 44 -22 19 -24 24 -12 34 21 17 18 37 -6 51
-17 9 -25 7 -43 -10 -12 -12 -26 -18 -31 -14 -4 5 -5 2 0 -6 8 -14 -10 -31
-35 -31 -11 1 -10 4 4 15 11 8 14 15 8 15 -18 0 -14 14 13 46 29 34 30 38 10
58 -26 26 -73 -7 -113 -79 -15 -28 -17 -28 -20 -8 -7 48 -28 47 -76 -1 -50
-52 -71 -62 -141 -65 l-50 -2 48 45 c56 50 59 77 12 87 -17 4 -26 7 -22 8 12
2 -12 41 -26 41 -29 -1 -41 -20 -42 -68 -1 -61 -33 -114 -89 -145 -21 -12 -48
-27 -60 -34 -18 -11 -22 -9 -33 11 -17 32 -43 40 -62 21 -13 -12 -13 -19 -3
-35 17 -28 15 -32 -8 -20 -15 8 -24 6 -40 -10 -15 -15 -39 -21 -106 -26 -83
-6 -87 -6 -79 12 4 11 13 34 19 52 6 17 15 32 19 32 5 0 6 4 2 10 -8 13 52 73
106 104 44 25 75 34 66 19 -3 -5 14 -9 37 -11 55 -3 77 18 47 45 -35 32 -55
48 -58 46 -2 -2 -14 -3 -27 -3 -23 0 -24 2 -14 30 13 39 71 85 95 76 10 -4 14
-4 10 0 -4 4 6 13 23 20 19 9 30 20 30 34 0 11 -4 20 -9 20 -6 0 -16 12 -23
27 -7 14 -21 27 -30 29 -17 2 -58 -43 -58 -63 0 -11 -33 -43 -44 -43 -5 0 -5
7 -2 16 3 8 2 13 -2 10 -4 -2 -17 8 -27 24 -11 16 -32 32 -47 35 -56 13 -64
-22 -18 -70 37 -38 43 -63 29 -124 -9 -43 -56 -101 -80 -101 -5 0 -9 12 -9 28
-1 30 -20 57 -67 90 l-32 22 -15 -21 c-17 -25 -8 -52 23 -69 18 -9 23 -23 36
-87 2 -13 -1 -25 -6 -28 -5 -4 -7 -10 -4 -15 3 -5 -6 -37 -20 -71 -14 -34 -25
-68 -25 -74 0 -15 -28 -44 -120 -125 -40 -36 -85 -76 -99 -88 l-26 -24 -8 44
c-4 23 -6 55 -4 71 2 15 1 27 -3 27 -4 0 -7 6 -7 13 0 6 -3 48 -7 92 -4 44
-10 106 -12 138 -6 60 18 164 40 179 6 4 8 8 5 8 -6 0 76 230 83 234 2 1 29
21 60 44 31 23 62 42 68 42 5 0 10 3 10 8 0 9 56 38 86 45 12 2 29 0 38 -5 9
-5 16 -5 16 -1 0 5 16 7 35 5 19 -2 35 -8 35 -13 0 -5 7 -5 17 -2 10 4 14 2
10 -4 -4 -6 3 -8 19 -5 34 6 41 28 18 53 -16 17 -16 22 -4 29 8 6 22 10 30 11
32 1 65 10 73 18 14 14 -2 48 -24 54 -17 5 -18 8 -8 25 10 16 10 23 0 36 -8 9
-19 16 -25 16 -14 0 -54 -40 -56 -55 -3 -46 -56 -85 -124 -91 l-44 -4 10 35
c6 19 15 32 19 29 5 -3 6 1 4 8 -3 7 8 35 25 61 38 60 40 93 5 93 -14 0 -25
-4 -25 -8 0 -4 -4 -8 -10 -8 -5 0 -9 11 -8 25 2 16 8 25 18 24 8 -1 29 4 47
10 18 7 34 11 36 9 2 -1 18 13 35 32 34 37 42 74 17 84 -17 6 -45 -2 -45 -14
0 -5 -15 -18 -34 -29 -34 -21 -86 -28 -86 -12 0 10 32 23 46 19 5 -1 19 2 32
6 18 6 22 14 20 34 -2 23 -9 28 -37 30 -48 5 -72 -3 -111 -38 -38 -34 -85 -42
-76 -12 3 9 2 23 -3 30 -15 25 -45 8 -67 -36 -11 -23 -30 -52 -42 -64 -29 -30
-44 -14 -49 54 -4 51 -20 98 -32 98 -17 -1 -34 -21 -36 -42 -1 -12 -4 -23 -6
-22 -2 1 -14 4 -27 8 -16 5 -29 3 -42 -9 -12 -11 -20 -13 -25 -6 -10 17 -45
-6 -45 -30 0 -15 -5 -19 -19 -14 -11 3 -26 -1 -35 -11 -14 -13 -14 -19 -4 -33
7 -9 19 -20 26 -24 7 -5 10 -12 7 -18 -3 -5 0 -6 8 -3 8 3 20 -2 27 -11 20
-25 -28 -19 -86 10 -56 29 -100 32 -132 9 -17 -12 -20 -19 -12 -34 5 -10 18
-21 28 -24 9 -3 22 -15 27 -27 6 -12 13 -20 16 -18 3 2 14 -3 24 -11 11 -8 16
-10 12 -4 -8 13 56 29 73 19 6 -3 10 -29 10 -56 0 -35 -3 -48 -12 -43 -6 4 -8
3 -4 -4 6 -10 0 -29 -33 -91 -17 -33 -19 -34 -29 -14 -6 11 -8 24 -4 28 4 5 2
5 -5 1 -15 -8 -26 27 -20 64 6 34 -19 63 -44 50 -9 -6 -19 -20 -21 -32 -2 -19
-8 -22 -30 -20 -17 2 -28 -1 -28 -8 0 -7 -6 -10 -14 -7 -7 3 -25 -1 -40 -8
-24 -13 -26 -12 -26 6 0 13 -7 19 -24 19 -23 0 -92 -29 -71 -30 14 -1 -26 -30
-42 -30 -19 0 -5 29 37 77 43 49 55 104 38 170 -14 56 -29 68 -57 46 -19 -16
-20 -22 -11 -53 15 -51 12 -75 -10 -101 l-19 -24 4 23 c3 12 7 31 9 41 5 24
-16 44 -41 39 -25 -5 -43 -73 -30 -118 10 -38 4 -149 -10 -159 -4 -3 -9 -11
-10 -18 -5 -22 -61 -108 -86 -129 -13 -11 -38 -29 -55 -40 -18 -10 -32 -21
-32 -25 0 -11 -70 -40 -108 -45 -20 -2 -61 -9 -91 -14 -30 -6 -56 -10 -57 -10
-1 0 1 14 6 30 5 17 7 30 5 30 -3 0 4 15 13 32 10 18 38 44 63 58 47 28 64 65
34 77 -10 3 -39 -3 -66 -14 l-48 -21 3 32 c7 55 17 74 54 99 48 31 70 70 52
92 -19 22 -46 18 -69 -11 -19 -25 -20 -25 -31 -5 -11 22 -60 30 -60 10 0 -5
-5 -7 -10 -4 -7 4 -8 11 -2 18 11 14 -2 57 -17 57 -6 0 -27 -11 -47 -25 -59
-40 -69 -31 -33 30 16 27 19 39 10 49 -15 17 -51 28 -51 14 0 -5 -12 4 -26 21
-42 50 -62 57 -90 30 -29 -27 -31 -12 -5 40 18 35 19 40 5 60 -13 17 -19 20
-30 10 -15 -12 -18 -4 -14 35 1 10 -7 26 -18 36 -19 18 -21 18 -36 1 -9 -10
-17 -33 -17 -52 -1 -19 -3 -27 -6 -17 -9 33 -57 32 -68 -2 -3 -9 -1 -30 5 -44
9 -24 8 -27 -9 -21 -35 11 -53 -5 -47 -39 5 -24 2 -35 -14 -46 -11 -8 -20 -24
-20 -37 0 -21 -1 -21 -28 5 -26 25 -33 60 -9 45 6 -4 7 -1 3 6 -5 7 0 21 10
32 9 10 14 19 11 19 -7 0 35 80 64 121 22 31 174 123 189 114 6 -4 9 -1 8 6
-4 18 64 39 144 46 61 5 70 4 101 -19 47 -37 70 -39 83 -8 10 23 7 27 -34 58
-25 17 -39 33 -31 33 8 1 28 3 44 6 17 3 38 5 47 6 9 1 15 5 12 9 -2 4 2 10 9
15 8 4 21 20 31 34 15 24 15 27 -1 42 -26 22 -32 22 -61 -6 -15 -14 -45 -29
-67 -32 -22 -4 -47 -13 -55 -20 -20 -17 -78 -46 -87 -44 -4 1 -16 -1 -26 -6
-28 -12 -30 -1 -5 41 38 66 82 96 156 109 36 6 42 10 42 31 0 17 4 23 12 18 7
-5 8 -3 4 5 -5 7 -11 10 -14 7 -3 -3 -14 2 -25 11 -11 10 -17 12 -13 6 4 -8 1
-13 -8 -13 -19 0 -20 5 -5 31 5 11 14 17 19 14 6 -3 7 1 4 9 -6 14 5 21 29 17
4 0 7 3 7 9 0 5 21 9 47 7 40 -2 48 1 59 22 l12 23 32 -31 c18 -17 29 -31 25
-31 -4 0 4 -9 19 -21 28 -22 42 -19 57 14 5 12 15 30 21 39 21 29 -11 50 -86
57 -4 1 -1 12 7 25 13 20 14 27 3 41 -12 17 -15 17 -55 2 -57 -23 -66 -22 -47
8 23 35 21 72 -6 80 -16 6 -26 1 -39 -16 -10 -13 -19 -29 -19 -35 0 -14 -26
-37 -49 -42 -26 -6 -140 -4 -151 3 -16 10 8 48 26 41 8 -3 13 -2 10 3 -3 5 5
16 18 25 36 23 21 72 -20 64 -11 -2 -24 3 -31 12 -17 22 -47 1 -51 -36 -5 -47
-33 -91 -69 -108 -42 -20 -53 -20 -53 -1 0 8 4 15 9 15 5 0 12 11 15 25 4 14
11 25 16 25 14 0 12 38 -2 54 -9 10 -17 10 -30 3 -21 -13 -27 -8 -34 28 -3 20
-1 25 8 19 10 -5 11 -4 1 7 -7 7 -13 21 -13 31 0 19 -37 26 -56 10 -5 -4 -8
-5 -6 -3 1 3 -23 14 -55 26 -46 17 -62 29 -75 56 -19 36 -46 61 -58 54 -4 -3
-20 11 -34 30 -50 66 -96 34 -58 -39 25 -46 28 -90 8 -125 -13 -24 -14 -24
-25 -3 -12 23 -73 47 -102 39 -24 -6 -25 11 -3 57 19 39 13 66 -15 66 -11 0
-22 8 -25 18 -10 29 -62 55 -86 42 -28 -15 -25 -32 10 -70 21 -23 30 -42 30
-66 0 -19 -3 -34 -8 -34 -18 0 -74 61 -68 75 3 8 1 15 -5 15 -6 0 -8 4 -5 9 4
5 1 11 -6 13 -7 3 -8 9 -3 19 5 8 8 22 7 31 -2 9 4 30 12 45 14 28 10 92 -8
121 -8 13 -39 16 -49 5z m-6 -284 c6 -13 4 -18 -11 -22 -27 -7 -85 24 -84 45
1 10 -2 16 -6 13 -4 -3 -8 11 -8 30 l0 35 50 -43 c27 -23 54 -49 59 -58z m316
-182 c11 -17 24 -51 28 -74 l7 -43 -45 25 c-37 21 -49 36 -71 86 -14 33 -26
62 -26 64 0 2 19 -3 43 -11 27 -9 50 -26 64 -47z m129 29 c-4 8 10 14 39 18
77 12 142 -33 166 -115 16 -52 -9 -124 -67 -201 -25 -32 -47 -58 -49 -58 -11
0 -95 132 -89 142 4 6 3 8 -3 5 -13 -8 -20 16 -19 60 1 17 -2 29 -6 26 -5 -2
-9 11 -9 29 -1 18 -3 42 -4 53 -1 11 2 31 7 44 8 23 9 24 24 5 9 -10 13 -14
10 -8z m-425 -43 c13 -16 12 -17 -3 -4 -10 7 -18 15 -18 17 0 8 8 3 21 -13z
m272 -150 c67 -44 137 -117 137 -143 0 -5 5 -10 10 -10 6 0 10 -7 10 -15 0 -8
3 -15 8 -15 4 0 15 -14 24 -30 14 -25 17 -58 17 -202 l0 -172 -56 -106 c-87
-165 -134 -250 -141 -254 -9 -5 -115 162 -115 180 0 7 -4 11 -8 9 -10 -7 -20
25 -12 37 3 7 1 8 -5 4 -14 -8 -27 36 -19 65 3 12 3 18 -1 14 -4 -4 -12 26
-18 67 -8 56 -7 80 2 106 14 34 14 35 14 55 0 8 9 24 20 37 11 13 20 20 20 17
0 -4 9 1 20 10 30 26 106 36 119 15 12 -20 57 -24 71 -7 11 13 11 20 1 37 -9
15 -9 23 0 34 6 7 15 11 20 8 5 -3 6 2 3 10 -3 9 -2 16 3 16 10 0 10 56 1 66
-4 3 -14 7 -25 9 -10 1 -17 7 -16 12 1 6 -12 10 -30 9 -22 0 -32 4 -33 14 0 8
-6 32 -14 53 -14 37 -46 57 -69 42 -15 -9 -13 -47 4 -69 31 -41 4 -156 -32
-142 -13 5 -13 4 -4 -8 9 -11 6 -17 -13 -30 -35 -22 -46 -20 -46 10 0 14 4 23
8 20 4 -2 6 12 4 32 -5 42 -18 55 -43 42 -17 -10 -33 4 -76 66 -20 29 -22 91
-2 78 5 -3 6 2 3 10 -8 20 39 63 74 69 63 11 112 -2 185 -50z m583 -50 c10
-16 17 -32 15 -38 -1 -5 1 -7 5 -3 11 11 34 -12 34 -33 0 -11 -6 -19 -12 -20
-10 0 -10 -2 -1 -5 14 -6 1 -49 -25 -77 -15 -17 -17 -16 -33 25 -9 24 -14 47
-11 52 3 5 0 6 -5 3 -6 -4 -16 0 -23 8 -16 20 -49 19 -57 -1 -3 -8 4 -35 16
-59 24 -49 35 -105 20 -105 -6 0 -8 -4 -4 -9 3 -6 -6 -34 -21 -63 -23 -47 -36
-60 -112 -106 -46 -29 -87 -50 -90 -48 -9 9 -8 141 1 154 5 6 6 12 1 12 -5 0
-7 28 -6 62 4 63 26 113 45 101 6 -3 7 -1 3 5 -9 15 45 93 61 87 7 -2 10 2 7
10 -3 7 4 18 15 25 12 6 21 7 21 3 0 -4 4 -3 8 3 9 14 81 43 108 43 13 1 29
-10 40 -26z m-186 11 c0 -8 -19 -13 -24 -6 -3 5 1 9 9 9 8 0 15 -2 15 -3z
m-1445 -133 c3 -5 2 -12 -3 -15 -5 -3 -9 1 -9 9 0 17 3 19 12 6z m725 -16 c0
-8 -2 -15 -4 -15 -2 0 -6 7 -10 15 -3 8 -1 15 4 15 6 0 10 -7 10 -15z m-52 -9
c-16 -12 -16 -14 2 -44 11 -18 17 -32 14 -32 -4 0 -1 -7 6 -15 7 -9 10 -19 6
-22 -4 -4 -10 -3 -14 3 -7 10 -11 10 -77 13 l-36 1 16 30 c9 18 21 28 27 24 6
-4 8 -3 4 4 -6 10 40 51 59 51 6 0 2 -5 -7 -13z m422 -22 c-20 -23 -51 -38
-44 -20 3 7 15 18 27 24 30 15 31 14 17 -4z m-287 -41 c-4 -10 -2 -14 4 -10
10 6 26 -36 27 -68 1 -25 -14 -75 -22 -75 -28 0 -57 123 -40 169 7 19 11 21
23 11 7 -6 11 -19 8 -27z m-703 1 c0 -8 -19 -13 -24 -6 -3 5 1 9 9 9 8 0 15
-2 15 -3z m53 -14 c3 -11 3 -20 1 -20 -2 0 -8 9 -14 20 -6 11 -7 20 -2 20 6 0
12 -9 15 -20z m-11 -124 c10 -9 21 -17 25 -16 4 0 8 -10 8 -22 0 -18 -6 -23
-25 -24 -50 -1 -87 30 -67 55 7 8 7 12 2 9 -7 -4 -9 8 -7 33 l4 40 22 -29 c11
-16 29 -36 38 -46z m-1070 -18 c-2 -10 -8 -18 -13 -18 -11 0 -11 35 -2 70 7
25 7 25 13 -5 3 -16 4 -38 2 -47z m1314 34 c67 1 104 -27 136 -102 l27 -65
-59 -3 c-44 -2 -70 3 -105 19 -43 20 -45 22 -26 35 26 19 16 51 -21 70 -17 9
-28 12 -25 6 4 -5 -7 -9 -23 -9 -33 0 -38 8 -16 26 11 9 15 9 19 -1 3 -7 4 1
2 18 -3 31 -3 32 23 18 14 -7 45 -13 68 -12z m295 2 c5 -3 6 -10 3 -16 -5 -7
-2 -8 5 -3 9 5 25 -6 48 -31 53 -60 61 -75 67 -129 4 -27 9 -63 12 -78 l6 -29
-93 49 c-100 51 -101 52 -144 167 l-25 67 22 9 c22 9 81 5 99 -6z m-745 -6 c4
-7 4 -10 -1 -6 -4 4 -15 2 -24 -5 -14 -11 -14 -10 -2 6 16 20 18 21 27 5z
m-96 -14 c0 -8 -19 -13 -24 -6 -3 5 1 9 9 9 8 0 15 -2 15 -3z m160 -4 c0 -5
-5 -10 -11 -10 -5 0 -7 5 -4 10 3 6 8 10 11 10 2 0 4 -4 4 -10z m-105 -75 c1
-24 -2 -42 -6 -39 -5 3 -9 15 -9 27 0 12 -4 29 -10 37 -6 9 -5 17 3 22 17 10
20 3 22 -47z m390 -79 l44 -23 -25 -12 c-14 -6 -29 -9 -34 -6 -4 3 -10 -1 -13
-9 -3 -8 -14 -13 -24 -11 -10 2 -31 4 -46 4 -25 1 -27 3 -17 22 18 33 43 59
58 59 7 0 33 -11 57 -24z m-522 -14 c37 -21 49 -42 24 -42 -7 0 -19 6 -26 13
-11 10 -13 10 -7 0 12 -21 -9 -15 -38 12 -49 45 -19 56 47 17z m212 -39 c-19
-18 -22 -16 -22 11 0 21 2 23 17 14 15 -10 16 -14 5 -25z m-465 13 c0 -2 -7
-7 -16 -10 -8 -3 -12 -2 -9 4 6 10 25 14 25 6z m21 -19 c-10 -9 -11 -8 -5 6 3
10 9 15 12 12 3 -3 0 -11 -7 -18z m923 -9 c-5 -7 -3 -8 7 -2 8 5 41 7 74 6 47
-3 78 -12 139 -44 108 -55 137 -74 129 -82 -4 -4 0 -4 9 -1 13 5 32 -16 81
-92 86 -131 127 -201 127 -216 -1 -7 -11 1 -24 16 -44 55 -89 8 -50 -51 10
-15 17 -31 16 -36 -2 -6 -1 -20 3 -33 6 -25 49 -33 58 -10 3 6 6 -17 7 -53 1
-84 10 -246 14 -287 2 -18 2 -33 -1 -33 -8 0 -359 119 -429 145 -72 27 -70 26
-230 171 -146 132 -161 149 -179 194 -9 25 -20 51 -23 59 -3 9 -1 12 7 7 6 -4
18 -2 26 4 19 16 10 55 -21 85 -13 13 -24 31 -24 40 0 25 28 85 40 85 6 0 8 5
4 12 -5 7 -2 9 9 5 11 -4 14 -2 11 7 -11 29 133 104 219 115 5 1 5 -4 1 -11z
m-957 -11 c0 -8 -6 -14 -14 -14 -9 0 -10 4 -2 14 6 7 12 13 14 13 1 0 2 -6 2
-13z m-159 -9 c-2 -6 -10 -14 -16 -16 -7 -2 -10 2 -6 12 7 18 28 22 22 4z
m260 -10 c18 -18 15 -25 -10 -24 -27 1 -42 17 -25 28 16 10 21 10 35 -4z
m-521 -13 c0 -8 -4 -12 -9 -9 -5 3 -6 10 -3 15 9 13 12 11 12 -6z m987 -43
c-4 -9 -7 -20 -6 -24 3 -13 -25 -2 -47 19 l-22 21 26 6 c14 4 30 4 35 1 6 -4
10 0 11 7 0 10 2 10 6 0 3 -7 1 -20 -3 -30z m99 32 c6 -6 -16 -34 -26 -34 -4
0 -3 21 2 38 2 4 18 2 24 -4z m2834 -77 c26 -38 29 -59 19 -113 l-7 -41 -30
28 c-17 16 -28 33 -24 39 4 6 1 9 -7 8 -7 -2 -12 3 -10 10 1 6 -2 12 -7 12 -9
0 -25 44 -24 68 2 55 0 53 36 36 18 -9 42 -30 54 -47z m-3242 -8 c-4 -19 -3
-29 5 -29 6 0 9 -4 5 -9 -3 -6 6 -6 24 -1 16 4 32 5 36 2 3 -4 3 1 -1 11 -3 9
-2 17 2 18 34 3 70 12 86 20 22 12 41 2 34 -17 -3 -8 0 -11 10 -7 8 3 25 -6
39 -20 l25 -25 -24 -15 c-17 -11 -26 -13 -34 -5 -6 6 -3 -6 6 -26 14 -32 20
-37 42 -31 58 14 54 17 102 -90 27 -62 29 -75 15 -75 -11 0 -101 14 -166 25
-42 7 -175 110 -165 127 4 6 3 8 -4 4 -12 -7 -44 33 -36 46 3 4 0 8 -6 8 -7 0
-9 7 -6 17 4 10 4 14 0 10 -9 -9 -44 42 -44 66 0 9 7 17 15 17 8 0 15 4 15 10
0 5 7 7 16 3 11 -4 13 -13 9 -34z m-295 19 c0 -9 3 -9 9 1 6 9 15 11 27 6 11
-5 25 -7 32 -6 6 1 12 -3 12 -9 0 -5 3 -9 8 -9 17 3 35 -1 30 -7 -4 -3 -9 -5
-13 -4 -9 1 -35 -27 -35 -40 0 -6 -7 -22 -16 -35 -14 -22 -14 -26 7 -54 13
-17 27 -31 31 -31 5 0 6 -5 3 -10 -3 -6 -14 -7 -23 -2 -20 9 -64 8 -80 -2 -23
-14 -3 45 27 80 30 34 31 37 16 54 -9 10 -24 16 -32 13 -35 -13 -72 -60 -84
-105 -11 -41 -15 -45 -31 -37 -10 6 -15 15 -12 21 4 7 3 8 -4 4 -6 -4 -19 5
-28 20 -15 22 -16 29 -4 47 11 19 11 20 -1 10 -9 -7 -20 -9 -29 -3 -12 7 -11
15 5 46 21 40 45 56 45 31 0 -9 -6 -17 -12 -20 -7 -2 8 -3 34 -3 25 1 44 4 42
8 -3 4 4 16 16 28 22 22 60 27 60 8z m1968 -13 c-3 -13 -1 -22 3 -19 13 8 10
-17 -6 -51 l-13 -30 -1 47 c-1 45 6 78 16 78 3 0 3 -11 1 -25z m1857 -44 c0
-27 -3 -47 -7 -45 -4 3 -1 -8 7 -23 19 -36 19 -35 -6 -118 -20 -68 -23 -72
-82 -110 -34 -22 -68 -45 -75 -52 -21 -21 -35 -15 -30 12 3 13 2 26 -3 27 -4
2 -10 21 -13 43 -4 22 -9 48 -12 58 -3 10 0 17 8 17 10 0 10 2 1 8 -9 6 -9 19
-2 52 15 61 17 74 18 82 1 12 74 85 91 91 8 3 35 6 60 6 l45 1 0 -49z m-3605
-72 l19 -36 -35 4 c-36 4 -84 29 -84 43 0 4 15 17 32 28 36 23 35 23 68 -39z
m1911 -54 c1 -11 2 -27 3 -35 2 -20 -32 -90 -44 -90 -6 0 -10 9 -10 19 0 11
-5 23 -10 26 -8 5 -7 11 1 21 10 12 10 15 -2 12 -10 -2 -15 8 -17 34 -2 27 2
41 20 57 l22 22 18 -23 c10 -13 18 -32 19 -43z m-241 45 c0 -5 -5 -10 -11 -10
-5 0 -7 5 -4 10 3 6 8 10 11 10 2 0 4 -4 4 -10z m1569 -33 c-2 -1 -13 -9 -24
-17 -19 -14 -19 -14 -6 3 7 9 18 17 24 17 6 0 8 -1 6 -3z m-1731 -35 c28 -9
104 -81 96 -93 -3 -5 -1 -9 4 -9 5 0 14 -18 20 -40 7 -29 7 -38 -2 -33 -6 3
-6 1 2 -8 6 -7 12 -19 12 -27 0 -21 -66 -7 -112 24 -34 22 -68 64 -52 64 4 0
0 8 -9 18 -10 10 -15 21 -12 24 3 3 -6 3 -20 0 l-26 -5 23 47 c22 46 31 50 76
38z m1792 -38 c0 5 2 7 5 4 9 -9 46 -209 40 -218 -3 -5 -1 -11 4 -14 5 -4 -1
-31 -14 -64 -13 -31 -39 -99 -57 -149 -18 -53 -38 -93 -45 -93 -7 0 -13 3 -13
8 0 4 -16 24 -36 45 -19 20 -33 37 -30 37 3 0 -5 11 -18 25 -17 19 -25 41 -29
92 -11 110 -8 159 8 173 8 7 15 19 15 26 0 8 5 14 10 14 6 0 10 6 10 13 0 19
52 72 88 91 18 9 32 24 32 34 1 13 4 11 15 -8 8 -14 14 -21 15 -16z m-3191
-21 c48 -36 49 -38 28 -46 -23 -9 -58 -17 -92 -22 -11 -2 -20 -4 -20 -5 0 -5
-62 -8 -75 -3 -8 3 -33 7 -54 9 -47 5 -54 10 -40 31 27 43 89 70 166 72 28 1
49 -8 87 -36z m1634 19 c-2 -6 3 -9 11 -6 15 6 30 -22 19 -38 -3 -6 -2 -8 4
-5 13 8 53 -76 48 -101 -2 -11 -6 -40 -10 -64 -11 -73 -18 -76 -63 -32 -35 34
-42 47 -50 102 -5 34 -6 65 -1 67 4 3 5 13 2 23 -2 10 2 24 11 31 8 7 12 19 9
28 -4 11 -2 14 8 11 8 -3 13 -10 12 -16z m-2268 -2 c3 -5 1 -10 -4 -10 -6 0
-11 5 -11 10 0 6 2 10 4 10 3 0 8 -4 11 -10z m185 -19 c16 -1 39 -16 88 -59
l27 -22 -30 15 c-16 8 -45 15 -63 15 -18 0 -31 4 -27 9 3 5 0 13 -6 17 -7 4
-9 3 -6 -3 4 -6 0 -16 -7 -22 -11 -10 -19 -7 -35 10 -32 35 -26 50 17 44 15
-1 34 -3 42 -4z m2383 -22 c12 -7 34 -12 49 -11 18 0 28 -4 28 -14 0 -16 -21
-19 -35 -5 -6 6 -22 12 -37 15 -15 2 -33 8 -39 12 -8 4 -9 3 -5 -4 4 -7 2 -12
-3 -12 -17 0 -13 -31 6 -52 9 -10 24 -18 33 -18 24 0 54 -36 46 -55 -3 -9 -2
-14 3 -11 23 15 22 -103 -2 -184 -13 -41 -32 -71 -75 -118 -32 -34 -62 -59
-67 -55 -4 5 -5 3 -2 -3 4 -6 -2 -22 -13 -34 -11 -13 -20 -19 -20 -14 -1 8 -6
32 -27 129 -4 17 -7 40 -7 53 -1 12 -4 22 -8 22 -5 0 -8 21 -8 46 0 32 3 43
12 38 7 -5 8 -3 4 5 -12 20 3 103 17 94 8 -4 7 -1 -1 9 -9 11 -10 18 -2 23 5
3 10 16 10 29 0 12 9 32 20 44 11 12 20 26 20 31 0 13 49 51 67 51 8 0 24 -5
36 -11z m895 -34 c17 -9 44 -37 61 -63 26 -41 31 -60 36 -135 4 -58 3 -87 -4
-87 -6 0 -11 5 -11 11 0 5 -3 8 -8 5 -4 -2 -22 2 -40 10 -31 13 -32 15 -19 34
28 41 -8 87 -41 54 -15 -16 -17 -14 -25 17 -5 19 -16 42 -24 52 -15 16 -17 16
-35 0 -12 -11 -18 -26 -15 -40 2 -13 0 -26 -4 -29 -9 -5 -13 29 -10 84 2 22
-3 34 -14 39 -27 10 -87 -16 -122 -53 -41 -42 -47 -43 -25 -4 36 64 140 86
217 46 27 -14 30 -14 38 0 5 9 6 29 3 45 -6 33 -1 35 42 14z m-2578 -50 c40
-8 63 -13 70 -15 3 -1 18 -1 34 0 24 1 28 -1 22 -16 -5 -14 -4 -15 8 -5 12 11
20 8 43 -15 15 -16 27 -32 25 -37 -1 -5 1 -6 6 -3 5 3 29 -13 53 -35 24 -22
70 -63 102 -91 31 -28 57 -54 57 -58 0 -4 -26 -14 -57 -23 -32 -8 -91 -25
-131 -38 -40 -12 -75 -20 -78 -17 -2 3 -7 18 -10 34 -6 34 -8 37 -34 39 -11 1
-30 11 -42 23 -13 11 -27 21 -33 22 -30 2 -45 14 -45 35 0 13 -6 26 -12 29
-10 3 -8 8 4 15 9 7 14 19 11 30 -5 20 -29 35 -43 26 -4 -3 -6 4 -3 14 3 13
-2 23 -17 31 -27 14 -57 -9 -62 -48 -2 -14 -9 -27 -16 -30 -9 -3 -12 3 -10 14
2 15 -4 19 -28 20 l-31 1 0 -63 c0 -69 -26 -125 -81 -177 l-30 -28 -10 29 c-6
17 -8 33 -5 36 4 3 1 6 -5 6 -6 0 -15 15 -20 33 -11 41 13 120 48 157 14 15
25 38 25 51 0 22 8 26 80 45 77 20 141 23 215 9z m-454 -37 c6 -10 -32 -29
-41 -20 -3 4 -5 1 -3 -7 2 -7 -3 -16 -11 -19 -10 -3 -13 1 -8 17 3 11 1 19 -4
15 -10 -6 -12 9 -2 19 8 9 63 5 69 -5z m1558 -17 c3 -5 -1 -11 -9 -15 -8 -3
-15 -1 -15 4 0 6 -5 10 -11 10 -5 0 -7 -6 -3 -12 5 -10 4 -10 -6 -1 -7 6 -10
19 -6 28 4 12 10 14 25 5 11 -5 22 -14 25 -19z m-1689 -31 c3 -5 -1 -10 -10
-10 -9 0 -13 5 -10 10 3 6 8 10 10 10 2 0 7 -4 10 -10z m-181 -18 c3 -5 -1 -9
-9 -9 -8 0 -12 4 -9 9 3 4 7 8 9 8 2 0 6 -4 9 -8z m66 -2 c0 -5 -2 -10 -4 -10
-3 0 -8 5 -11 10 -3 6 -1 10 4 10 6 0 11 -4 11 -10z m286 -12 c-3 -7 -7 -25
-10 -40 -6 -25 -8 -27 -26 -16 -26 16 -26 35 0 43 11 3 20 11 20 16 0 5 4 9
10 9 5 0 8 -6 6 -12z m1488 -18 c-6 -6 -10 -3 -10 10 0 13 4 16 10 10 7 -7 7
-13 0 -20z m164 14 c20 -8 38 -15 40 -15 17 4 37 -8 90 -57 l63 -58 35 -158
c19 -88 31 -162 27 -165 -4 -3 -9 -15 -9 -26 -1 -19 -68 -253 -81 -285 -3 -8
-7 -18 -7 -22 -1 -3 -4 -9 -7 -12 -9 -9 -41 43 -34 55 4 5 2 8 -4 7 -10 -3
-131 166 -131 183 0 5 -4 9 -9 9 -5 0 -11 8 -15 18 -5 16 -53 88 -95 143 -11
14 -22 39 -25 55 -9 55 -10 179 -2 193 6 10 5 12 -2 7 -8 -5 -12 4 -12 29 0
22 4 34 10 30 6 -3 10 -1 10 6 0 22 61 71 81 66 10 -3 17 -1 13 4 -8 14 23 11
64 -7z m1133 -54 c12 -14 27 -18 63 -16 52 4 60 -10 24 -44 -24 -22 -44 -27
-32 -8 4 7 3 8 -5 4 -6 -4 -9 -11 -6 -16 8 -13 -39 -26 -138 -37 -43 -4 -72
-1 -112 13 -30 10 -55 21 -55 25 0 12 77 69 84 62 3 -3 6 -1 6 5 0 16 89 42
125 36 17 -3 37 -14 46 -24z m-3196 -10 c3 -5 1 -10 -4 -10 -6 0 -11 5 -11 10
0 6 2 10 4 10 3 0 8 -4 11 -10z m730 -20 c-9 -16 -19 -30 -23 -31 -4 0 -15 -2
-24 -4 -14 -2 -15 0 -6 15 9 14 55 49 66 50 1 0 -4 -13 -13 -30z m-485 10 c0
-13 -11 -13 -30 0 -12 8 -11 10 8 10 12 0 22 -4 22 -10z m105 -60 c-3 -4 3 -7
13 -6 10 0 16 -6 16 -16 -1 -10 2 -16 6 -13 4 3 10 -2 14 -10 6 -18 1 -19 -25
-4 -11 5 -17 14 -14 19 3 6 -1 7 -9 4 -9 -4 -18 1 -22 10 -3 9 -12 16 -20 16
-17 0 -17 5 -3 31 10 20 11 20 30 -2 10 -12 16 -25 14 -29z m4056 27 c-10 -9
-11 -8 -5 6 3 10 9 15 12 12 3 -3 0 -11 -7 -18z m-4437 -5 c2 -4 -2 -16 -10
-27 -8 -10 -14 -13 -14 -6 0 7 -4 10 -9 7 -5 -3 -11 1 -14 8 -8 20 35 36 47
18z m156 -4 c0 -5 5 -6 10 -3 6 3 10 1 10 -5 0 -6 4 -8 10 -5 14 8 50 -13 50
-29 0 -8 -15 -26 -32 -41 -18 -14 -41 -33 -51 -41 -20 -17 -127 -20 -127 -3 0
5 -4 8 -8 5 -4 -2 -13 -1 -19 2 -8 5 -2 14 17 27 16 11 33 29 39 41 19 42 44
63 73 62 15 -1 28 -5 28 -10z m3383 -70 c12 -6 29 -19 37 -29 150 -173 140
-153 155 -329 3 -36 8 -74 10 -85 2 -11 7 -54 10 -95 4 -41 8 -95 10 -119 4
-37 -11 -83 -101 -305 l-105 -261 -96 -55 c-53 -30 -106 -59 -117 -65 -12 -5
-93 -44 -181 -86 -89 -42 -196 -89 -240 -104 -85 -29 -234 -47 -221 -27 4 8 2
10 -8 6 -41 -16 -141 71 -184 160 -35 73 -53 114 -56 128 -2 7 -8 25 -14 40
-26 63 -53 168 -46 179 4 7 3 9 -3 6 -6 -4 -13 5 -16 21 -3 15 -10 43 -16 62
-25 86 -50 194 -45 201 2 4 0 10 -6 14 -5 3 -10 17 -10 31 0 14 3 23 8 21 4
-3 7 7 8 21 1 31 42 185 86 321 26 82 38 102 83 148 28 29 50 54 49 56 -2 2
20 26 49 54 42 41 61 52 95 57 24 3 46 8 50 10 11 7 122 20 157 19 17 -1 44
-7 60 -14 17 -7 35 -13 40 -14 44 -8 74 -19 69 -26 -3 -5 1 -7 8 -4 20 8 127
-94 154 -147 17 -33 24 -64 24 -102 0 -40 4 -55 16 -60 26 -10 34 -7 46 19 16
35 25 31 38 -12 12 -47 17 -53 60 -85 30 -23 38 -25 53 -14 27 20 20 46 -20
85 -34 31 -36 35 -18 39 10 2 21 -1 23 -7 5 -15 79 -14 85 2 14 39 -48 77
-124 76 -47 -2 -55 1 -86 35 -20 20 -33 39 -31 41 7 8 48 -26 48 -39 0 -21 42
-27 68 -10 18 12 21 18 12 29 -9 10 -6 15 12 21 13 4 26 7 30 6 4 -1 19 3 33
8 30 11 32 33 6 59 -14 14 -16 21 -7 24 13 5 29 58 17 54 -3 0 -20 7 -38 16
-18 9 -53 17 -78 17 -31 0 -44 4 -39 11 3 6 17 9 30 6 12 -2 29 0 36 5 16 10
102 2 131 -14z m-2656 -5 c46 -16 53 -21 53 -45 0 -23 -6 -29 -37 -37 -50 -14
-58 -14 -73 5 -17 19 -56 41 -46 25 4 -6 0 -11 -9 -11 -9 0 -13 -5 -9 -11 4
-8 -3 -9 -22 -6 -16 3 -50 9 -77 12 l-47 6 30 25 c60 51 150 65 237 37z m-957
-13 c0 -5 -10 -10 -22 -9 -22 0 -22 1 -3 9 11 5 21 9 23 9 1 1 2 -3 2 -9z
m438 -42 c2 -4 10 -8 18 -8 23 0 16 -14 -13 -27 -32 -15 -67 -17 -58 -3 3 6 1
10 -4 10 -6 0 -11 18 -11 41 l0 40 33 -22 c17 -13 34 -27 35 -31z m1006 36 c9
-3 13 -11 9 -17 -3 -6 -1 -7 6 -3 6 4 28 2 49 -5 20 -7 42 -14 47 -15 6 -1 96
-32 200 -68 152 -53 194 -72 210 -93 83 -112 223 -328 218 -337 -3 -6 -3 -8 2
-4 7 7 35 -29 94 -125 24 -40 48 -126 56 -205 2 -26 7 -67 10 -92 3 -25 7 -70
10 -100 2 -30 7 -68 10 -83 4 -22 3 -27 -7 -21 -10 6 -10 4 1 -9 9 -12 13 -50
13 -134 0 -220 -42 -310 -157 -342 -50 -14 -173 -14 -290 -1 -49 6 -109 11
-132 12 -25 0 -40 5 -37 10 4 7 0 7 -12 0 -17 -8 -227 -8 -324 1 -25 2 -88 38
-220 126 -102 67 -184 127 -182 132 1 6 -2 8 -8 4 -10 -6 -89 44 -90 56 0 4
11 10 25 13 46 12 29 57 -28 71 -15 4 -27 10 -27 14 0 8 -57 72 -65 71 -29 -1
-36 4 -41 30 -4 17 -11 30 -16 30 -6 0 -8 9 -5 20 3 11 2 18 -2 15 -5 -2 -13
7 -20 22 -10 22 -9 25 4 20 8 -4 15 -2 15 4 0 6 7 8 16 5 8 -3 12 -2 9 4 -3 5
4 19 15 30 15 15 25 18 37 11 13 -7 22 -4 35 11 20 23 23 38 9 38 -10 0 -51
61 -51 76 0 4 14 -7 32 -25 39 -40 74 -40 71 2 -1 15 2 27 7 27 14 0 20 31 10
50 -9 16 -18 18 -58 13 -42 -5 -52 -2 -74 18 -52 49 -86 128 -55 130 10 0 10
2 0 6 -24 9 -13 26 56 92 106 102 115 109 191 132 62 19 77 20 114 9 32 -9 53
-9 82 -1 52 15 57 14 81 -8 20 -19 21 -19 42 0 32 30 26 46 -28 74 -33 16 -42
16 -133 0 -33 -5 -36 5 -9 29 17 16 38 88 31 111 -1 6 -3 15 -3 22 0 14 -49 6
-59 -10 -4 -7 -8 -23 -8 -35 0 -31 -38 -85 -56 -78 -8 3 -11 0 -8 -8 3 -8 -13
-21 -46 -34 -54 -23 -55 -21 -44 37 4 17 11 28 17 24 6 -3 7 -1 3 6 -4 6 -1
18 8 26 17 18 30 20 20 3 -4 -7 -3 -8 5 -4 6 4 9 11 6 16 -7 11 31 37 60 42
25 4 47 32 43 55 -2 13 10 22 52 36 30 9 62 19 70 21 8 2 22 6 30 9 16 6 96
29 118 33 8 1 16 5 20 8 7 7 7 7 26 0z m1943 -50 c37 -28 44 -60 13 -60 -11 0
-20 4 -20 9 0 4 -4 6 -9 3 -13 -9 -57 10 -98 42 l-36 27 29 7 c44 10 84 1 121
-28z m-3447 -12 c0 -6 -6 -12 -14 -15 -16 -7 -28 16 -20 38 5 12 8 12 20 0 8
-7 14 -18 14 -23z m366 -14 c-3 -7 -9 -21 -12 -30 -7 -20 -20 -23 -29 -8 -9
14 13 50 31 50 9 0 13 -5 10 -12z m-260 -25 c-7 -7 -26 7 -26 19 0 6 6 6 15
-2 9 -7 13 -15 11 -17z m507 -65 c-5 -78 -8 -96 -15 -103 -8 -8 -113 43 -133
65 -18 20 -13 40 10 40 7 0 15 4 17 8 3 9 96 50 114 51 8 1 10 -19 7 -61z
m182 46 c39 -3 77 -10 86 -15 9 -4 26 -5 39 -2 19 5 13 -7 -35 -73 -83 -112
-145 -185 -155 -179 -5 3 -10 -1 -13 -7 -2 -7 -14 6 -26 30 -19 37 -21 54 -16
110 12 139 15 153 33 148 9 -3 49 -8 87 -12z m-565 -9 c-7 -8 -26 -15 -43 -15
-28 0 -29 1 -13 13 9 7 29 14 43 15 22 2 24 0 13 -13z m-254 -11 c-5 -13 -3
-14 6 -7 22 17 97 -15 84 -35 -11 -18 -81 -35 -110 -28 -19 5 -26 13 -26 32 0
17 4 23 13 18 10 -6 10 -4 0 7 -19 19 -16 24 13 27 21 1 25 -2 20 -14z m1064
2 c0 -3 -4 -8 -10 -11 -5 -3 -10 -1 -10 4 0 6 5 11 10 11 6 0 10 -2 10 -4z
m-86 -147 c-2 -28 -9 -61 -16 -72 -12 -24 -49 -53 -60 -49 -5 1 -7 -2 -5 -6 1
-5 -13 -23 -30 -41 l-33 -33 0 32 c0 24 18 56 70 126 39 52 72 94 74 94 2 0 2
-23 0 -51z m-723 14 c-8 -15 -10 -15 -11 -2 0 17 10 32 18 25 2 -3 -1 -13 -7
-23z m-131 7 c0 -5 11 -12 25 -16 14 -3 25 -13 25 -21 0 -9 -5 -11 -12 -7 -9
5 -8 2 1 -9 18 -23 12 -28 -45 -32 -55 -5 -69 1 -51 19 6 8 16 11 21 8 5 -3 6
0 2 6 -7 12 13 62 26 62 4 0 8 -4 8 -10z m4948 -16 c-10 -10 -23 -14 -37 -9
-31 10 -25 23 12 27 41 4 45 1 25 -18z m-5058 -9 c-7 -9 -15 -13 -19 -10 -3 3
1 10 9 15 21 14 24 12 10 -5z m530 -36 c0 -6 -4 -7 -10 -4 -5 3 -10 1 -10 -6
0 -7 -3 -10 -6 -6 -10 10 5 39 16 32 5 -3 10 -11 10 -16z m4370 9 c0 -5 4 -6
10 -3 12 7 80 -24 80 -37 0 -5 -4 -6 -10 -3 -5 3 -10 2 -10 -3 0 -11 -103 -46
-142 -49 -24 -1 -28 3 -29 25 -1 15 -1 31 0 35 1 5 -2 6 -7 3 -4 -2 -13 3 -19
13 -10 16 -6 18 40 20 28 1 52 3 54 5 7 7 33 2 33 -6z m157 -23 c0 -8 -4 -12
-9 -9 -5 3 -6 10 -3 15 9 13 12 11 12 -6z m-4442 -21 c8 -9 22 -29 30 -45 l15
-29 -70 -35 c-74 -37 -90 -42 -90 -24 0 5 4 8 8 5 5 -3 7 7 4 22 -2 21 5 35
32 61 20 19 36 41 36 48 0 18 15 16 35 -3z m4095 -21 c0 -7 -7 -13 -15 -13
-16 0 -19 9 -9 35 5 13 8 14 15 3 5 -7 9 -19 9 -25z m-4270 19 c0 -4 -6 -14
-12 -21 -8 -8 -8 -11 -2 -8 7 4 13 -3 16 -16 6 -31 -11 -109 -23 -102 -5 4 -6
11 -3 17 4 6 2 8 -3 5 -6 -4 -23 9 -37 27 -27 35 -33 52 -17 41 5 -3 13 -1 16
5 4 6 3 10 -2 9 -21 -4 -31 3 -36 21 -4 16 0 20 18 20 13 0 25 -6 28 -12 3
-10 10 -8 23 5 19 18 34 22 34 9z m4735 -23 c3 -5 -8 -7 -25 -5 -41 5 -47 13
-10 14 16 0 32 -3 35 -9z m-4972 -29 c-3 -11 -9 -17 -14 -14 -5 3 -6 -1 -3 -9
7 -19 -11 -30 -36 -22 -24 8 -16 31 19 50 35 19 40 18 34 -5z m4401 -42 c10
-23 11 -40 4 -60 -19 -53 -39 -25 -36 50 2 50 14 54 32 10z m-170 16 c-21 -9
-2 -49 37 -77 36 -26 76 -82 71 -99 -1 -5 2 -8 7 -8 12 0 33 -123 25 -146 -3
-11 -22 -56 -41 -100 l-35 -81 -128 -77 c-118 -71 -136 -78 -217 -92 -100 -16
-258 -40 -327 -49 l-47 -7 19 39 c10 21 30 68 43 105 13 36 26 65 30 62 4 -2
6 4 4 13 -1 10 1 23 5 28 3 6 15 32 24 58 16 41 20 46 34 35 13 -11 14 -11 3
7 -24 39 64 195 94 167 5 -4 5 -2 2 4 -6 11 5 22 136 139 73 64 83 69 130 73
29 2 53 5 54 6 1 1 22 3 45 4 24 0 38 -1 32 -4z m-4536 -29 c-3 -3 -9 2 -12
12 -6 14 -5 15 5 6 7 -7 10 -15 7 -18z m158 -21 c-3 -7 3 -10 14 -7 10 3 27
-4 38 -15 11 -11 24 -17 28 -14 5 4 2 -1 -5 -11 -8 -9 -16 -15 -19 -13 -2 3
-11 -1 -19 -9 -18 -18 -74 -20 -92 -2 -11 9 -12 9 -7 0 8 -15 -16 -8 -52 15
l-23 15 31 27 c16 15 30 32 30 39 0 7 5 9 10 6 6 -3 10 -1 10 5 0 7 12 4 30
-7 17 -10 28 -23 26 -29z m664 -56 c0 -5 0 -11 -1 -14 0 -4 5 -10 11 -14 9 -6
9 -21 1 -61 -6 -30 -13 -69 -16 -88 -3 -18 -15 -51 -26 -72 -17 -35 -22 -38
-40 -29 -11 6 -17 15 -14 20 3 6 0 7 -7 5 -33 -13 -107 85 -111 148 -1 9 -5
17 -9 17 -4 0 -8 10 -8 23 0 19 16 31 93 69 l92 45 17 -21 c10 -12 18 -24 18
-28z m-908 2 c29 0 71 -28 62 -41 -3 -6 -13 -8 -21 -5 -8 3 -11 1 -8 -4 9 -15
-77 -12 -97 4 -15 11 -15 16 -3 39 26 50 28 52 36 29 5 -14 17 -22 31 -22z
m4900 5 c5 -23 -2 -30 -25 -26 -5 1 -6 -3 -2 -9 3 -6 11 -8 16 -5 13 9 11 1
-8 -42 -18 -37 -47 -73 -59 -73 -13 0 5 100 23 127 38 60 48 65 55 28z m138
-28 c0 -6 -3 -8 -6 -4 -3 3 -17 -7 -31 -24 -41 -49 -59 -36 -23 17 26 36 34
43 46 33 8 -6 14 -16 14 -22z m-4637 -35 c-5 -29 -8 -33 -29 -28 -16 4 -24 2
-25 -6 0 -7 -2 -21 -4 -30 -3 -19 27 -34 59 -29 13 2 16 -1 10 -11 -6 -10 -4
-10 9 1 15 12 21 9 18 -11 0 -4 5 -5 13 -2 8 3 17 1 20 -5 10 -15 -38 -24 -82
-15 -35 7 -48 8 -73 5 -15 -1 -7 -56 9 -57 34 -4 36 -5 19 -15 -10 -6 -32 -15
-48 -19 -25 -7 -29 -6 -29 10 0 10 -7 31 -17 47 -10 18 -14 39 -10 54 9 36 55
84 105 109 23 12 45 26 48 32 10 15 12 5 7 -30z m78 18 c6 0 7 -6 3 -12 -6
-10 -5 -10 7 -1 13 11 46 16 80 14 9 -1 20 -8 23 -17 4 -11 2 -15 -8 -11 -10
4 -13 1 -9 -8 3 -8 -2 -18 -11 -21 -9 -3 -16 -12 -16 -19 0 -40 -52 -19 -71
28 -7 16 -19 36 -28 45 -15 15 -14 15 2 9 10 -4 23 -7 28 -7z m4578 -111 c6
-17 8 -36 4 -42 -4 -6 -1 -7 7 -2 10 6 11 0 5 -31 -10 -57 -20 -70 -86 -115
-67 -45 -107 -55 -127 -30 -10 13 -12 13 -10 1 2 -11 -8 -16 -42 -18 -29 -2
-40 1 -32 6 8 5 13 12 13 16 -4 25 0 36 11 30 7 -4 8 -3 4 4 -10 16 29 87 72
131 37 38 80 63 66 38 -5 -9 -4 -9 7 1 7 6 23 12 35 12 12 0 27 7 34 15 18 22
27 19 39 -16z m-4399 -36 c0 -6 -52 6 -59 13 -2 2 4 13 14 24 18 20 18 20 31
-6 8 -15 14 -29 14 -31z m4530 33 c-7 -7 -13 -7 -20 0 -6 6 -3 10 10 10 13 0
16 -4 10 -10z m63 -35 c15 -6 12 -11 -22 -33 -23 -15 -41 -24 -42 -20 0 4 -2
15 -4 25 -2 10 3 17 11 17 9 0 12 5 9 10 -7 11 21 12 48 1z m-4253 -26 c7 -8
10 -22 6 -30 -3 -9 -2 -13 4 -10 6 3 11 -2 11 -12 6 -74 3 -89 -19 -110 -29
-29 -36 -29 -49 0 -12 25 -6 77 8 77 5 0 6 7 3 15 -8 19 4 85 15 85 5 0 14 -7
21 -15z m-818 -63 c-24 -6 -35 13 -21 36 13 21 13 21 25 -6 9 -22 8 -28 -4
-30z m5312 36 c-4 -6 -2 -8 3 -5 17 11 39 -21 25 -35 -8 -8 -12 -9 -12 -1 0 6
-9 13 -19 16 -14 3 -18 11 -14 26 3 11 9 18 14 15 5 -3 6 -10 3 -16z m-4862
-12 c32 -8 80 -27 108 -43 l51 -30 -23 -15 c-44 -29 -89 -39 -100 -23 -5 6 -8
6 -8 -2 0 -8 -14 -13 -36 -13 -19 0 -33 4 -30 9 4 5 -2 7 -12 4 -10 -2 -23 2
-29 9 -15 19 -23 58 -11 58 5 0 6 5 3 10 -9 14 4 50 18 50 7 -1 38 -7 69 -14z
m4729 -14 c29 -34 29 -39 4 -39 -15 0 -27 7 -30 18 -4 11 -12 19 -18 19 -7 0
-6 4 3 10 20 13 23 13 41 -8z m-95 -44 c-2 -18 -5 -35 -5 -38 -1 -3 -7 6 -14
20 -11 21 -11 27 2 37 22 17 23 17 17 -19z m-4809 -20 c1 -18 4 -48 8 -65 6
-29 5 -33 -13 -33 -39 0 -112 -55 -112 -84 0 -2 7 -12 16 -21 15 -15 18 -15
41 0 14 9 27 15 29 12 7 -6 -40 -35 -70 -43 -45 -11 -47 -64 -2 -64 30 0 37
-9 24 -30 -11 -18 -48 -16 -48 2 0 5 -4 7 -9 4 -11 -7 -71 22 -71 35 0 5 16
17 35 26 31 15 41 34 33 61 -6 15 -73 7 -86 -10 -19 -26 -35 -22 -55 11 -20
33 -22 45 -6 36 6 -4 9 0 7 11 -2 11 2 18 9 17 7 -2 12 0 12 5 -3 18 2 32 12
32 5 0 7 -6 3 -12 -5 -7 10 0 32 17 21 16 41 33 42 37 8 19 22 5 20 -19 -3
-24 1 -28 25 -31 17 -2 29 2 33 12 3 9 9 14 13 11 4 -2 6 9 3 24 -2 17 3 34
13 44 9 10 13 17 8 17 -8 0 36 27 48 29 3 1 6 -14 6 -31z m4721 -30 c-10 -7
-10 -11 0 -15 6 -2 12 -12 12 -20 0 -9 -3 -13 -7 -10 -3 4 -12 2 -20 -5 -10
-8 -17 -8 -25 0 -9 9 -9 12 0 12 6 0 9 7 6 15 -8 20 14 45 33 38 12 -5 12 -7
1 -15z m-4307 -63 c10 -57 -2 -159 -21 -196 -8 -15 -15 -16 -42 -8 -18 5 -49
9 -70 9 -20 0 -43 3 -52 6 -14 5 -13 9 4 31 15 20 17 29 9 39 -9 11 -8 18 1
29 7 8 9 15 6 15 -17 0 50 72 88 94 55 33 69 29 77 -19z m4525 30 c30 -12 35
-19 30 -37 -3 -13 -6 -31 -6 -41 0 -10 -4 -15 -10 -12 -5 3 -7 0 -5 -8 9 -22
-19 -65 -61 -94 -111 -76 -128 -87 -143 -88 -9 -1 -23 -5 -31 -8 -8 -3 -76
-17 -151 -31 l-137 -25 -63 25 c-35 14 -86 36 -114 48 -27 13 -78 34 -113 47
-57 22 -79 46 -38 43 9 -1 16 3 16 10 1 15 145 98 179 102 124 16 181 15 237
0 83 -24 104 -36 130 -78 28 -45 100 -84 121 -67 22 19 15 48 -18 68 -28 17
-29 20 -11 25 11 4 22 16 25 27 5 17 10 19 29 13 32 -10 88 -11 82 -2 -5 7 18
12 52 11 7 0 11 7 9 16 -1 9 3 22 9 30 8 11 8 13 -1 8 -6 -4 -13 -3 -15 1 -1
5 -18 12 -36 15 -19 4 -31 3 -27 -3 3 -5 -4 -8 -15 -7 -20 1 -20 2 -4 14 23
17 37 16 80 -2z m-5473 -10 c-3 -9 -8 -14 -10 -11 -3 3 -2 9 2 15 9 16 15 13
8 -4z m4818 -12 c12 -16 12 -17 -2 -6 -9 7 -20 9 -24 5 -5 -4 -5 -1 -1 6 9 16
11 15 27 -5z m-4119 -64 c-30 -27 -70 -41 -57 -19 3 6 -1 7 -9 4 -28 -11 -17
11 15 30 17 10 39 16 50 13 10 -3 19 0 19 6 0 6 3 7 7 3 5 -4 -7 -21 -25 -37z
m2048 16 c14 -19 14 -19 -2 -6 -10 7 -18 18 -18 24 0 6 1 8 3 6 1 -2 9 -13 17
-24z m-2140 -129 c23 -42 34 -122 18 -132 -5 -3 -30 0 -55 7 l-45 12 4 57 c2
34 11 66 23 82 22 30 24 29 55 -26z m2141 27 c13 -16 12 -17 -3 -4 -10 7 -18
15 -18 17 0 8 8 3 21 -13z m2909 -10 c-19 -8 -39 -22 -44 -31 -18 -32 -75 -83
-86 -77 -5 3 -10 1 -10 -4 0 -13 -76 -13 -105 -1 -11 5 -15 9 -9 9 6 1 24 12
39 25 51 44 136 80 154 65 6 -5 8 -6 5 -2 -3 5 11 13 33 20 53 16 65 14 23 -4z
m-4634 -28 c-3 -8 0 -14 7 -12 7 1 13 -12 15 -32 4 -42 -5 -81 -19 -81 -6 0
-9 6 -6 13 2 6 0 21 -6 32 -11 20 -17 74 -10 88 8 14 25 7 19 -8z m79 -33 c-3
-3 -11 0 -18 7 -9 10 -8 11 6 5 10 -3 15 -9 12 -12z m-1135 -7 c7 -9 8 -15 2
-15 -5 0 -12 7 -16 15 -3 8 -4 15 -2 15 2 0 9 -7 16 -15z m4591 -7 c3 -5 10
-9 15 -8 15 2 124 -44 124 -53 0 -4 4 -6 8 -3 12 7 194 -69 185 -78 -4 -4 -1
-5 7 -2 24 9 34 -4 91 -113 l53 -104 -2 -86 c-2 -47 -7 -102 -12 -122 -10 -36
-71 -109 -92 -109 -6 0 -8 -11 -6 -24 3 -15 -1 -27 -13 -34 -9 -6 -20 -24 -24
-40 -8 -39 -65 -92 -104 -98 -35 -6 -40 8 -17 41 7 11 13 23 12 27 -3 15 55
67 88 78 28 9 36 17 36 36 0 46 -90 39 -132 -11 -15 -18 -17 -18 -23 -3 -4 9
-7 45 -8 80 -2 57 -4 63 -24 66 -13 2 -26 -4 -32 -16 -10 -18 -14 -19 -48 -6
-53 19 -70 17 -76 -7 -6 -23 24 -59 49 -59 18 0 64 -44 64 -61 0 -11 -3 -11
-24 -3 -9 3 -16 12 -16 20 0 9 -11 14 -29 14 -27 0 -29 -2 -28 -42 0 -24 -5
-60 -12 -80 l-12 -37 -24 21 c-13 11 -26 32 -30 47 -13 52 -54 70 -75 31 -13
-25 12 -78 64 -135 24 -26 36 -49 37 -69 0 -17 3 -50 5 -73 4 -32 -4 -65 -37
-148 -39 -99 -45 -108 -98 -149 -115 -88 -195 -136 -221 -131 -14 2 -90 6
-170 10 -227 9 -248 12 -300 52 -25 19 -44 40 -42 47 2 6 0 8 -4 3 -11 -10
-45 23 -37 37 3 6 3 8 -2 4 -4 -4 -17 2 -27 15 -11 12 -54 58 -97 102 -100
104 -208 236 -211 260 -1 6 -8 18 -17 27 -8 9 -12 21 -9 27 3 5 2 11 -4 13 -5
1 -11 14 -12 28 -2 14 -7 28 -11 31 -17 13 -6 112 18 160 9 19 29 45 43 58 15
13 20 20 12 16 -8 -5 -6 1 5 12 11 11 24 18 29 15 5 -3 6 -1 3 5 -9 14 40 54
70 58 13 1 27 6 31 10 4 4 -3 4 -15 1 -14 -5 -23 -3 -23 3 0 6 4 11 9 11 4 0
26 13 47 30 22 16 44 33 49 37 30 23 71 47 78 45 4 -1 7 2 7 7 0 10 110 84
110 74 0 -5 5 -1 10 9 11 18 167 111 187 111 7 0 10 4 7 8 -4 8 35 25 49 21 5
-1 6 2 2 8 -6 9 7 14 28 11 4 0 7 4 7 10 0 6 9 9 20 6 11 -3 18 -2 15 3 -3 4
20 11 51 15 31 4 68 9 83 11 14 3 44 7 66 9 22 2 40 4 40 5 0 3 47 11 155 25
30 4 57 9 60 12 7 6 64 -9 71 -19z m-1797 4 c3 -5 -1 -9 -9 -9 -8 0 -12 4 -9
9 3 4 7 8 9 8 2 0 6 -4 9 -8z m-2617 -55 c-4 -12 -37 -19 -37 -8 0 4 3 11 8
15 4 4 8 12 8 17 1 5 2 15 3 22 1 6 7 1 12 -12 5 -13 8 -29 6 -34z m603 3 c7
-12 7 -21 0 -25 -5 -3 -10 0 -10 7 0 8 -9 20 -20 28 -11 8 -20 18 -20 23 0 13
39 -12 50 -33z m-63 -15 c0 -8 -4 -12 -9 -9 -5 3 -6 10 -3 15 9 13 12 11 12
-6z m260 -5 c-1 -11 -7 -20 -14 -20 -11 0 -11 4 -1 20 7 11 14 20 15 20 1 0 1
-9 0 -20z m-537 -20 c4 -6 10 -11 14 -11 26 4 46 -1 41 -9 -3 -5 0 -7 9 -4 10
4 14 0 13 -15 -1 -12 -5 -21 -9 -21 -4 0 -8 -5 -8 -11 0 -6 -9 -22 -19 -36
-11 -13 -17 -31 -14 -39 3 -8 -1 -14 -8 -15 -8 0 -21 -2 -29 -4 -82 -17 -107
-16 -115 2 -16 38 -23 93 -11 93 8 0 8 2 0 8 -18 11 -2 78 15 67 5 -3 13 0 17
6 9 14 94 6 104 -11z m421 -27 c13 -16 12 -17 -3 -4 -10 7 -18 15 -18 17 0 8
8 3 21 -13z m-888 -39 c-28 -14 -31 -18 -18 -31 17 -16 11 -33 -10 -33 -8 0
-19 -9 -25 -19 -13 -25 -13 -88 0 -96 6 -3 10 -12 9 -18 0 -9 -2 -9 -5 0 -3 7
-13 9 -21 6 -13 -5 -15 -2 -10 11 4 9 3 15 -1 13 -4 -3 -13 1 -20 9 -7 8 -9
14 -5 14 4 0 2 4 -5 9 -24 15 -17 69 13 101 15 16 32 27 37 24 5 -3 8 -2 7 3
-3 19 3 23 44 23 l42 0 -32 -16z m257 -15 c0 -21 -15 -25 -26 -7 -4 6 -2 14 4
16 7 2 9 9 6 14 -4 7 -2 8 4 4 7 -4 12 -16 12 -27z m973 22 c18 -2 4 -16 -18
-17 -15 -1 -25 4 -25 11 0 7 8 12 18 10 9 -2 20 -4 25 -4z m-1449 -16 c-4 -8
-10 -12 -15 -9 -14 8 -10 24 6 24 9 0 12 -6 9 -15z m1229 -1 c-7 -3 -10 -11
-7 -19 3 -7 0 -16 -7 -21 -8 -4 -10 -3 -5 4 4 7 3 12 -2 12 -5 0 -9 7 -9 15 0
9 9 15 21 14 12 0 16 -3 9 -5z m-167 -17 c4 -3 16 -1 27 4 17 10 19 9 15 -7
-3 -11 -9 -26 -13 -35 -4 -12 2 -21 25 -32 16 -9 28 -11 25 -6 -15 23 14 6 33
-21 25 -33 49 -39 59 -14 5 14 8 13 23 -6 31 -41 83 -3 58 43 -9 19 -9 20 3
11 27 -21 57 -23 62 -4 4 15 12 17 45 13 34 -5 45 -1 65 19 l25 25 58 -39 c33
-21 58 -44 56 -49 -1 -6 2 -8 7 -4 6 3 74 -37 151 -88 l141 -94 -43 -25 c-24
-14 -104 -58 -179 -97 -150 -79 -135 -75 -397 -86 l-143 -6 -117 37 c-64 20
-119 40 -120 45 -2 5 -7 7 -12 4 -18 -11 -138 67 -133 87 2 4 0 7 -5 6 -14 -5
-62 34 -55 46 3 6 3 8 -2 4 -4 -4 -14 -3 -21 3 -10 9 -10 17 3 45 9 19 21 34
25 34 5 0 6 5 3 10 -3 6 -1 10 5 10 6 0 9 3 6 8 -8 14 21 41 85 78 80 45 88
47 123 17 33 -27 46 -26 63 7 10 21 9 26 -9 39 -20 14 -20 15 -3 21 22 8 52 6
61 -3z m2024 9 c0 -3 -4 -8 -10 -11 -5 -3 -10 -1 -10 4 0 6 5 11 10 11 6 0 10
-2 10 -4z m-1783 -28 c-3 -8 -6 -5 -6 6 -1 11 2 17 5 13 3 -3 4 -12 1 -19z
m-1033 -16 c3 -5 -1 -9 -9 -9 -8 0 -12 4 -9 9 3 4 7 8 9 8 2 0 6 -4 9 -8z
m2852 -58 c1 -9 0 -13 -4 -10 -3 4 -7 14 -8 22 -1 9 0 13 4 10 3 -4 7 -14 8
-22z m-2734 -24 c21 -6 40 -16 44 -22 4 -6 3 -8 -3 -5 -6 4 -16 0 -23 -8 -19
-23 -34 -18 -53 15 -20 33 -18 34 35 20z m2774 -5 c-1 -8 -5 -17 -8 -21 -5 -4
-4 16 1 34 3 9 9 -1 7 -13z m604 5 c0 -5 -5 -10 -11 -10 -5 0 -7 5 -4 10 3 6
8 10 11 10 2 0 4 -4 4 -10z m-687 -25 c4 -8 3 -16 -1 -19 -4 -3 -9 4 -9 15 -2
23 3 25 10 4z m663 -10 c-1 -8 -5 -17 -8 -21 -5 -4 -4 16 1 34 3 9 9 -1 7 -13z
m-3087 -17 c-17 -33 -18 -33 -34 -12 -21 28 -18 34 15 34 29 0 30 -2 19 -22z
m3036 -8 c10 -11 16 -20 13 -20 -3 0 -13 9 -23 20 -10 11 -16 20 -13 20 3 0
13 -9 23 -20z m-3147 -2 c18 -18 15 -35 -8 -41 -11 -3 -20 0 -20 6 0 8 -3 8
-8 2 -4 -6 -13 -10 -19 -9 -7 1 -21 2 -30 3 -12 1 -7 8 17 26 38 28 51 30 68
13z m2597 -6 c-3 -3 -11 0 -18 7 -9 10 -8 11 6 5 10 -3 15 -9 12 -12z m521 -8
c1 -9 0 -13 -4 -10 -3 4 -7 14 -8 22 -1 9 0 13 4 10 3 -4 7 -14 8 -22z m-3598
-16 c3 -14 -3 -18 -23 -18 -31 0 -65 16 -65 31 0 6 18 9 42 7 31 -2 44 -8 46
-20z m3018 -4 c1 -9 0 -13 -4 -10 -3 4 -7 14 -8 22 -1 9 0 13 4 10 3 -4 7 -14
8 -22z m459 -3 c3 -5 2 -12 -3 -15 -5 -3 -9 1 -9 9 0 17 3 19 12 6z m62 -11
c-1 -21 -10 -18 -13 5 -1 8 2 15 6 15 5 0 8 -9 7 -20z m-420 -5 c0 -8 -4 -12
-9 -9 -5 3 -6 10 -3 15 9 13 12 11 12 -6z m83 1 c0 -3 -4 -8 -10 -11 -5 -3
-10 -1 -10 4 0 6 5 11 10 11 6 0 10 -2 10 -4z m-303 -21 c0 -8 -4 -15 -9 -15
-10 0 -11 14 -1 23 9 10 10 9 10 -8z m-2593 -19 c-10 -8 -21 -12 -24 -10 -5 6
21 24 34 24 6 0 1 -6 -10 -14z m3056 -1 c0 -7 -30 -13 -34 -7 -3 4 4 9 15 9
10 1 19 0 19 -2z m174 -7 c-3 -4 -11 -5 -19 -1 -21 7 -19 12 4 10 11 0 18 -5
15 -9z m-3081 -15 c-7 -2 -19 -2 -25 0 -7 3 -2 5 12 5 14 0 19 -2 13 -5z
m2418 -16 c-10 -9 -11 -8 -5 6 3 10 9 15 12 12 3 -3 0 -11 -7 -18z m-590 -10
c-6 -8 -7 -18 -3 -22 4 -5 1 -5 -6 -1 -10 6 -10 11 -1 22 6 8 14 14 16 14 3 0
0 -6 -6 -13z m496 -2 c0 -8 -4 -12 -9 -9 -5 3 -6 10 -3 15 9 13 12 11 12 -6z
m-462 -15 c3 -5 1 -10 -4 -10 -6 0 -11 5 -11 10 0 6 2 10 4 10 3 0 8 -4 11
-10z m321 -2 c3 -4 -1 -5 -10 -4 -8 1 -18 5 -22 8 -3 4 1 5 10 4 8 -1 18 -5
22 -8z m234 6 c0 -8 -19 -13 -24 -6 -3 5 1 9 9 9 8 0 15 -2 15 -3z m450 2 c0
-3 -4 -8 -10 -11 -5 -3 -10 -1 -10 4 0 6 5 11 10 11 6 0 10 -2 10 -4z m-2782
-56 c-2 -21 0 -36 4 -34 3 2 9 0 13 -6 3 -5 -1 -10 -10 -10 -8 0 -18 7 -21 15
-4 8 -10 12 -15 9 -5 -3 -9 0 -9 6 0 7 -10 21 -22 32 -13 11 -17 17 -11 13 7
-3 23 1 35 9 29 21 41 10 36 -34z m125 6 c20 -16 37 -32 37 -36 0 -13 -53 -31
-62 -22 -5 5 -15 30 -23 56 -16 52 -15 52 48 2z m1852 14 c10 -11 16 -20 13
-20 -3 0 -13 9 -23 20 -10 11 -16 20 -13 20 3 0 13 -9 23 -20z m939 11 c3 -5
-2 -15 -12 -22 -15 -12 -16 -12 -5 2 7 9 10 19 6 22 -3 4 -4 7 0 7 3 0 8 -4
11 -9z m-1081 -16 c-3 -9 -8 -14 -10 -11 -3 3 -2 9 2 15 9 16 15 13 8 -4z
m400 -10 c4 -8 3 -16 -1 -19 -4 -3 -9 4 -9 15 -2 23 3 25 10 4z m602 -3 c-3
-3 -11 0 -18 7 -9 10 -8 11 6 5 10 -3 15 -9 12 -12z m-755 -12 c0 -5 -2 -10
-4 -10 -3 0 -8 5 -11 10 -3 6 -1 10 4 10 6 0 11 -4 11 -10z m40 0 c0 -5 -5
-10 -11 -10 -5 0 -7 5 -4 10 3 6 8 10 11 10 2 0 4 -4 4 -10z m75 -20 c3 -5 1
-10 -4 -10 -6 0 -11 5 -11 10 0 6 2 10 4 10 3 0 8 -4 11 -10z m645 -34 c0 -3
-4 -8 -10 -11 -5 -3 -10 -1 -10 4 0 6 5 11 10 11 6 0 10 -2 10 -4z m1929 -36
c11 -22 18 -40 15 -40 -4 0 -1 -6 5 -14 6 -7 13 -35 16 -62 3 -37 -1 -56 -16
-81 -12 -18 -26 -30 -31 -27 -7 4 -8 2 -4 -4 3 -6 -3 -16 -14 -22 -33 -18 -55
-57 -41 -74 7 -8 21 -13 32 -11 11 2 29 -5 39 -15 20 -20 20 -20 -2 -22 -13 0
-29 -1 -35 -1 -7 1 -10 -3 -7 -8 3 -5 0 -9 -5 -9 -6 0 -11 7 -11 16 0 11 -8
15 -27 14 -47 -3 -51 -1 -57 35 -4 19 -11 35 -15 35 -5 0 -12 11 -15 25 -4 14
-13 28 -21 31 -12 5 -9 11 10 26 28 22 71 25 122 9 23 -7 36 -6 49 4 17 12 17
14 1 38 -10 16 -13 28 -7 32 14 9 12 31 -3 47 -8 7 -14 22 -15 33 -1 24 8 85
12 85 2 0 13 -18 25 -40z m-4694 11 c3 -5 2 -12 -3 -15 -5 -3 -9 1 -9 9 0 17
3 19 12 6z m185 0 c0 -3 12 -7 27 -8 15 0 29 -6 31 -12 2 -6 7 -9 12 -6 4 2
38 -6 75 -18 l68 -23 -63 -42 c-34 -23 -72 -43 -84 -43 -101 -7 -104 -6 -131
17 -16 13 -34 24 -42 24 -7 0 -13 6 -14 13 0 8 -2 8 -5 1 -3 -6 -15 -9 -29 -7
-21 5 -22 8 -13 29 8 17 14 21 24 14 8 -8 16 -6 27 4 8 8 17 13 20 10 3 -3 4
2 4 12 -1 11 10 21 33 29 38 13 60 15 60 6z m1854 1 c2 -4 -5 -9 -17 -9 -17
-2 -19 0 -7 7 18 12 18 12 24 2z m722 -38 c1 -9 0 -13 -4 -10 -3 4 -7 14 -8
22 -1 9 0 13 4 10 3 -4 7 -14 8 -22z m-1936 -45 c0 -6 -4 -8 -9 -5 -5 3 -8 -2
-7 -12 0 -9 -4 -16 -10 -15 -7 1 -11 -3 -10 -10 0 -7 -26 -54 -59 -105 -56
-86 -64 -93 -114 -112 -110 -42 -134 -45 -185 -26 -26 10 -59 28 -75 41 -27
24 -50 77 -43 105 4 20 80 72 93 65 5 -4 8 -1 7 7 -2 7 5 12 14 12 10 -1 16 2
13 6 -3 4 7 16 22 25 20 14 55 18 157 22 72 2 131 5 132 6 8 8 74 4 74 -4z
m1300 1 c0 -5 -2 -10 -4 -10 -3 0 -8 5 -11 10 -3 6 -1 10 4 10 6 0 11 -4 11
-10z m33 -15 c-7 -21 -12 -19 -10 4 0 11 5 18 9 15 4 -3 5 -11 1 -19z m603 10
c-1 -8 -5 -17 -8 -21 -5 -4 -4 16 1 34 3 9 9 -1 7 -13z m1832 -2 c7 -11 6 -21
-3 -30 -19 -18 -38 -16 -31 3 4 9 1 23 -5 30 -9 11 -7 14 9 14 12 0 25 -8 30
-17z m-292 -51 c-5 -42 -25 -93 -39 -103 -5 -3 -8 -9 -7 -13 1 -4 -13 -23 -29
-42 l-31 -35 0 47 c0 52 34 131 59 139 9 3 23 14 31 25 20 28 23 25 16 -18z
m-4401 9 c3 -5 2 -12 -3 -15 -5 -3 -9 1 -9 9 0 17 3 19 12 6z m2335 -85 c0 -2
-8 -10 -17 -17 -16 -13 -17 -12 -4 4 13 16 21 21 21 13z m46 -28 c3 -4 -1 -5
-10 -4 -8 1 -18 5 -22 8 -3 4 1 5 10 4 8 -1 18 -5 22 -8z m520 -14 c1 -9 0
-13 -4 -10 -3 4 -7 14 -8 22 -1 9 0 13 4 10 3 -4 7 -14 8 -22z m-181 7 c3 -5
2 -12 -3 -15 -5 -3 -9 1 -9 9 0 17 3 19 12 6z m125 5 c0 -2 -8 -10 -17 -17
-16 -13 -17 -12 -4 4 13 16 21 21 21 13z m-60 -10 c0 -3 -4 -8 -10 -11 -5 -3
-10 -1 -10 4 0 6 5 11 10 11 6 0 10 -2 10 -4z m1762 -41 c16 -4 26 -11 23 -15
-3 -5 -1 -11 5 -15 17 -10 11 -73 -10 -115 -32 -62 -176 -138 -258 -136 -18 1
-32 -2 -32 -5 0 -4 -9 -9 -21 -12 -13 -4 -19 -1 -16 6 2 7 14 40 27 74 12 35
26 60 31 57 5 -3 6 1 3 9 -3 8 11 31 32 53 20 22 43 49 51 61 9 13 19 21 23
18 5 -3 10 0 12 6 4 11 63 28 88 24 8 -1 27 -5 42 -10z m258 5 c0 -5 -2 -10
-4 -10 -3 0 -8 5 -11 10 -3 6 -1 10 4 10 6 0 11 -4 11 -10z m-1926 -8 c3 -5
-1 -9 -9 -9 -8 0 -12 4 -9 9 3 4 7 8 9 8 2 0 6 -4 9 -8z m63 -11 c0 -11 -5
-18 -9 -15 -4 3 -5 11 -1 19 7 21 12 19 10 -4z m-422 0 c3 -5 2 -12 -3 -15 -5
-3 -9 1 -9 9 0 17 3 19 12 6z m320 -39 c-3 -3 -11 0 -18 7 -9 10 -8 11 6 5 10
-3 15 -9 12 -12z m-520 -12 c3 -5 1 -10 -4 -10 -6 0 -11 5 -11 10 0 6 2 10 4
10 3 0 8 -4 11 -10z m140 -28 c-3 -3 -11 0 -18 7 -9 10 -8 11 6 5 10 -3 15 -9
12 -12z m-1710 -39 c-2 -16 -7 -49 -10 -74 -9 -72 -70 -129 -138 -129 -34 0
-87 32 -87 52 0 14 67 98 94 118 15 11 122 56 143 60 1 0 1 -12 -2 -27z m-309
8 c16 13 84 -9 84 -26 0 -6 -18 -30 -41 -54 l-41 -42 -13 25 c-8 14 -21 36
-29 48 -18 25 -21 53 -6 43 6 -3 10 -1 10 6 0 10 3 10 12 1 8 -8 15 -8 24 -1z
m-129 -63 l-2 -63 33 3 c29 2 48 -16 20 -19 -7 -1 -24 -3 -38 -4 -36 -4 -72
15 -64 34 3 9 10 28 14 42 7 23 32 69 37 69 2 0 2 -28 0 -62z m2774 25 c13
-16 12 -17 -3 -4 -10 7 -18 15 -18 17 0 8 8 3 21 -13z m-581 -3 c0 -5 -2 -10
-4 -10 -3 0 -8 5 -11 10 -3 6 -1 10 4 10 6 0 11 -4 11 -10z m-243 -35 c0 -8
-4 -12 -9 -9 -5 3 -6 10 -3 15 9 13 12 11 12 -6z m-2127 -35 c0 -5 -5 -10 -11
-10 -5 0 -7 5 -4 10 3 6 8 10 11 10 2 0 4 -4 4 -10z m4510 -19 c0 -29 -67 -49
-110 -33 -22 8 -20 10 21 30 57 27 89 28 89 3z m-2345 -11 c3 -5 1 -10 -4 -10
-6 0 -11 5 -11 10 0 6 2 10 4 10 3 0 8 -4 11 -10z m60 1 c-9 -8 -36 -10 -30
-2 2 4 11 8 20 8 8 0 13 -3 10 -6z m-18 -36 c0 -8 -4 -12 -9 -9 -5 3 -6 10 -3
15 9 13 12 11 12 -6z m877 -3 c3 -5 -1 -9 -9 -9 -8 0 -12 4 -9 9 3 4 7 8 9 8
2 0 6 -4 9 -8z m1526 2 c0 -8 -19 -13 -24 -6 -3 5 1 9 9 9 8 0 15 -2 15 -3z
m-277 -40 c26 -4 44 -10 42 -14 -3 -5 4 -6 15 -3 12 3 20 0 20 -6 0 -7 5 -9
11 -6 13 9 88 -43 91 -61 0 -8 1 -20 2 -26 1 -7 7 -19 13 -26 20 -21 -36 -93
-117 -154 l-69 -52 -101 -1 c-55 -1 -103 2 -106 7 -3 5 -9 6 -14 3 -14 -8 -61
25 -53 38 3 6 1 7 -5 3 -11 -6 -196 96 -207 114 -3 4 42 39 100 78 103 70 110
73 255 101 60 12 69 12 123 5z m221 -10 c10 -25 1 -27 -19 -4 -15 17 -16 20
-3 20 9 0 19 -7 22 -16z m-2399 -14 c-3 -5 -12 -10 -18 -10 -7 0 -6 4 3 10 19
12 23 12 15 0z m-1775 -19 c0 -6 -4 -13 -10 -16 -5 -3 -10 1 -10 9 0 9 5 16
10 16 6 0 10 -4 10 -9z m4277 -117 c14 -13 14 -17 2 -24 -8 -5 -19 -4 -26 2
-10 8 -12 7 -8 -4 4 -11 -2 -17 -20 -20 -27 -6 -26 -4 14 45 17 21 18 21 38 1z
m-2622 -44 c-3 -5 -12 -10 -18 -10 -7 0 -6 4 3 10 19 12 23 12 15 0z m1400 1
c0 -1 69 -4 154 -6 102 -3 159 -9 169 -17 12 -10 14 -10 8 -1 -5 9 -2 11 8 7
9 -3 16 -10 16 -15 0 -5 3 -8 8 -7 8 3 180 -97 249 -143 54 -37 50 -59 -20
-130 -32 -32 -98 -56 -182 -64 -52 -6 -73 -2 -160 29 -106 37 -130 57 -170
133 -11 21 -23 40 -26 43 -9 7 -79 118 -79 125 0 4 -7 13 -15 21 -22 22 -18
30 13 28 15 -1 27 -2 27 -3z m-1370 -10 c3 -5 2 -12 -3 -15 -5 -3 -9 1 -9 9 0
17 3 19 12 6z m-22 -46 c4 3 5 2 2 -2 -3 -4 -13 -8 -21 -9 -9 -1 -13 0 -10 3
3 4 0 13 -6 22 -10 12 -7 12 8 -2 11 -9 24 -15 27 -12z m2307 -167 c0 -6 3 -9
6 -5 7 7 117 -74 152 -113 36 -39 62 -96 66 -145 3 -25 1 -47 -3 -49 -19 -12
-185 41 -201 64 -3 4 -24 19 -47 33 -53 33 -83 66 -83 89 0 10 -4 18 -9 18 -5
0 -14 14 -20 30 -6 19 -6 28 0 25 27 -17 57 -14 78 9 14 15 19 26 12 31 -21
12 -11 25 19 25 17 0 30 -5 30 -12z m-205 -88 c3 -6 -4 -10 -17 -10 -18 0 -20
2 -8 10 19 12 18 12 25 0z m61 -170 l7 -41 -28 11 c-44 17 -46 20 -29 45 11
17 12 25 3 30 -8 6 -8 9 0 15 7 4 -14 5 -45 2 -45 -4 -55 -2 -49 8 5 8 4 11
-3 7 -5 -4 -18 -4 -28 0 -16 6 -16 7 2 14 10 4 38 5 61 2 35 -4 44 -2 55 16
12 19 13 18 30 -24 10 -25 21 -63 24 -85z m-204 18 c44 -23 100 -78 95 -93
-12 -35 -145 11 -209 73 l-38 37 27 6 c37 9 79 1 125 -23z m283 -28 c3 -5 1
-10 -4 -10 -6 0 -11 5 -11 10 0 6 2 10 4 10 3 0 8 -4 11 -10z m-2475 -26 c0
-8 -19 -13 -24 -6 -3 5 1 9 9 9 8 0 15 -2 15 -3z m-105 -44 c3 -5 1 -10 -4
-10 -6 0 -11 5 -11 10 0 6 2 10 4 10 3 0 8 -4 11 -10z m-15 -36 c0 -8 -19 -13
-24 -6 -3 5 1 9 9 9 8 0 15 -2 15 -3z m-25 -23 c3 -5 2 -12 -3 -15 -5 -3 -9 1
-9 9 0 17 3 19 12 6z m2340 -12 c6 -4 31 -6 57 -4 41 2 49 -1 63 -22 15 -23
15 -26 -2 -39 -10 -7 -20 -14 -23 -14 -3 0 -14 -16 -24 -35 -11 -19 -23 -35
-27 -35 -21 0 -89 127 -89 165 0 5 32 -6 45 -16z m-2335 -29 c0 -5 -5 -10 -11
-10 -5 0 -7 5 -4 10 3 6 8 10 11 10 2 0 4 -4 4 -10z m55 -19 c3 -5 2 -12 -3
-15 -5 -3 -9 1 -9 9 0 17 3 19 12 6z m22 -46 c0 -8 -4 -12 -9 -9 -5 3 -6 10
-3 15 9 13 12 11 12 -6z m-137 -15 c0 -5 -2 -10 -4 -10 -3 0 -8 5 -11 10 -3 6
-1 10 4 10 6 0 11 -4 11 -10z m76 -5 c-1 -8 -5 -17 -8 -21 -5 -4 -4 16 1 34 3
9 9 -1 7 -13z m2484 -54 c-10 -20 -50 -30 -50 -13 0 10 31 55 44 64 15 10 20
-27 6 -51z m-544 -71 c15 -30 27 -60 27 -67 0 -7 4 -13 9 -13 12 0 10 -148 -3
-193 -11 -43 -21 -41 -64 11 -42 50 -69 205 -42 245 8 12 18 37 22 56 8 39 14
34 51 -39z m-2021 30 c3 -5 1 -10 -4 -10 -6 0 -11 5 -11 10 0 6 2 10 4 10 3 0
8 -4 11 -10z m45 4 c0 -8 -19 -13 -24 -6 -3 5 1 9 9 9 8 0 15 -2 15 -3z m2167
-254 c15 -19 57 -149 50 -156 -14 -14 -98 58 -96 82 0 4 -4 10 -11 14 -6 4
-14 36 -16 71 l-5 64 32 -30 c19 -17 39 -37 46 -45z m-2377 36 c0 -2 -8 -10
-17 -17 -16 -13 -17 -12 -4 4 13 16 21 21 21 13z m34 -4 c3 -5 -1 -9 -9 -9 -8
0 -12 4 -9 9 3 4 7 8 9 8 2 0 6 -4 9 -8z m-79 -22 c-3 -5 -12 -10 -18 -10 -7
0 -6 4 3 10 19 12 23 12 15 0z m2600 -33 c11 -3 19 -10 18 -15 -2 -6 3 -9 10
-7 14 6 82 -52 90 -77 6 -16 -1 -18 -48 -18 -32 0 -59 5 -67 14 -8 8 -23 16
-34 18 -10 2 -18 10 -16 17 1 7 -2 10 -7 6 -11 -6 -34 29 -24 39 3 3 1 6 -5 6
-7 0 -12 6 -12 14 0 14 42 15 95 3z m-2625 -26 c0 -6 -4 -12 -8 -15 -5 -3 -9
1 -9 9 0 8 4 15 9 15 4 0 8 -4 8 -9z m75 -20 c-9 -8 -36 -10 -30 -2 2 4 11 8
20 8 8 0 13 -3 10 -6z m49 1 c3 -5 -1 -9 -9 -9 -8 0 -12 4 -9 9 3 4 7 8 9 8 2
0 6 -4 9 -8z m-88 -38 c1 -9 0 -13 -4 -10 -3 4 -7 14 -8 22 -1 9 0 13 4 10 3
-4 7 -14 8 -22z m2160 -10 c-3 -8 -2 -12 3 -9 5 3 13 0 16 -6 5 -7 -1 -9 -16
-7 -28 4 -40 38 -14 38 11 0 15 -5 11 -16z m-2201 -23 c3 -5 2 -12 -3 -15 -5
-3 -9 1 -9 9 0 17 3 19 12 6z m-94 -14 c-6 -8 -7 -18 -3 -22 4 -5 1 -5 -6 -1
-10 6 -10 11 -1 22 6 8 14 14 16 14 3 0 0 -6 -6 -13z m134 4 c3 -5 2 -12 -3
-15 -5 -3 -9 1 -9 9 0 17 3 19 12 6z m2245 -1 c0 -5 -2 -10 -4 -10 -3 0 -8 5
-11 10 -3 6 -1 10 4 10 6 0 11 -4 11 -10z m35 -9 c3 -5 2 -12 -3 -15 -5 -3 -9
1 -9 9 0 17 3 19 12 6z m69 -9 c3 -5 -1 -9 -9 -9 -8 0 -12 4 -9 9 3 4 7 8 9 8
2 0 6 -4 9 -8z m-2449 -11 c3 -5 2 -12 -3 -15 -5 -3 -9 1 -9 9 0 17 3 19 12 6z
m2321 -38 c-10 -10 -19 5 -10 18 6 11 8 11 12 0 2 -7 1 -15 -2 -18z m-2381 7
c3 -5 1 -10 -4 -10 -6 0 -11 5 -11 10 0 6 2 10 4 10 3 0 8 -4 11 -10z m179 2
c3 -5 -1 -9 -9 -9 -8 0 -12 4 -9 9 3 4 7 8 9 8 2 0 6 -4 9 -8z m2424 -36 c2
-10 -6 -27 -17 -37 -20 -19 -28 -12 -21 16 2 6 2 18 2 28 -1 24 32 18 36 -7z
m-2522 -51 c-1 -8 -5 -17 -8 -21 -5 -4 -4 16 1 34 3 9 9 -1 7 -13z m-96 -9 c0
-3 -4 -8 -10 -11 -5 -3 -10 -1 -10 4 0 6 5 11 10 11 6 0 10 -2 10 -4z m-44
-30 c0 -14 -3 -23 -7 -20 -6 3 -6 22 0 42 3 10 7 -2 7 -22z m100 -12 c1 -9 0
-13 -4 -10 -3 4 -7 14 -8 22 -1 9 0 13 4 10 3 -4 7 -14 8 -22z m-259 -249 c0
-8 -4 -12 -9 -9 -5 3 -6 10 -3 15 9 13 12 11 12 -6z m-22 -55 c4 -6 1 -9 -6
-8 -7 2 -13 -2 -14 -9 0 -6 -3 -14 -7 -18 -9 -9 -5 16 5 33 10 15 14 15 22 2z
m-41 -90 c-6 -6 -10 -3 -10 10 0 13 4 16 10 10 7 -7 7 -13 0 -20z m-13 -67
c13 -16 12 -17 -3 -4 -17 13 -22 21 -14 21 2 0 10 -8 17 -17z m-26 -63 c3 -5
1 -10 -4 -10 -6 0 -11 5 -11 10 0 6 2 10 4 10 3 0 8 -4 11 -10z m55 4 c0 -8
-19 -13 -24 -6 -3 5 1 9 9 9 8 0 15 -2 15 -3z m-114 -26 c3 -4 -1 -5 -10 -4
-8 1 -18 5 -22 8 -3 4 1 5 10 4 8 -1 18 -5 22 -8z m-4 -33 c2 3 5 -2 5 -10 0
-19 0 -19 -23 7 -12 14 -13 18 -3 10 9 -6 18 -10 21 -7z m-37 -5 c3 -5 1 -10
-4 -10 -6 0 -11 5 -11 10 0 6 2 10 4 10 3 0 8 -4 11 -10z m101 -5 c-1 -8 -5
-17 -8 -21 -5 -4 -4 16 1 34 3 9 9 -1 7 -13z m-98 -40 c-3 -3 -9 2 -12 12 -6
14 -5 15 5 6 7 -7 10 -15 7 -18z m-34 -37 c-3 -4 -9 -8 -15 -8 -5 0 -9 4 -9 8
0 5 7 9 15 9 8 0 12 -4 9 -9z m36 2 c0 -5 -5 -10 -11 -10 -5 0 -7 5 -4 10 3 6
8 10 11 10 2 0 4 -4 4 -10z m96 -22 c3 -4 -1 -5 -10 -4 -8 1 -18 5 -22 8 -3 4
1 5 10 4 8 -1 18 -5 22 -8z m-91 -18 c3 -6 -1 -7 -9 -4 -18 7 -21 14 -7 14 6
0 13 -4 16 -10z m-208 -225 c0 -8 -4 -12 -9 -9 -5 3 -6 10 -3 15 9 13 12 11
12 -6z m38 -3 c-3 -3 -11 0 -18 7 -9 10 -8 11 6 5 10 -3 15 -9 12 -12z m60
-32 c3 -5 1 -10 -4 -10 -6 0 -11 5 -11 10 0 6 2 10 4 10 3 0 8 -4 11 -10z m20
-39 c-9 -8 -36 -10 -30 -2 2 4 11 8 20 8 8 0 13 -3 10 -6z m-59 -66 c-1 -8 -5
-17 -8 -21 -5 -4 -4 16 1 34 3 9 9 -1 7 -13z m-135 -112 c13 -16 12 -17 -3 -4
-17 13 -22 21 -14 21 2 0 10 -8 17 -17z m-61 -59 c0 -8 -19 -13 -24 -6 -3 5 1
9 9 9 8 0 15 -2 15 -3z m91 -37 c-10 -9 -11 -8 -5 6 3 10 9 15 12 12 3 -3 0
-11 -7 -18z m-146 -7 c-3 -5 -12 -10 -18 -10 -7 0 -6 4 3 10 19 12 23 12 15 0z
m35 -21 c0 -5 -4 -9 -8 -9 -5 0 -9 7 -9 15 0 8 4 12 9 9 4 -3 8 -9 8 -15z m96
-21 c3 -4 -1 -5 -10 -4 -8 1 -18 5 -22 8 -3 4 1 5 10 4 8 -1 18 -5 22 -8z
m-212 -574 c3 -8 2 -12 -4 -9 -6 3 -10 10 -10 16 0 14 7 11 14 -7z m-1250
-922 c3 -5 -1 -9 -9 -9 -8 0 -12 4 -9 9 3 4 7 8 9 8 2 0 6 -4 9 -8z m961 -731
c3 -5 2 -12 -3 -15 -5 -3 -9 1 -9 9 0 17 3 19 12 6z m165 -5 c0 -3 -4 -8 -10
-11 -5 -3 -10 -1 -10 4 0 6 5 11 10 11 6 0 10 -2 10 -4z m-49 -233 c13 -16 12
-17 -3 -4 -10 7 -18 15 -18 17 0 8 8 3 21 -13z"/>
<path d="M4833 9405 c0 -8 4 -12 9 -9 5 3 6 10 3 15 -9 13 -12 11 -12 -6z"/>
<path d="M4056 9207 c3 -10 9 -15 12 -12 3 3 0 11 -7 18 -10 9 -11 8 -5 -6z"/>
<path d="M6796 8913 c-6 -14 -5 -15 5 -6 7 7 10 15 7 18 -3 3 -9 -2 -12 -12z"/>
<path d="M5330 8856 c0 -2 8 -10 18 -17 15 -13 16 -12 3 4 -13 16 -21 21 -21
13z"/>
<path d="M4950 8416 c0 -2 8 -10 18 -17 15 -13 16 -12 3 4 -13 16 -21 21 -21
13z"/>
<path d="M3670 8286 c0 -2 7 -7 16 -10 8 -3 12 -2 9 4 -6 10 -25 14 -25 6z"/>
<path d="M3395 8161 c-3 -5 -2 -12 3 -15 5 -3 9 1 9 9 0 17 -3 19 -12 6z"/>
<path d="M3175 7711 c-3 -5 -2 -12 3 -15 5 -3 9 1 9 9 0 17 -3 19 -12 6z"/>
<path d="M3213 7435 c0 -8 4 -12 9 -9 5 3 6 10 3 15 -9 13 -12 11 -12 -6z"/>
<path d="M2933 7345 c0 -8 4 -12 9 -9 5 3 6 10 3 15 -9 13 -12 11 -12 -6z"/>
<path d="M2873 6995 c0 -8 4 -12 9 -9 5 3 6 10 3 15 -9 13 -12 11 -12 -6z"/>
<path d="M3090 6821 c0 -6 4 -13 10 -16 6 -3 7 1 4 9 -7 18 -14 21 -14 7z"/>
<path d="M3160 5926 c0 -2 8 -10 18 -17 15 -13 16 -12 3 4 -13 16 -21 21 -21
13z"/>
<path d="M6915 5160 c-3 -5 -1 -10 4 -10 6 0 11 5 11 10 0 6 -2 10 -4 10 -3 0
-8 -4 -11 -10z"/>
<path d="M6633 4545 c0 -8 4 -12 9 -9 5 3 6 10 3 15 -9 13 -12 11 -12 -6z"/>
<path d="M4669 9923 c-13 -16 -12 -17 4 -4 9 7 17 15 17 17 0 8 -8 3 -21 -13z"/>
<path d="M2665 8040 c-3 -6 1 -7 9 -4 18 7 21 14 7 14 -6 0 -13 -4 -16 -10z"/>
<path d="M4989 6363 c-13 -16 -12 -17 4 -4 16 13 21 21 13 21 -2 0 -10 -8 -17
-17z"/>
<path d="M7745 6140 c-3 -6 1 -7 9 -4 18 7 21 14 7 14 -6 0 -13 -4 -16 -10z"/>
<path d="M5610 6059 c0 -5 5 -7 10 -4 6 3 10 8 10 11 0 2 -4 4 -10 4 -5 0 -10
-5 -10 -11z"/>
<path d="M5410 5939 c0 -5 5 -7 10 -4 6 3 10 8 10 11 0 2 -4 4 -10 4 -5 0 -10
-5 -10 -11z"/>
<path d="M5073 5475 c0 -8 4 -12 9 -9 5 3 6 10 3 15 -9 13 -12 11 -12 -6z"/>
<path d="M4890 4985 c0 -5 5 -17 10 -25 5 -8 10 -10 10 -5 0 6 -5 17 -10 25
-5 8 -10 11 -10 5z"/>
<path d="M4765 4780 c-3 -6 1 -7 9 -4 18 7 21 14 7 14 -6 0 -13 -4 -16 -10z"/>
<path d="M4526 4362 c-3 -5 1 -9 9 -9 8 0 12 4 9 9 -3 4 -7 8 -9 8 -2 0 -6 -4
-9 -8z"/>
<path d="M4153 3705 c0 -8 4 -12 9 -9 5 3 6 10 3 15 -9 13 -12 11 -12 -6z"/>
<path d="M4086 3622 c-3 -5 1 -9 9 -9 8 0 12 4 9 9 -3 4 -7 8 -9 8 -2 0 -6 -4
-9 -8z"/>
<path d="M4073 3555 c0 -8 4 -12 9 -9 5 3 6 10 3 15 -9 13 -12 11 -12 -6z"/>
<path d="M3520 2720 c-9 -6 -10 -10 -3 -10 6 0 15 5 18 10 8 12 4 12 -15 0z"/>
<path d="M3455 2520 c3 -5 8 -10 11 -10 2 0 4 5 4 10 0 6 -5 10 -11 10 -5 0
-7 -4 -4 -10z"/>
</g>
</svg>
