<?xml version="1.0" encoding="utf-8"?>
<!-- Generator: Adobe Illustrator 24.0.0, SVG Export Plug-In . SVG Version: 6.00 Build 0)  -->
<svg version="1.1"
	 id="svg4922" xmlns:cc="http://creativecommons.org/ns#" xmlns:dc="http://purl.org/dc/elements/1.1/" xmlns:inkscape="http://www.inkscape.org/namespaces/inkscape" xmlns:rdf="http://www.w3.org/1999/02/22-rdf-syntax-ns#" xmlns:sodipodi="http://sodipodi.sourceforge.net/DTD/sodipodi-0.dtd" xmlns:svg="http://www.w3.org/2000/svg"
	 xmlns="http://www.w3.org/2000/svg" xmlns:xlink="http://www.w3.org/1999/xlink" x="0px" y="0px" viewBox="0 0 600.2 175.8"
	 style="enable-background:new 0 0 600.2 175.8;" xml:space="preserve">
<style type="text/css">
	.st0{fill:none;stroke:#000000;stroke-width:0.6584;stroke-linecap:round;stroke-linejoin:round;stroke-miterlimit:10;}
	.st1{fill:none;stroke:#000000;stroke-width:1.7557;stroke-linecap:round;stroke-linejoin:round;stroke-miterlimit:10;}
	
		.st2{fill:none;stroke:#000000;stroke-width:1.7557;stroke-linecap:round;stroke-linejoin:round;stroke-miterlimit:10;stroke-dasharray:5.9255,5.9255;}
	.st3{font-family:'ArialMT';}
	.st4{font-size:19.6778px;}
	.st5{font-size:26.3355px;}
	.st6{fill:#E6E6E6;}
	.st7{fill:#9FD7FF;}
	.st8{fill:none;stroke:#000000;stroke-width:4.8282;stroke-linecap:round;stroke-linejoin:round;stroke-miterlimit:10;}
</style>
<defs>
	
		<inkscape:perspective  id="perspective4930" inkscape:persp3d-origin="400 : 200 : 1" inkscape:vp_x="0 : 300 : 1" inkscape:vp_y="0 : 1000 : 0" inkscape:vp_z="800 : 300 : 1" sodipodi:type="inkscape:persp3d">
		</inkscape:perspective>
	
		<inkscape:perspective  id="perspective4875" inkscape:persp3d-origin="0.5 : 0.33333333 : 1" inkscape:vp_x="0 : 0.5 : 1" inkscape:vp_y="0 : 1000 : 0" inkscape:vp_z="1 : 0.5 : 1" sodipodi:type="inkscape:persp3d">
		</inkscape:perspective>
</defs>
<sodipodi:namedview  bordercolor="#666666" borderopacity="1.0" id="base" inkscape:current-layer="layer1" inkscape:cx="377.58973" inkscape:cy="-104.27036" inkscape:document-units="px" inkscape:pageopacity="0.0" inkscape:pageshadow="2" inkscape:window-height="695" inkscape:window-maximized="0" inkscape:window-width="964" inkscape:window-x="1629" inkscape:window-y="45" inkscape:zoom="0.6" pagecolor="#ffffff" showgrid="false">
	</sodipodi:namedview>
<g id="layer1" transform="translate(-22.410269,-19.936444)" inkscape:groupmode="layer" inkscape:label="Layer 1">
	<path id="path48" class="st0" d="M23.3,183.1h282.8"/>
	<path id="path50" d="M298.8,186.1l7.3-3l-7.3-3"/>
	<path id="path52" class="st0" d="M298.8,186.1l7.3-3l-7.3-3V186.1z"/>
	<path id="path54" class="st1" d="M23.3,182.4c0.1,0,3.3,0,3.5,0c0.1,0,3.3,0,3.5,0c0.1,0,3.3,0,3.5,0c0.1,0,3.3,0,3.5,0
		c0.1,0,3.3,0,3.5,0c0.1,0,3.3,0,3.5,0c0.1,0,3.3,0,3.5,0c0.1,0,3.3,0,3.5,0c0.1,0,3.3,0,3.5,0c0.1,0,3.3-0.1,3.5-0.1
		c0.1,0,3.3-0.2,3.5-0.2c0.1,0,3.3-0.4,3.5-0.4c0.1,0,3.3-0.8,3.5-0.9c0.1,0,3.4-1.6,3.5-1.6c0.1-0.1,3.4-2.7,3.5-2.8
		c0.1-0.1,3.4-4.2,3.5-4.3c0.1-0.2,3.4-6,3.5-6.2c0.1-0.3,3.4-8,3.5-8.2c0.1-0.3,3.4-9.8,3.5-10.1c0.1-0.4,3.3-11.1,3.5-11.5
		c0.1-0.4,3.3-11.8,3.5-12.2c0.1-0.4,3.3-11.5,3.5-11.9c0.1-0.4,3.3-10.5,3.5-10.8c0.1-0.3,3.3-8.7,3.5-9c0.1-0.2,3.3-6.4,3.5-6.6
		c0.1-0.2,3.3-3.9,3.5-4c0.1-0.1,3.3-1.5,3.5-1.5c0.1,0,3.4,0.7,3.5,0.8c0.1,0.1,3.4,2.6,3.5,2.7c0.1,0.1,3.4,4,3.5,4.1
		c0.1,0.2,3.3,5,3.5,5.1c0.1,0.2,3.4,5.5,3.5,5.7c0.1,0.2,3.3,5.7,3.5,5.9c0.1,0.2,3.3,5.7,3.5,5.9c0.1,0.2,3.3,5.4,3.5,5.6
		c0.1,0.2,3.3,5,3.5,5.2c0.1,0.2,3.3,4.6,3.5,4.8c0.1,0.1,3.3,4.1,3.5,4.3c0.1,0.1,3.3,3.6,3.5,3.7c0.1,0.1,3.3,3.1,3.5,3.2
		c0.1,0.1,3.3,2.7,3.5,2.8c0.1,0.1,3.3,2.2,3.5,2.3c0.1,0.1,3.3,1.8,3.5,1.9c0.1,0.1,3.3,1.5,3.5,1.5c0.1,0,3.3,1.1,3.5,1.2
		c0.1,0,3.3,0.8,3.5,0.8c0.1,0,3.3,0.5,3.5,0.5c0.1,0,3.3,0.3,3.5,0.3c0.1,0,3.3,0.1,3.5,0c0.1,0,3.3-0.2,3.5-0.2
		c0.1,0,3.3-0.3,3.5-0.3c0.1,0,3.3-0.5,3.5-0.5c0.1,0,3.3-0.5,3.5-0.6c0.1,0,3.3-0.6,3.5-0.6c0.1,0,3.3-0.6,3.5-0.6
		c0.1,0,3.3-0.5,3.5-0.5c0.1,0,3.3-0.3,3.5-0.3c0.1,0,3.3,0,3.5,0c0.1,0,3.3,0.4,3.5,0.4c0.1,0,3.3,0.8,3.5,0.9
		c0.1,0,3.3,1.4,3.5,1.4c0.1,0.1,3.4,1.9,3.5,2c0.1,0.1,3.3,2.5,3.5,2.6c0.1,0.1,3.4,3,3.5,3.1c0.1,0.1,3.3,3.4,3.5,3.5
		c0.1,0.1,3.3,3.6,3.5,3.8c0.1,0.1,3.3,3.7,3.5,3.8c0.1,0.1,3.3,3.5,3.5,3.6c0.1,0.1,3.3,3.1,3.5,3.2c0.1,0.1,3.3,2.6,3.5,2.7
		c0.1,0.1,3.3,2.1,3.5,2.2c0.1,0.1,3.3,1.5,3.5,1.6c0.1,0.1,3.3,1.1,3.5,1.1c0.1,0,3.3,0.7,3.5,0.7c0.1,0,3.3,0.4,3.5,0.4
		c0.1,0,3.3,0.2,3.5,0.2c0.1,0,3.3,0.1,3.5,0.1c0.1,0,3.3,0,3.5,0c0.1,0,3.3,0,3.5,0"/>
	<path id="path56" class="st2" d="M23.3,155.9l3.5-2.6c1.2-0.9,2.3-1.8,3.5-2.8l3.5-2.9c1.2-1,2.3-2,3.5-3.1l3.5-3.3
		c1.2-1.1,2.3-2.3,3.5-3.5c1.1-1.2,2.3-2.4,3.5-3.6c1.2-1.2,2.3-2.5,3.5-3.8c1.1-1.3,2.3-2.6,3.5-4c1.2-1.3,2.3-2.7,3.5-4.1
		c1.1-1.4,2.3-2.8,3.5-4.2c1.2-1.4,2.3-2.9,3.5-4.4c1.1-1.5,2.3-3,3.5-4.5c1.2-1.5,2.3-3,3.5-4.6c1.1-1.6,2.3-3.1,3.5-4.6
		c1.2-1.5,2.3-3.1,3.5-4.7c1.1-1.6,2.3-3.2,3.5-4.7c1.2-1.6,2.3-3.1,3.5-4.7c1.1-1.6,2.3-3.2,3.5-4.7c1.2-1.5,2.3-3.1,3.5-4.7
		c1.1-1.6,2.3-3.1,3.5-4.6c1.2-1.5,2.3-3,3.5-4.5c1.1-1.5,2.3-2.9,3.5-4.4c1.2-1.4,2.3-2.8,3.5-4.2c1.1-1.4,2.3-2.7,3.5-4
		c1.2-1.3,2.3-2.6,3.5-3.8c1.1-1.2,2.3-2.4,3.5-3.6c1.1-1.1,2.3-2.2,3.5-3.3c1.1-1.1,2.3-2.1,3.5-3.1c1.1-0.9,2.3-1.9,3.5-2.8
		c1.1-0.9,2.3-1.7,3.5-2.4c1.1-0.7,2.3-1.4,3.5-2.1c1.1-0.6,2.3-1.2,3.5-1.7c1.1-0.5,2.3-0.9,3.5-1.4c1.1-0.4,2.3-0.7,3.5-1
		c1.1-0.2,2.3-0.4,3.5-0.6c1.1-0.2,2.3-0.2,3.5-0.2c1.2,0,2.3,0.1,3.5,0.2c1.2,0.1,2.3,0.3,3.5,0.6c1.2,0.3,2.3,0.6,3.5,1
		c1.2,0.4,2.3,0.8,3.5,1.3c1.2,0.5,2.3,1.1,3.5,1.7c1.2,0.6,2.3,1.3,3.5,2.1c1.2,0.8,2.3,1.6,3.5,2.4c1.2,0.9,2.4,1.8,3.5,2.7
		c1.2,1,2.3,2,3.5,3c1.2,1.1,2.4,2.2,3.5,3.3c1.1,1.2,2.3,2.4,3.5,3.6c1.2,1.2,2.4,2.5,3.5,3.8c1.1,1.3,2.3,2.7,3.5,4
		c1.2,1.4,2.4,2.8,3.5,4.2c1.1,1.5,2.3,2.9,3.5,4.4c1.2,1.5,2.3,3,3.5,4.5c1.1,1.5,2.3,3.1,3.5,4.6c1.2,1.5,2.3,3.1,3.5,4.7
		c1.1,1.6,2.3,3.2,3.5,4.7c1.2,1.5,2.3,3.1,3.5,4.7c1.1,1.6,2.3,3.2,3.5,4.7c1.2,1.5,2.3,3.1,3.5,4.7c1.1,1.6,2.3,3.1,3.5,4.6
		c1.2,1.5,2.3,3,3.5,4.6c1.1,1.5,2.3,3,3.5,4.5c1.2,1.4,2.3,2.9,3.5,4.4c1.1,1.4,2.3,2.9,3.5,4.2c1.2,1.4,2.3,2.7,3.5,4.1
		c1.1,1.4,2.3,2.7,3.5,4c1.2,1.3,2.3,2.5,3.5,3.8c1.1,1.3,2.3,2.5,3.5,3.7c1.2,1.2,2.3,2.3,3.5,3.5c1.1,1.1,2.3,2.2,3.5,3.3
		c1.2,1,2.3,2.1,3.5,3.1c1.1,1,2.3,2,3.5,3l3.5,2.8c1.1,0.9,2.3,1.8,3.5,2.6l3.5,2.4c1.1,0.8,2.3,1.6,3.5,2.3l3.5,2.1
		c1.1,0.7,2.3,1.3,3.5,2l3.5,1.8"/>
	<g id="g58" transform="matrix(2.1946258,0,0,-2.1946258,-187.40935,1628.1202)">
		<text transform="matrix(0.4557 0 0 -0.4557 213.489 652.6813)" class="st3 st4">x</text>
		<text transform="matrix(0.4557 0 0 -0.4557 217.9722 652.6813)" class="st3 st5"> </text>
		<text transform="matrix(0.4557 0 0 -0.4557 151.1003 695.143)" class="st3 st4">p</text>
		<text transform="matrix(0.4557 0 0 -0.4557 156.3008 695.143)" class="st3 st4">(</text>
		<text transform="matrix(0.4557 0 0 -0.4557 159.7876 695.143)" class="st3 st4">x</text>
		<text transform="matrix(0.4557 0 0 -0.4557 164.9125 695.143)" class="st3 st4">)</text>
		<text transform="matrix(0.4557 0 0 -0.4557 179.8869 719.3187)" class="st3 st4">c</text>
		<text transform="matrix(0.4557 0 0 -0.4557 184.6806 719.3187)" class="st3 st4">q</text>
		<text transform="matrix(0.4557 0 0 -0.4557 191.7883 719.3187)" class="st3 st4">(</text>
		<text transform="matrix(0.4557 0 0 -0.4557 195.2752 719.3187)" class="st3 st4">x</text>
		<text transform="matrix(0.4557 0 0 -0.4557 200.3995 719.3187)" class="st3 st4">)</text>
	</g>
	<path id="path106" class="st6" d="M339.5,153.9l3.5-2.6c1.2-0.9,2.3-1.8,3.5-2.8l3.5-2.9c1.2-1,2.3-2,3.5-3.1l3.5-3.3
		c1.2-1.1,2.3-2.3,3.5-3.5c1.1-1.2,2.3-2.4,3.5-3.6c1.2-1.2,2.3-2.5,3.5-3.8c1.1-1.3,2.3-2.6,3.5-4c1.2-1.3,2.3-2.7,3.5-4.1
		c1.1-1.4,2.3-2.8,3.5-4.2c1.2-1.4,2.3-2.9,3.5-4.4c1.1-1.5,2.3-3,3.5-4.5c1.2-1.5,2.3-3,3.5-4.6c1.1-1.6,2.3-3.1,3.5-4.6
		c1.2-1.5,2.3-3.1,3.5-4.7c1.1-1.6,2.3-3.2,3.5-4.7c1.2-1.6,2.3-3.1,3.5-4.7c1.1-1.6,2.3-3.2,3.5-4.7c1.2-1.5,2.3-3.1,3.5-4.7
		c1.1-1.6,2.3-3.1,3.5-4.6c1.2-1.5,2.3-3,3.5-4.5c1.1-1.5,2.3-2.9,3.5-4.4c1.2-1.4,2.3-2.8,3.5-4.2c1.1-1.4,2.3-2.7,3.5-4
		c1.2-1.3,2.3-2.6,3.5-3.8c1.1-1.2,2.3-2.4,3.5-3.6c1.1-1.1,2.3-2.2,3.5-3.3c1.1-1.1,2.3-2.1,3.5-3.1c1.1-0.9,2.3-1.9,3.5-2.8
		c1.1-0.9,2.3-1.7,3.5-2.4c1.1-0.7,2.3-1.4,3.5-2.1c1.1-0.6,2.3-1.2,3.5-1.7c1.1-0.5,2.3-0.9,3.5-1.4c1.1-0.4,2.3-0.7,3.5-1
		c1.1-0.2,2.3-0.4,3.5-0.6c1.1-0.2,2.3-0.2,3.5-0.2c1.2,0,2.3,0.1,3.5,0.2c1.2,0.1,2.3,0.3,3.5,0.6c1.2,0.3,2.3,0.6,3.5,1
		c1.2,0.4,2.3,0.8,3.5,1.3c1.2,0.5,2.3,1.1,3.5,1.7c1.2,0.6,2.3,1.3,3.5,2.1c1.2,0.8,2.3,1.6,3.5,2.4c1.2,0.9,2.4,1.8,3.5,2.7
		c1.2,1,2.3,2,3.5,3c1.2,1.1,2.4,2.2,3.5,3.3c1.1,1.2,2.3,2.4,3.5,3.6c1.2,1.2,2.4,2.5,3.5,3.8c1.1,1.3,2.3,2.7,3.5,4
		c1.2,1.4,2.4,2.8,3.5,4.2c1.1,1.5,2.3,2.9,3.5,4.4c1.2,1.5,2.3,3,3.5,4.5c1.1,1.5,2.3,3.1,3.5,4.6c1.2,1.5,2.3,3.1,3.5,4.7
		c1.1,1.6,2.3,3.2,3.5,4.7c1.2,1.5,2.3,3.1,3.5,4.7c1.1,1.6,2.3,3.2,3.5,4.7c1.2,1.5,2.3,3.1,3.5,4.7c1.1,1.6,2.3,3.1,3.5,4.6
		c1.2,1.5,2.3,3,3.5,4.6c1.1,1.5,2.3,3,3.5,4.5c1.2,1.4,2.3,2.9,3.5,4.4c1.1,1.4,2.3,2.9,3.5,4.2c1.2,1.4,2.3,2.7,3.5,4.1
		c1.1,1.4,2.3,2.7,3.5,4c1.2,1.3,2.3,2.5,3.5,3.8c1.1,1.3,2.3,2.5,3.5,3.7c1.2,1.2,2.3,2.3,3.5,3.5c1.1,1.1,2.3,2.2,3.5,3.3
		c1.2,1,2.3,2.1,3.5,3.1c1.1,1,2.3,2,3.5,3l3.5,2.8c1.1,0.9,2.3,1.8,3.5,2.6l3.5,2.4c1.1,0.8,2.3,1.6,3.5,2.3l3.5,2.1
		c1.1,0.7,2.3,1.3,3.5,2l3.5,1.8l0,16.7H339.5"/>
	<path id="path108" class="st7" d="M339.5,180.5c0.1,0,3.3,0,3.5,0c0.1,0,3.3,0,3.5,0c0.1,0,3.3,0,3.5,0c0.1,0,3.3,0,3.5,0
		c0.1,0,3.3,0,3.5,0c0.1,0,3.3,0,3.5,0c0.1,0,3.3,0,3.5,0c0.1,0,3.3,0,3.5,0c0.1,0,3.3,0,3.5,0c0.1,0,3.3-0.1,3.5-0.1
		c0.1,0,3.3-0.2,3.5-0.2c0.1,0,3.3-0.4,3.5-0.4c0.1,0,3.3-0.8,3.5-0.9c0.1,0,3.4-1.6,3.5-1.6c0.1-0.1,3.4-2.7,3.5-2.8
		c0.1-0.1,3.4-4.2,3.5-4.3c0.1-0.2,3.4-6,3.5-6.2c0.1-0.3,3.4-8,3.5-8.2c0.1-0.3,3.4-9.8,3.5-10.1c0.1-0.4,3.3-11.1,3.5-11.5
		c0.1-0.4,3.3-11.8,3.5-12.2c0.1-0.4,3.3-11.5,3.5-11.9c0.1-0.4,3.3-10.5,3.5-10.8c0.1-0.3,3.3-8.7,3.5-9c0.1-0.2,3.3-6.4,3.5-6.6
		c0.1-0.2,3.3-3.9,3.5-4c0.1-0.1,3.3-1.5,3.5-1.5c0.1,0,3.4,0.7,3.5,0.8c0.1,0.1,3.4,2.6,3.5,2.7c0.1,0.1,3.4,4,3.5,4.1
		c0.1,0.2,3.3,5,3.5,5.1c0.1,0.2,3.4,5.5,3.5,5.7c0.1,0.2,3.3,5.7,3.5,5.9c0.1,0.2,3.3,5.7,3.5,5.9c0.1,0.2,3.3,5.4,3.5,5.6
		c0.1,0.2,3.3,5,3.5,5.2c0.1,0.2,3.3,4.6,3.5,4.8c0.1,0.1,3.3,4.1,3.5,4.3c0.1,0.1,3.3,3.6,3.5,3.7c0.1,0.1,3.3,3.1,3.5,3.2
		c0.1,0.1,3.3,2.7,3.5,2.8c0.1,0.1,3.3,2.2,3.5,2.3c0.1,0.1,3.3,1.8,3.5,1.9c0.1,0.1,3.3,1.5,3.5,1.5c0.1,0,3.3,1.1,3.5,1.2
		c0.1,0,3.3,0.8,3.5,0.8c0.1,0,3.3,0.5,3.5,0.5c0.1,0,3.3,0.3,3.5,0.3c0.1,0,3.3,0.1,3.5,0c0.1,0,3.3-0.2,3.5-0.2
		c0.1,0,3.3-0.3,3.5-0.3c0.1,0,3.3-0.5,3.5-0.5c0.1,0,3.3-0.5,3.5-0.6c0.1,0,3.3-0.6,3.5-0.6c0.1,0,3.3-0.6,3.5-0.6
		c0.1,0,3.3-0.5,3.5-0.5c0.1,0,3.3-0.3,3.5-0.3c0.1,0,3.3,0,3.5,0c0.1,0,3.3,0.4,3.5,0.4c0.1,0,3.3,0.8,3.5,0.9
		c0.1,0,3.3,1.4,3.5,1.4c0.1,0.1,3.4,1.9,3.5,2c0.1,0.1,3.3,2.5,3.5,2.6c0.1,0.1,3.4,3,3.5,3.1c0.1,0.1,3.3,3.4,3.5,3.5
		c0.1,0.1,3.3,3.6,3.5,3.8c0.1,0.1,3.3,3.7,3.5,3.8c0.1,0.1,3.3,3.5,3.5,3.6c0.1,0.1,3.3,3.1,3.5,3.2c0.1,0.1,3.3,2.6,3.5,2.7
		c0.1,0.1,3.3,2.1,3.5,2.2c0.1,0.1,3.3,1.5,3.5,1.6c0.1,0.1,3.3,1.1,3.5,1.1c0.1,0,3.3,0.7,3.5,0.7c0.1,0,3.3,0.4,3.5,0.4
		c0.1,0,3.3,0.2,3.5,0.2c0.1,0,3.3,0.1,3.5,0.1c0.1,0,3.3,0,3.5,0c0.1,0,3.3,0,3.5,0l0,0.7H339.5"/>
	<path id="path110" class="st0" d="M339.5,181.1h282.8"/>
	<path id="path112" d="M615,184.2l7.3-3l-7.3-3"/>
	<path id="path114" class="st0" d="M615,184.2l7.3-3l-7.3-3V184.2z"/>
	<path id="path116" class="st0" d="M512.4,181.1V56.6"/>
	<path id="path118" class="st0" d="M503.9,181.1V93.9"/>
	<path id="path120" d="M506.9,101.2l-3-7.3l-3,7.3"/>
	<path id="path122" class="st0" d="M506.9,101.2l-3-7.3l-3,7.3H506.9z"/>
	<path id="path124" d="M500.8,173.8l3,7.3l3-7.3"/>
	<path id="path126" class="st0" d="M500.8,173.8l3,7.3l3-7.3H500.8z"/>
	<path id="path128" class="st8" d="M512.4,93.9L512.4,93.9"/>
	<path id="path130" class="st1" d="M339.5,180.5c0.1,0,3.3,0,3.5,0c0.1,0,3.3,0,3.5,0c0.1,0,3.3,0,3.5,0c0.1,0,3.3,0,3.5,0
		c0.1,0,3.3,0,3.5,0c0.1,0,3.3,0,3.5,0c0.1,0,3.3,0,3.5,0c0.1,0,3.3,0,3.5,0c0.1,0,3.3,0,3.5,0c0.1,0,3.3-0.1,3.5-0.1
		c0.1,0,3.3-0.2,3.5-0.2c0.1,0,3.3-0.4,3.5-0.4c0.1,0,3.3-0.8,3.5-0.9c0.1,0,3.4-1.6,3.5-1.6c0.1-0.1,3.4-2.7,3.5-2.8
		c0.1-0.1,3.4-4.2,3.5-4.3c0.1-0.2,3.4-6,3.5-6.2c0.1-0.3,3.4-8,3.5-8.2c0.1-0.3,3.4-9.8,3.5-10.1c0.1-0.4,3.3-11.1,3.5-11.5
		c0.1-0.4,3.3-11.8,3.5-12.2c0.1-0.4,3.3-11.5,3.5-11.9c0.1-0.4,3.3-10.5,3.5-10.8c0.1-0.3,3.3-8.7,3.5-9c0.1-0.2,3.3-6.4,3.5-6.6
		c0.1-0.2,3.3-3.9,3.5-4c0.1-0.1,3.3-1.5,3.5-1.5c0.1,0,3.4,0.7,3.5,0.8c0.1,0.1,3.4,2.6,3.5,2.7c0.1,0.1,3.4,4,3.5,4.1
		c0.1,0.2,3.3,5,3.5,5.1c0.1,0.2,3.4,5.5,3.5,5.7c0.1,0.2,3.3,5.7,3.5,5.9c0.1,0.2,3.3,5.7,3.5,5.9c0.1,0.2,3.3,5.4,3.5,5.6
		c0.1,0.2,3.3,5,3.5,5.2c0.1,0.2,3.3,4.6,3.5,4.8c0.1,0.1,3.3,4.1,3.5,4.3c0.1,0.1,3.3,3.6,3.5,3.7c0.1,0.1,3.3,3.1,3.5,3.2
		c0.1,0.1,3.3,2.7,3.5,2.8c0.1,0.1,3.3,2.2,3.5,2.3c0.1,0.1,3.3,1.8,3.5,1.9c0.1,0.1,3.3,1.5,3.5,1.5c0.1,0,3.3,1.1,3.5,1.2
		c0.1,0,3.3,0.8,3.5,0.8c0.1,0,3.3,0.5,3.5,0.5c0.1,0,3.3,0.3,3.5,0.3c0.1,0,3.3,0.1,3.5,0c0.1,0,3.3-0.2,3.5-0.2
		c0.1,0,3.3-0.3,3.5-0.3c0.1,0,3.3-0.5,3.5-0.5c0.1,0,3.3-0.5,3.5-0.6c0.1,0,3.3-0.6,3.5-0.6c0.1,0,3.3-0.6,3.5-0.6
		c0.1,0,3.3-0.5,3.5-0.5c0.1,0,3.3-0.3,3.5-0.3c0.1,0,3.3,0,3.5,0c0.1,0,3.3,0.4,3.5,0.4c0.1,0,3.3,0.8,3.5,0.9
		c0.1,0,3.3,1.4,3.5,1.4c0.1,0.1,3.4,1.9,3.5,2c0.1,0.1,3.3,2.5,3.5,2.6c0.1,0.1,3.4,3,3.5,3.1c0.1,0.1,3.3,3.4,3.5,3.5
		c0.1,0.1,3.3,3.6,3.5,3.8c0.1,0.1,3.3,3.7,3.5,3.8c0.1,0.1,3.3,3.5,3.5,3.6c0.1,0.1,3.3,3.1,3.5,3.2c0.1,0.1,3.3,2.6,3.5,2.7
		c0.1,0.1,3.3,2.1,3.5,2.2c0.1,0.1,3.3,1.5,3.5,1.6c0.1,0.1,3.3,1.1,3.5,1.1c0.1,0,3.3,0.7,3.5,0.7c0.1,0,3.3,0.4,3.5,0.4
		c0.1,0,3.3,0.2,3.5,0.2c0.1,0,3.3,0.1,3.5,0.1c0.1,0,3.3,0,3.5,0c0.1,0,3.3,0,3.5,0"/>
	<path id="path132" class="st2" d="M339.5,153.9l3.5-2.6c1.2-0.9,2.3-1.8,3.5-2.8l3.5-2.9c1.2-1,2.3-2,3.5-3.1l3.5-3.3
		c1.2-1.1,2.3-2.3,3.5-3.5c1.1-1.2,2.3-2.4,3.5-3.6c1.2-1.2,2.3-2.5,3.5-3.8c1.1-1.3,2.3-2.6,3.5-4c1.2-1.3,2.3-2.7,3.5-4.1
		c1.1-1.4,2.3-2.8,3.5-4.2c1.2-1.4,2.3-2.9,3.5-4.4c1.1-1.5,2.3-3,3.5-4.5c1.2-1.5,2.3-3,3.5-4.6c1.1-1.6,2.3-3.1,3.5-4.6
		c1.2-1.5,2.3-3.1,3.5-4.7c1.1-1.6,2.3-3.2,3.5-4.7c1.2-1.6,2.3-3.1,3.5-4.7c1.1-1.6,2.3-3.2,3.5-4.7c1.2-1.5,2.3-3.1,3.5-4.7
		c1.1-1.6,2.3-3.1,3.5-4.6c1.2-1.5,2.3-3,3.5-4.5c1.1-1.5,2.3-2.9,3.5-4.4c1.2-1.4,2.3-2.8,3.5-4.2c1.1-1.4,2.3-2.7,3.5-4
		c1.2-1.3,2.3-2.6,3.5-3.8c1.1-1.2,2.3-2.4,3.5-3.6c1.1-1.1,2.3-2.2,3.5-3.3c1.1-1.1,2.3-2.1,3.5-3.1c1.1-0.9,2.3-1.9,3.5-2.8
		c1.1-0.9,2.3-1.7,3.5-2.4c1.1-0.7,2.3-1.4,3.5-2.1c1.1-0.6,2.3-1.2,3.5-1.7c1.1-0.5,2.3-0.9,3.5-1.4c1.1-0.4,2.3-0.7,3.5-1
		c1.1-0.2,2.3-0.4,3.5-0.6c1.1-0.2,2.3-0.2,3.5-0.2c1.2,0,2.3,0.1,3.5,0.2c1.2,0.1,2.3,0.3,3.5,0.6c1.2,0.3,2.3,0.6,3.5,1
		c1.2,0.4,2.3,0.8,3.5,1.3c1.2,0.5,2.3,1.1,3.5,1.7c1.2,0.6,2.3,1.3,3.5,2.1c1.2,0.8,2.3,1.6,3.5,2.4c1.2,0.9,2.4,1.8,3.5,2.7
		c1.2,1,2.3,2,3.5,3c1.2,1.1,2.4,2.2,3.5,3.3c1.1,1.2,2.3,2.4,3.5,3.6c1.2,1.2,2.4,2.5,3.5,3.8c1.1,1.3,2.3,2.7,3.5,4
		c1.2,1.4,2.4,2.8,3.5,4.2c1.1,1.5,2.3,2.9,3.5,4.4c1.2,1.5,2.3,3,3.5,4.5c1.1,1.5,2.3,3.1,3.5,4.6c1.2,1.5,2.3,3.1,3.5,4.7
		c1.1,1.6,2.3,3.2,3.5,4.7c1.2,1.5,2.3,3.1,3.5,4.7c1.1,1.6,2.3,3.2,3.5,4.7c1.2,1.5,2.3,3.1,3.5,4.7c1.1,1.6,2.3,3.1,3.5,4.6
		c1.2,1.5,2.3,3,3.5,4.6c1.1,1.5,2.3,3,3.5,4.5c1.2,1.4,2.3,2.9,3.5,4.4c1.1,1.4,2.3,2.9,3.5,4.2c1.2,1.4,2.3,2.7,3.5,4.1
		c1.1,1.4,2.3,2.7,3.5,4c1.2,1.3,2.3,2.5,3.5,3.8c1.1,1.3,2.3,2.5,3.5,3.7c1.2,1.2,2.3,2.3,3.5,3.5c1.1,1.1,2.3,2.2,3.5,3.3
		c1.2,1,2.3,2.1,3.5,3.1c1.1,1,2.3,2,3.5,3l3.5,2.8c1.1,0.9,2.3,1.8,3.5,2.6l3.5,2.4c1.1,0.8,2.3,1.6,3.5,2.3l3.5,2.1
		c1.1,0.7,2.3,1.3,3.5,2l3.5,1.8"/>
</g>
</svg>
