<?xml version="1.0" encoding="UTF-8" standalone="no"?>
<!-- Created with Inkscape (http://www.inkscape.org/) -->

<svg
   xmlns:dc="http://purl.org/dc/elements/1.1/"
   xmlns:cc="http://creativecommons.org/ns#"
   xmlns:rdf="http://www.w3.org/1999/02/22-rdf-syntax-ns#"
   xmlns:svg="http://www.w3.org/2000/svg"
   xmlns="http://www.w3.org/2000/svg"
   xmlns:sodipodi="http://sodipodi.sourceforge.net/DTD/sodipodi-0.dtd"
   xmlns:inkscape="http://www.inkscape.org/namespaces/inkscape"
   width="600.17944"
   height="175.7932"
   id="svg4922"
   version="1.1"
   inkscape:version="0.47 r22583"
   sodipodi:docname="New document 3">
  <defs
     id="defs4924">
    <inkscape:perspective
       sodipodi:type="inkscape:persp3d"
       inkscape:vp_x="0 : 300 : 1"
       inkscape:vp_y="0 : 1000 : 0"
       inkscape:vp_z="800 : 300 : 1"
       inkscape:persp3d-origin="400 : 200 : 1"
       id="perspective4930" />
    <inkscape:perspective
       id="perspective4875"
       inkscape:persp3d-origin="0.5 : 0.33333333 : 1"
       inkscape:vp_z="1 : 0.5 : 1"
       inkscape:vp_y="0 : 1000 : 0"
       inkscape:vp_x="0 : 0.5 : 1"
       sodipodi:type="inkscape:persp3d" />
  </defs>
  <sodipodi:namedview
     id="base"
     pagecolor="#ffffff"
     bordercolor="#666666"
     borderopacity="1.0"
     inkscape:pageopacity="0.0"
     inkscape:pageshadow="2"
     inkscape:zoom="0.6"
     inkscape:cx="377.58973"
     inkscape:cy="-104.27036"
     inkscape:current-layer="layer1"
     inkscape:document-units="px"
     showgrid="false"
     inkscape:window-width="964"
     inkscape:window-height="695"
     inkscape:window-x="1629"
     inkscape:window-y="45"
     inkscape:window-maximized="0" />
  <metadata
     id="metadata4927">
    <rdf:RDF>
      <cc:Work
         rdf:about="">
        <dc:format>image/svg+xml</dc:format>
        <dc:type
           rdf:resource="http://purl.org/dc/dcmitype/StillImage" />
        <dc:title></dc:title>
      </cc:Work>
    </rdf:RDF>
  </metadata>
  <g
     id="layer1"
     inkscape:label="Layer 1"
     inkscape:groupmode="layer"
     transform="translate(-22.410269,-19.936444)">
    <path
       d="m 23.288119,183.10835 282.788281,0"
       style="fill:none;stroke:#000000;stroke-width:0.65838772;stroke-linecap:round;stroke-linejoin:round;stroke-miterlimit:10;stroke-opacity:1;stroke-dasharray:none"
       id="path48" />
    <path
       d="m 298.77707,186.13255 7.29933,-3.0242 -7.29933,-3.02419"
       style="fill:#000000;fill-opacity:1;fill-rule:nonzero;stroke:none"
       id="path50" />
    <path
       d="m 298.77707,186.13255 7.29933,-3.0242 -7.29933,-3.02419 0,6.04839 z"
       style="fill:none;stroke:#000000;stroke-width:0.65838772;stroke-linecap:round;stroke-linejoin:round;stroke-miterlimit:10;stroke-opacity:1;stroke-dasharray:none"
       id="path52" />
    <path
       d="m 23.288119,182.42582 c 0.115218,0 3.343512,0 3.45873,0 0.115218,0 3.343732,0 3.45895,0 0.114998,0 3.344171,0 3.458291,0 0.116315,0 3.34461,0 3.45873,0 0.116316,0 3.344611,0 3.458731,0 0.116315,0 3.34461,0 3.45873,0 0.116316,0 3.34461,-0.002 3.458731,-0.002 0.116315,0 3.344609,-0.009 3.45873,-0.009 0.116315,0 3.34461,-0.022 3.45873,-0.0242 0.116315,0 3.34461,-0.0658 3.45873,-0.0702 0.116316,-0.004 3.34461,-0.17329 3.458731,-0.18215 0.116315,-0.007 3.344609,-0.39723 3.45873,-0.41698 0.11851,-0.0197 3.346804,-0.82738 3.45873,-0.86468 0.120705,-0.0416 3.351194,-1.55819 3.45873,-1.62622 0.127289,-0.0769 3.355583,-2.66647 3.458731,-2.77181 0.129483,-0.13379 3.359972,-4.17857 3.45873,-4.33439 0.129483,-0.19752 3.357777,-6.0023 3.45873,-6.21737 0.127288,-0.26994 3.355583,-7.95772 3.460925,-8.23644 0.122899,-0.33358 3.351193,-9.7595 3.45873,-10.09966 0.11851,-0.38187 3.346804,-11.11139 3.45873,-11.49545 0.116316,-0.40601 3.34461,-11.75222 3.458731,-12.15823 0.111926,-0.39942 3.34022,-11.53934 3.45873,-11.93657 0.107537,-0.36211 3.33583,-10.47275 3.45873,-10.83267 0.10315,-0.30286 3.33144,-8.684137 3.45873,-8.980407 0.0988,-0.22824 3.32705,-6.41489 3.45873,-6.62558 0.0944,-0.15362 3.32266,-3.92838 3.45873,-4.04469 0.0966,-0.0834 3.33144,-1.49015 3.45873,-1.50332 0.1207,-0.0132 3.35558,0.72642 3.45873,0.79007 0.12509,0.079 3.35339,2.58746 3.45873,2.69061 0.12949,0.12509 3.35778,3.98324 3.45873,4.13467 0.11413,0.17118 3.34242,4.95108 3.45873,5.12006 0.1251,0.18435 3.35339,5.49974 3.45874,5.69506 0.10753,0.2019 3.33583,5.719187 3.45873,5.912317 0.1207,0.19093 3.34899,5.66213 3.45873,5.85965 0.10534,0.19313 3.33363,5.42731 3.45873,5.60946 0.11851,0.17118 3.3468,5.04325 3.45873,5.22102 0.10534,0.16451 3.33363,4.60652 3.45873,4.75575 0.11631,0.14046 3.34461,4.10834 3.45873,4.25099 0.10534,0.13168 3.33363,3.62113 3.45873,3.73745 0.11631,0.10762 3.34461,3.12734 3.45873,3.23488 0.10753,0.10095 3.33583,2.67305 3.45873,2.75645 0.11631,0.0769 3.34241,2.22974 3.45873,2.30655 0.10973,0.0723 3.33802,1.8391 3.45873,1.89177 0.11631,0.0506 3.34241,1.45942 3.45873,1.5099 0.11192,0.0483 3.34022,1.13023 3.45873,1.15876 0.11631,0.0284 3.34461,0.80982 3.45873,0.83835 0.11412,0.0284 3.34241,0.53768 3.45873,0.54646 0.11631,0.0105 3.34461,0.27433 3.45873,0.28311 0.11631,0.0105 3.34461,0.0527 3.45873,0.0462 0.11631,-0.007 3.34461,-0.15801 3.45873,-0.1624 0.11631,-0.002 3.3446,-0.31822 3.45872,-0.33578 0.11622,-0.0175 3.34461,-0.46087 3.45873,-0.47404 0.11622,-0.0123 3.34461,-0.54207 3.45873,-0.56621 0.11623,-0.0242 3.34461,-0.59035 3.45873,-0.60572 0.1164,-0.0158 3.34461,-0.55304 3.45873,-0.57499 0.11412,-0.0219 3.34241,-0.46087 3.45873,-0.46965 0.1164,-0.009 3.34461,-0.26774 3.45873,-0.27652 0.11623,-0.009 3.34461,0.004 3.45873,0.0158 0.11623,0.0105 3.34461,0.38625 3.45873,0.40162 0.11851,0.0175 3.349,0.84054 3.45873,0.88224 0.11851,0.0439 3.3468,1.38042 3.45873,1.43089 0.1229,0.0548 3.35119,1.94225 3.46092,2.02345 0.11413,0.0855 3.34242,2.51723 3.45873,2.60502 0.1229,0.0944 3.3512,3.01541 3.45874,3.12734 0.11183,0.12062 3.34022,3.41703 3.45873,3.53335 0.12061,0.11851 3.34899,3.6321 3.45873,3.76598 0.10762,0.13167 3.33583,3.6716 3.45873,3.79231 0.11851,0.11851 3.3468,3.48945 3.45873,3.61235 0.10534,0.11623 3.33363,3.14271 3.45873,3.24146 0.11412,0.0922 3.34241,2.64672 3.45873,2.7367 0.10762,0.0857 3.33583,2.10684 3.45873,2.1661 0.11412,0.0548 3.34241,1.5494 3.45873,1.59988 0.10973,0.0506 3.34022,1.07756 3.45874,1.1017 0.11413,0.022 3.34242,0.67595 3.45873,0.69789 0.11413,0.0241 3.34242,0.40601 3.45874,0.4104 0.1164,0.004 3.34241,0.20849 3.45873,0.21946 0.11412,0.0105 3.34241,0.10973 3.45873,0.10763 0.11412,-0.002 3.34241,0.0418 3.45873,0.0483 0.11412,0.007 3.34241,0.024 3.45873,0.0175"
       style="fill:none;stroke:#000000;stroke-width:1.75570059;stroke-linecap:round;stroke-linejoin:round;stroke-miterlimit:10;stroke-opacity:1;stroke-dasharray:none"
       id="path54" />
    <path
       d="m 23.288119,155.92133 3.45873,-2.60063 c 1.182025,-0.89102 2.335301,-1.81496 3.45895,-2.7784 l 3.458291,-2.94958 c 1.185098,-1.00733 2.337277,-2.04978 3.45873,-3.12515 l 3.458731,-3.30291 c 1.185098,-1.12365 2.339471,-2.28241 3.45873,-3.47189 1.14779,-1.22022 2.299968,-2.43384 3.458731,-3.64308 1.187292,-1.23558 2.341665,-2.50627 3.45873,-3.80548 1.1434,-1.32775 2.295579,-2.64892 3.45873,-3.95911 1.189487,-1.33872 2.341666,-2.70817 3.45873,-4.10614 1.139011,-1.42432 2.29119,-2.83766 3.458731,-4.24002 1.189487,-1.42651 2.341665,-2.87935 3.45873,-4.36072 1.134621,-1.50332 2.288995,-2.99347 3.45873,-4.46826 1.187293,-1.49454 2.341666,-3.01322 3.45873,-4.55824 1.130233,-1.56257 2.284606,-3.10539 3.458731,-4.632847 1.185098,-1.53624 2.337276,-3.09882 3.45873,-4.68334 1.125843,-1.5889 2.280216,-3.16026 3.45873,-4.70966 1.182903,-1.5516 2.335082,-3.12515 3.460925,-4.71625 1.121454,-1.58891 2.273632,-3.15807 3.45873,-4.70309 1.174125,-1.53404 2.328498,-3.08783 3.45873,-4.65699 1.117065,-1.5538 2.271438,-3.08345 3.458731,-4.58677 1.169735,-1.48357 2.321914,-2.9803 3.45873,-4.4924 1.11487,-1.48357 2.26705,-2.9386 3.45873,-4.36511 1.16315,-1.395782 2.31533,-2.800342 3.45873,-4.213681 1.11268,-1.38042 2.26705,-2.725725 3.45873,-4.035917 1.15657,-1.275077 2.30875,-2.550155 3.45873,-3.829622 1.11048,-1.239963 2.26485,-2.440424 3.45873,-3.601381 1.14779,-1.117064 2.29997,-2.22974 3.45873,-3.338026 1.11268,-1.066588 2.26486,-2.087089 3.45873,-3.061503 1.14121,-0.932715 2.29558,-1.852264 3.45873,-2.75645 1.11268,-0.866877 2.26705,-1.678888 3.45873,-2.43384 1.13902,-0.722031 2.29119,-1.422117 3.45874,-2.095867 1.11706,-0.64522 2.27363,-1.224601 3.45873,-1.738144 1.13901,-0.489401 2.29118,-0.945883 3.45873,-1.369446 1.12803,-0.408201 2.2846,-0.737395 3.45873,-0.987582 1.14559,-0.241409 2.29777,-0.443314 3.45873,-0.599133 1.14559,-0.153623 2.30216,-0.223852 3.45873,-0.208489 1.15437,0.01527 2.30874,0.07681 3.45873,0.184348 1.16534,0.109732 2.32191,0.302859 3.45873,0.579382 1.16315,0.283106 2.31752,0.605716 3.45873,0.96783 1.18071,0.373086 2.33727,0.82079 3.45873,1.345305 1.16754,0.544267 2.31972,1.117065 3.45873,1.716198 1.18948,0.627663 2.34605,1.321164 3.45873,2.076116 1.16315,0.78787 2.31752,1.593298 3.45873,2.411893 1.19607,0.860294 2.35044,1.773258 3.45873,2.741088 1.15657,1.009528 2.31094,2.023445 3.45873,3.041751 1.19826,1.062199 2.35044,2.17268 3.45873,3.329248 1.14998,1.196071 2.30216,2.392142 3.45873,3.581629 1.19826,1.23338 2.35044,2.506262 3.45873,3.818649 1.1412,1.349695 2.29558,2.690611 3.45873,4.022749 1.19608,1.365057 2.35043,2.769618 3.45872,4.207097 1.13242,1.468208 2.2868,2.921048 3.45873,4.358528 1.19387,1.46381 2.34605,2.95616 3.45873,4.48143 1.12804,1.54721 2.28241,3.07467 3.45873,4.58457 1.18949,1.52526 2.34166,3.07467 3.45873,4.6526 1.12584,1.58891 2.27802,3.15588 3.45873,4.70089 1.1851,1.54721 2.33947,3.12076 3.45873,4.71845 1.12145,1.5933 2.27363,3.16465 3.45873,4.70967 1.1829,1.54062 2.33508,3.1032 3.45873,4.68552 1.11706,1.573547 2.27144,3.118567 3.45873,4.635047 1.17851,1.50332 2.33289,3.0242 3.45873,4.56263 1.11487,1.52307 2.26924,3.01322 3.46092,4.47484 1.17193,1.43967 2.32631,2.89471 3.45873,4.36731 1.11268,1.44845 2.26705,2.86398 3.45874,4.24879 1.16754,1.35847 2.31971,2.72792 3.45873,4.11054 1.11487,1.35627 2.26704,2.68183 3.45873,3.97007 1.16315,1.26191 2.31533,2.5326 3.45873,3.81207 1.11706,1.25094 2.26924,2.46895 3.45873,3.65405 1.15876,1.15437 2.31094,2.31533 3.45873,3.48287 1.11706,1.13682 2.27143,2.24291 3.45873,3.3095 1.15656,1.04244 2.30874,2.08928 3.45873,3.13831 1.12145,1.02489 2.27363,2.01247 3.45873,2.96275 l 3.45874,2.78498 c 1.12146,0.90857 2.27583,1.77984 3.45873,2.6116 l 3.45874,2.44043 c 1.12584,0.79884 2.28021,1.55599 3.45873,2.27363 l 3.45873,2.11123 c 1.13023,0.6913 2.28241,1.34311 3.45873,1.95321 l 3.45873,1.80399"
       style="fill:none;stroke:#000000;stroke-width:1.75570059;stroke-linecap:round;stroke-linejoin:round;stroke-miterlimit:10;stroke-opacity:1;stroke-dasharray:5.92548961, 5.92548961;stroke-dashoffset:0"
       id="path56" />
    <g
       id="g58"
       transform="matrix(2.1946258,0,0,-2.1946258,-187.40935,1628.1202)">
      <text
         transform="matrix(1,0,0,-1,213.489,652.681)"
         id="text60">
        <tspan
           style="font-size:8.96638012px;font-variant:normal;font-weight:normal;writing-mode:lr-tb;fill:#000000;fill-opacity:1;fill-rule:nonzero;stroke:none;font-family:'CMMI10~80';-inkscape-font-specification:'CMMI10~80'"
           x="0"
           y="0"
           id="tspan62">x</tspan>
        <tspan
           style="font-size:8.96638012px;font-variant:normal;font-weight:normal;writing-mode:lr-tb;fill:#000000;fill-opacity:1;fill-rule:nonzero;stroke:none;font-family:'CMMI10~80';-inkscape-font-specification:'CMMI10~80'"
           x="-68.312302"
           y="-53.3974"
           id="tspan64">P</tspan>
      </text>
      <text
         transform="matrix(1,0,0,-1,152.17863,709.33226)"
         id="text66">
        <tspan
           style="font-size:6.27646017px;font-variant:normal;font-weight:normal;writing-mode:lr-tb;fill:#000000;fill-opacity:1;fill-rule:nonzero;stroke:none;font-family:CMSY7;-inkscape-font-specification:CMSY7"
           x="0"
           y="0"
           id="tspan68">∗</tspan>
      </text>
      <text
         transform="matrix(1,0,0,-1,156.3006,706.0784)"
         id="text70">
        <tspan
           style="font-size:8.96638012px;font-variant:normal;font-weight:normal;writing-mode:lr-tb;fill:#000000;fill-opacity:1;fill-rule:nonzero;stroke:none;font-family:'CMR10~47';-inkscape-font-specification:'CMR10~47'"
           x="0"
           y="0"
           id="tspan72">(</tspan>
      </text>
      <text
         transform="matrix(1,0,0,-1,159.78756,706.0784)"
         id="text74">
        <tspan
           style="font-size:8.96638012px;font-variant:normal;font-weight:normal;writing-mode:lr-tb;fill:#000000;fill-opacity:1;fill-rule:nonzero;stroke:none;font-family:'CMMI10~80';-inkscape-font-specification:'CMMI10~80'"
           x="0"
           y="0"
           id="tspan76">x</tspan>
      </text>
      <text
         transform="matrix(1,0,0,-1,164.9121,706.0784)"
         id="text78">
        <tspan
           style="font-size:8.96638012px;font-variant:normal;font-weight:normal;writing-mode:lr-tb;fill:#000000;fill-opacity:1;fill-rule:nonzero;stroke:none;font-family:'CMR10~47';-inkscape-font-specification:'CMR10~47'"
           x="0"
           y="0"
           id="tspan80">)</tspan>
      </text>
      <text
         transform="matrix(1,0,0,-1,176.6971,719.3185)"
         id="text82">
        <tspan
           style="font-size:8.96638012px;font-variant:normal;font-weight:normal;writing-mode:lr-tb;fill:#000000;fill-opacity:1;fill-rule:nonzero;stroke:none;font-family:'CMMI10~80';-inkscape-font-specification:'CMMI10~80'"
           x="0 3.8824425"
           y="0"
           sodipodi:role="line"
           id="tspan84">cQ</tspan>
      </text>
      <text
         transform="matrix(1,0,0,-1,187.6658,722.57231)"
         id="text86">
        <tspan
           style="font-size:6.27646017px;font-variant:normal;font-weight:normal;writing-mode:lr-tb;fill:#000000;fill-opacity:1;fill-rule:nonzero;stroke:none;font-family:CMSY7;-inkscape-font-specification:CMSY7"
           x="0"
           y="0"
           id="tspan88">∗</tspan>
      </text>
      <text
         transform="matrix(1,0,0,-1,191.78789,719.3185)"
         id="text90">
        <tspan
           style="font-size:8.96638012px;font-variant:normal;font-weight:normal;writing-mode:lr-tb;fill:#000000;fill-opacity:1;fill-rule:nonzero;stroke:none;font-family:'CMR10~47';-inkscape-font-specification:'CMR10~47'"
           x="0"
           y="0"
           id="tspan92">(</tspan>
      </text>
      <text
         transform="matrix(1,0,0,-1,195.27478,719.3185)"
         id="text94">
        <tspan
           style="font-size:8.96638012px;font-variant:normal;font-weight:normal;writing-mode:lr-tb;fill:#000000;fill-opacity:1;fill-rule:nonzero;stroke:none;font-family:'CMMI10~80';-inkscape-font-specification:'CMMI10~80'"
           x="0"
           y="0"
           id="tspan96">x</tspan>
      </text>
      <text
         transform="matrix(1,0,0,-1,200.39936,719.3185)"
         id="text98">
        <tspan
           style="font-size:8.96638012px;font-variant:normal;font-weight:normal;writing-mode:lr-tb;fill:#000000;fill-opacity:1;fill-rule:nonzero;stroke:none;font-family:'CMR10~47';-inkscape-font-specification:'CMR10~47'"
           x="0"
           y="0"
           id="tspan100">)</tspan>
      </text>
      <text
         transform="matrix(1,0,0,-1,236.19986,726.65156)"
         id="text102">
        <tspan
           style="font-size:8.0697403px;font-variant:normal;font-weight:normal;writing-mode:lr-tb;fill:#000000;fill-opacity:1;fill-rule:nonzero;stroke:none;font-family:CMR9;-inkscape-font-specification:CMR9"
           x="0 3.2359657 7.8760662"
           y="0"
           sodipodi:role="line"
           id="tspan104">(b)</tspan>
      </text>
    </g>
    <path
       d="m 339.47202,153.94616 3.45874,-2.60063 c 1.18291,-0.89102 2.33509,-1.81495 3.45873,-2.77839 l 3.45873,-2.94958 c 1.1851,-1.00733 2.33728,-2.04978 3.45874,-3.12515 l 3.45873,-3.30291 c 1.18509,-1.12365 2.33947,-2.28241 3.45873,-3.4719 1.14778,-1.22021 2.29996,-2.43384 3.45873,-3.64308 1.18729,-1.23557 2.34166,-2.50626 3.45873,-3.80548 1.1434,-1.32775 2.29557,-2.64891 3.45873,-3.9591 1.18948,-1.33872 2.34166,-2.70817 3.45873,-4.10615 1.13901,-1.42431 2.29119,-2.83765 3.45873,-4.24001 1.18948,-1.42651 2.34166,-2.87935 3.45873,-4.36073 1.13462,-1.50331 2.28899,-2.99347 3.45873,-4.46825 1.18729,-1.49454 2.34166,-3.01323 3.45873,-4.55824 1.13023,-1.56258 2.2846,-3.105397 3.45873,-4.632857 1.1851,-1.53624 2.33727,-3.09881 3.45873,-4.68333 1.12584,-1.58891 2.28021,-3.16026 3.45873,-4.70967 1.1829,-1.5516 2.33508,-3.12514 3.46092,-4.71625 1.12146,-1.58891 2.27364,-3.15806 3.45873,-4.70308 1.17413,-1.53404 2.3285,-3.08784 3.45873,-4.657 1.11707,-1.55379 2.27144,-3.08344 3.45873,-4.58676 1.16974,-1.48357 2.32192,-2.9803 3.45873,-4.4924 1.11487,-1.48357 2.26705,-2.938606 3.45873,-4.365113 1.16316,-1.395782 2.31533,-2.800342 3.45873,-4.213681 1.11268,-1.38042 2.26705,-2.725725 3.45873,-4.035917 1.15657,-1.275078 2.30875,-2.550155 3.45873,-3.829622 1.11049,-1.239964 2.26486,-2.440424 3.45874,-3.601381 1.14778,-1.117064 2.29996,-2.22974 3.45873,-3.338026 1.11267,-1.066588 2.26485,-2.087089 3.45873,-3.061503 1.1412,-0.932716 2.29557,-1.852264 3.45873,-2.75645 1.11267,-0.866877 2.26704,-1.678888 3.45873,-2.43384 1.13901,-0.722032 2.29119,-1.422117 3.45873,-2.095867 1.11706,-0.64522 2.27363,-1.224602 3.45873,-1.738144 1.13901,-0.489402 2.29119,-0.945884 3.45873,-1.369446 1.12803,-0.408201 2.2846,-0.737395 3.45873,-0.987582 1.14559,-0.241409 2.29777,-0.443314 3.45873,-0.599133 1.14559,-0.153624 2.30216,-0.223852 3.45873,-0.208489 1.15437,0.01527 2.30874,0.07681 3.45873,0.184348 1.16534,0.109732 2.32191,0.302859 3.45873,0.579381 1.16315,0.283107 2.31752,0.605717 3.45873,0.96783 1.18071,0.373087 2.33727,0.82079 3.45873,1.345306 1.16754,0.544267 2.31972,1.117065 3.45873,1.716197 1.18949,0.627663 2.34605,1.321165 3.45873,2.076116 1.16315,0.787871 2.31752,1.593299 3.45873,2.411894 1.19607,0.860293 2.35044,1.773258 3.45873,2.741088 1.15657,1.009528 2.31094,2.023445 3.45873,3.041751 1.19827,1.062199 2.35044,2.17268 3.45873,3.329247 1.14998,1.196071 2.30216,2.392142 3.45873,3.58163 1.19827,1.233379 2.35044,2.506262 3.45873,3.818648 1.14121,1.349695 2.29558,2.690612 3.45873,4.02275 1.19607,1.365057 2.35044,2.769617 3.45873,4.207097 1.13243,1.468205 2.2868,2.921051 3.45873,4.358531 1.19388,1.46381 2.34606,2.95616 3.45873,4.48142 1.12804,1.54721 2.28241,3.07467 3.45873,4.58458 1.18949,1.52526 2.34167,3.07467 3.45873,4.6526 1.12584,1.58891 2.27802,3.15587 3.45873,4.70089 1.1851,1.54721 2.33947,3.12076 3.45873,4.71845 1.12146,1.59329 2.27363,3.16465 3.45873,4.70966 1.18291,1.54063 2.33508,3.1032 3.45873,4.68553 1.11707,1.57355 2.27144,3.118557 3.45873,4.635047 1.17852,1.50332 2.33289,3.02419 3.45873,4.56263 1.11487,1.52307 2.26925,3.01322 3.46093,4.47484 1.17193,1.43967 2.3263,2.89471 3.45873,4.3673 1.11267,1.44846 2.26705,2.86399 3.45873,4.2488 1.16754,1.35847 2.31972,2.72792 3.45873,4.11053 1.11487,1.35628 2.26705,2.68183 3.45873,3.97008 1.16315,1.26191 2.31533,2.5326 3.45873,3.81207 1.11706,1.25093 2.26924,2.46895 3.45873,3.65405 1.15876,1.15437 2.31094,2.31533 3.45873,3.48287 1.11706,1.13681 2.27144,2.24291 3.45873,3.30949 1.15657,1.04245 2.30875,2.08929 3.45873,3.13832 1.11926,1.02489 2.27363,2.01247 3.45873,2.96274 l 3.45873,2.78498 c 1.12145,0.90858 2.27583,1.77985 3.45873,2.61161 l 3.45873,2.44042 c 1.12584,0.79885 2.28022,1.55599 3.45873,2.27363 l 3.45873,2.11123 c 1.13023,0.69131 2.28241,1.34312 3.45873,1.95322 l 3.45873,1.80398 -0.0176,16.74939 -273.22652,0"
       style="fill:#e6e6e6;fill-opacity:1;fill-rule:nonzero;stroke:none"
       id="path106" />
    <path
       d="m 339.47202,180.45066 c 0.1164,0 3.34461,0 3.45874,0 0.11623,0 3.3446,0 3.45873,0 0.11623,0 3.34461,0 3.45873,0 0.11623,0 3.34461,0 3.45874,0 0.1164,0 3.3446,0 3.45873,0 0.1164,0 3.34461,0 3.45873,0 0.1164,0 3.34461,-0.002 3.45873,-0.002 0.11622,0 3.34461,-0.009 3.45873,-0.009 0.11622,0 3.34461,-0.022 3.45873,-0.0242 0.11622,0 3.34461,-0.0658 3.45873,-0.0702 0.11622,-0.004 3.34461,-0.17329 3.45873,-0.18216 0.11622,-0.007 3.34461,-0.39722 3.45873,-0.41697 0.11851,-0.0197 3.3468,-0.82738 3.45873,-0.86469 0.12061,-0.0416 3.35119,-1.55818 3.45873,-1.62621 0.12729,-0.0769 3.35558,-2.66648 3.45873,-2.77182 0.12939,-0.13378 3.35997,-4.17856 3.45873,-4.33438 0.12939,-0.19752 3.35778,-6.0023 3.45873,-6.21738 0.12729,-0.26994 3.35558,-7.95771 3.46092,-8.23643 0.1229,-0.33358 3.3512,-9.7595 3.45873,-10.09967 0.11851,-0.38186 3.34681,-11.11139 3.45873,-11.49545 0.11623,-0.406 3.34461,-11.75222 3.45873,-12.15822 0.11184,-0.39942 3.34022,-11.53935 3.45873,-11.93657 0.10763,-0.36212 3.33584,-10.472757 3.45873,-10.832677 0.10324,-0.30285 3.33145,-8.68413 3.45873,-8.9804 0.0989,-0.22825 3.32706,-6.4149 3.45873,-6.62558 0.0945,-0.15362 3.32267,-3.92838 3.45873,-4.04469 0.0966,-0.0834 3.33145,-1.49016 3.45874,-1.50332 0.12079,-0.0132 3.35558,0.72642 3.45873,0.79006 0.12518,0.079 3.35338,2.58747 3.45873,2.69061 0.12957,0.1251 3.35777,3.98325 3.45873,4.13468 0.11412,0.17118 3.34241,4.95107 3.45873,5.12006 0.125,0.18435 3.35338,5.49973 3.45873,5.69505 0.10762,0.20191 3.33583,5.719197 3.45873,5.912327 0.12061,0.19093 3.349,5.66213 3.45873,5.85965 0.10534,0.19312 3.33363,5.42731 3.45873,5.60946 0.11851,0.17118 3.3468,5.04325 3.45873,5.22101 0.10534,0.16451 3.33363,4.60652 3.45873,4.75576 0.11622,0.14045 3.34461,4.10834 3.45873,4.25099 0.10534,0.13168 3.33363,3.62113 3.45873,3.73745 0.11623,0.10762 3.34461,3.12734 3.45873,3.23488 0.10762,0.10095 3.33583,2.67305 3.45873,2.75645 0.1164,0.0769 3.34241,2.22973 3.45873,2.30655 0.10973,0.0723 3.33802,1.83909 3.45873,1.89176 0.1164,0.0506 3.34241,1.45943 3.45873,1.50991 0.11184,0.0483 3.34022,1.13023 3.45873,1.15876 0.1164,0.0284 3.34461,0.80982 3.45873,0.83835 0.11412,0.0284 3.34241,0.53768 3.45873,0.54646 0.1164,0.0105 3.34461,0.27433 3.45873,0.2831 0.11623,0.0105 3.34461,0.0527 3.45873,0.0462 0.1164,-0.007 3.34461,-0.15801 3.45873,-0.1624 0.11623,-0.002 3.34461,-0.31822 3.45873,-0.33578 0.1164,-0.0176 3.34461,-0.46087 3.45873,-0.47404 0.11623,-0.0123 3.34461,-0.54207 3.45873,-0.56621 0.1164,-0.0241 3.34461,-0.59036 3.45873,-0.60572 0.11623,-0.0158 3.34461,-0.55305 3.45873,-0.57499 0.11412,-0.022 3.34242,-0.46087 3.45873,-0.46965 0.11623,-0.009 3.34461,-0.26775 3.45873,-0.27652 0.11641,-0.009 3.34461,0.004 3.45873,0.0158 0.11623,0.0105 3.34461,0.38625 3.45873,0.40161 0.11851,0.0176 3.349,0.84055 3.45873,0.88224 0.11851,0.0439 3.34681,1.38042 3.45873,1.4309 0.1229,0.0548 3.3512,1.94224 3.46093,2.02344 0.11412,0.0855 3.34241,2.51724 3.45873,2.60502 0.1229,0.0945 3.35119,3.01542 3.45873,3.12735 0.11201,0.12061 3.34022,3.41703 3.45873,3.53334 0.12079,0.11851 3.349,3.63211 3.45873,3.76598 0.10762,0.13168 3.33583,3.67161 3.45873,3.79232 0.11851,0.11851 3.3468,3.48945 3.45873,3.61235 0.10534,0.11623 3.33364,3.1427 3.45873,3.24146 0.11412,0.0922 3.34241,2.64672 3.45873,2.7367 0.10745,0.0857 3.33583,2.10684 3.45873,2.1661 0.11412,0.0548 3.34242,1.5494 3.45873,1.59988 0.10973,0.0506 3.34022,1.07756 3.45873,1.1017 0.11412,0.022 3.34242,0.67594 3.45873,0.69789 0.11412,0.024 3.34242,0.40601 3.45873,0.4104 0.1164,0.004 3.34242,0.20849 3.45873,0.21946 0.11412,0.0105 3.34242,0.10973 3.45873,0.10762 0.11412,-0.002 3.34242,0.0418 3.45873,0.0483 0.11412,0.007 3.34242,0.0241 3.45873,0.0176 l -0.0176,0.6935 -273.22652,0"
       style="fill:#cccccc;fill-opacity:1;fill-rule:nonzero;stroke:none"
       id="path108" />
    <path
       d="m 339.47202,181.13319 282.7885,0"
       style="fill:none;stroke:#000000;stroke-width:0.65838772;stroke-linecap:round;stroke-linejoin:round;stroke-miterlimit:10;stroke-opacity:1;stroke-dasharray:none"
       id="path110" />
    <path
       d="m 614.9612,184.15738 7.29934,-3.02419 -7.29934,-3.0242"
       style="fill:#000000;fill-opacity:1;fill-rule:nonzero;stroke:none"
       id="path112" />
    <path
       d="m 614.9612,184.15738 7.29934,-3.02419 -7.29934,-3.0242 0,6.04839 z"
       style="fill:none;stroke:#000000;stroke-width:0.65838772;stroke-linecap:round;stroke-linejoin:round;stroke-miterlimit:10;stroke-opacity:1;stroke-dasharray:none"
       id="path114" />
    <path
       d="m 512.41072,181.13319 0,-124.555985"
       style="fill:none;stroke:#000000;stroke-width:0.65838772;stroke-linecap:round;stroke-linejoin:round;stroke-miterlimit:10;stroke-opacity:1;stroke-dasharray:none"
       id="path116" />
    <path
       d="m 503.87363,181.13319 0,-87.190287"
       style="fill:none;stroke:#000000;stroke-width:0.65838772;stroke-linecap:round;stroke-linejoin:round;stroke-miterlimit:10;stroke-opacity:1;stroke-dasharray:none"
       id="path118" />
    <path
       d="m 506.89563,101.24442 -3.022,-7.301517 -3.0242,7.301517"
       style="fill:#000000;fill-opacity:1;fill-rule:nonzero;stroke:none"
       id="path120" />
    <path
       d="m 506.89563,101.24442 -3.022,-7.301517 -3.0242,7.301517 6.0462,0 z"
       style="fill:none;stroke:#000000;stroke-width:0.65838772;stroke-linecap:round;stroke-linejoin:round;stroke-miterlimit:10;stroke-opacity:1;stroke-dasharray:none"
       id="path122" />
    <path
       d="m 500.84943,173.83386 3.02422,7.29933 3.022,-7.29933"
       style="fill:#000000;fill-opacity:1;fill-rule:nonzero;stroke:none"
       id="path124" />
    <path
       d="m 500.84943,173.83386 3.02422,7.29933 3.022,-7.29933 -6.04622,0 z"
       style="fill:none;stroke:#000000;stroke-width:0.65838772;stroke-linecap:round;stroke-linejoin:round;stroke-miterlimit:10;stroke-opacity:1;stroke-dasharray:none"
       id="path126" />
    <path
       d="m 512.41072,93.942903 0,0"
       style="fill:none;stroke:#000000;stroke-width:4.8281765;stroke-linecap:round;stroke-linejoin:round;stroke-miterlimit:10;stroke-opacity:1;stroke-dasharray:none"
       id="path128" />
    <path
       d="m 339.47202,180.45066 c 0.1164,0 3.34461,0 3.45874,0 0.11623,0 3.3446,0 3.45873,0 0.11623,0 3.34461,0 3.45873,0 0.11623,0 3.34461,0 3.45874,0 0.1164,0 3.3446,0 3.45873,0 0.1164,0 3.34461,0 3.45873,0 0.1164,0 3.34461,-0.002 3.45873,-0.002 0.11622,0 3.34461,-0.009 3.45873,-0.009 0.11622,0 3.34461,-0.022 3.45873,-0.0242 0.11622,0 3.34461,-0.0658 3.45873,-0.0702 0.11622,-0.004 3.34461,-0.17329 3.45873,-0.18216 0.11622,-0.007 3.34461,-0.39722 3.45873,-0.41697 0.11851,-0.0197 3.3468,-0.82738 3.45873,-0.86469 0.12061,-0.0416 3.35119,-1.55818 3.45873,-1.62621 0.12729,-0.0769 3.35558,-2.66648 3.45873,-2.77182 0.12939,-0.13378 3.35997,-4.17856 3.45873,-4.33438 0.12939,-0.19752 3.35778,-6.0023 3.45873,-6.21738 0.12729,-0.26994 3.35558,-7.95771 3.46092,-8.23643 0.1229,-0.33358 3.3512,-9.7595 3.45873,-10.09967 0.11851,-0.38186 3.34681,-11.11139 3.45873,-11.49545 0.11623,-0.406 3.34461,-11.75222 3.45873,-12.15822 0.11184,-0.39942 3.34022,-11.53935 3.45873,-11.93657 0.10763,-0.36212 3.33584,-10.472757 3.45873,-10.832677 0.10324,-0.30285 3.33145,-8.68413 3.45873,-8.9804 0.0989,-0.22825 3.32706,-6.4149 3.45873,-6.62558 0.0945,-0.15362 3.32267,-3.92838 3.45873,-4.04469 0.0966,-0.0834 3.33145,-1.49016 3.45874,-1.50332 0.12079,-0.0132 3.35558,0.72642 3.45873,0.79006 0.12518,0.079 3.35338,2.58747 3.45873,2.69061 0.12957,0.1251 3.35777,3.98325 3.45873,4.13468 0.11412,0.17118 3.34241,4.95107 3.45873,5.12006 0.125,0.18435 3.35338,5.49973 3.45873,5.69505 0.10762,0.20191 3.33583,5.719197 3.45873,5.912327 0.12061,0.19093 3.349,5.66213 3.45873,5.85965 0.10534,0.19312 3.33363,5.42731 3.45873,5.60946 0.11851,0.17118 3.3468,5.04325 3.45873,5.22101 0.10534,0.16451 3.33363,4.60652 3.45873,4.75576 0.11622,0.14045 3.34461,4.10834 3.45873,4.25099 0.10534,0.13168 3.33363,3.62113 3.45873,3.73745 0.11623,0.10762 3.34461,3.12734 3.45873,3.23488 0.10762,0.10095 3.33583,2.67305 3.45873,2.75645 0.1164,0.0769 3.34241,2.22973 3.45873,2.30655 0.10973,0.0723 3.33802,1.83909 3.45873,1.89176 0.1164,0.0506 3.34241,1.45943 3.45873,1.50991 0.11184,0.0483 3.34022,1.13023 3.45873,1.15876 0.1164,0.0284 3.34461,0.80982 3.45873,0.83835 0.11412,0.0284 3.34241,0.53768 3.45873,0.54646 0.1164,0.0105 3.34461,0.27433 3.45873,0.2831 0.11623,0.0105 3.34461,0.0527 3.45873,0.0462 0.1164,-0.007 3.34461,-0.15801 3.45873,-0.1624 0.11623,-0.002 3.34461,-0.31822 3.45873,-0.33578 0.1164,-0.0176 3.34461,-0.46087 3.45873,-0.47404 0.11623,-0.0123 3.34461,-0.54207 3.45873,-0.56621 0.1164,-0.0241 3.34461,-0.59036 3.45873,-0.60572 0.11623,-0.0158 3.34461,-0.55305 3.45873,-0.57499 0.11412,-0.022 3.34242,-0.46087 3.45873,-0.46965 0.11623,-0.009 3.34461,-0.26775 3.45873,-0.27652 0.11641,-0.009 3.34461,0.004 3.45873,0.0158 0.11623,0.0105 3.34461,0.38625 3.45873,0.40161 0.11851,0.0176 3.349,0.84055 3.45873,0.88224 0.11851,0.0439 3.34681,1.38042 3.45873,1.4309 0.1229,0.0548 3.3512,1.94224 3.46093,2.02344 0.11412,0.0855 3.34241,2.51724 3.45873,2.60502 0.1229,0.0945 3.35119,3.01542 3.45873,3.12735 0.11201,0.12061 3.34022,3.41703 3.45873,3.53334 0.12079,0.11851 3.349,3.63211 3.45873,3.76598 0.10762,0.13168 3.33583,3.67161 3.45873,3.79232 0.11851,0.11851 3.3468,3.48945 3.45873,3.61235 0.10534,0.11623 3.33364,3.1427 3.45873,3.24146 0.11412,0.0922 3.34241,2.64672 3.45873,2.7367 0.10745,0.0857 3.33583,2.10684 3.45873,2.1661 0.11412,0.0548 3.34242,1.5494 3.45873,1.59988 0.10973,0.0506 3.34022,1.07756 3.45873,1.1017 0.11412,0.022 3.34242,0.67594 3.45873,0.69789 0.11412,0.024 3.34242,0.40601 3.45873,0.4104 0.1164,0.004 3.34242,0.20849 3.45873,0.21946 0.11412,0.0105 3.34242,0.10973 3.45873,0.10762 0.11412,-0.002 3.34242,0.0418 3.45873,0.0483 0.11412,0.007 3.34242,0.0241 3.45873,0.0176"
       style="fill:none;stroke:#000000;stroke-width:1.75570059;stroke-linecap:round;stroke-linejoin:round;stroke-miterlimit:10;stroke-opacity:1;stroke-dasharray:none"
       id="path130" />
    <path
       d="m 339.47202,153.94616 3.45874,-2.60063 c 1.18291,-0.89102 2.33509,-1.81495 3.45873,-2.77839 l 3.45873,-2.94958 c 1.1851,-1.00733 2.33728,-2.04978 3.45874,-3.12515 l 3.45873,-3.30291 c 1.18509,-1.12365 2.33947,-2.28241 3.45873,-3.4719 1.14778,-1.22021 2.29996,-2.43384 3.45873,-3.64308 1.18729,-1.23557 2.34166,-2.50626 3.45873,-3.80548 1.1434,-1.32775 2.29557,-2.64891 3.45873,-3.9591 1.18948,-1.33872 2.34166,-2.70817 3.45873,-4.10615 1.13901,-1.42431 2.29119,-2.83765 3.45873,-4.24001 1.18948,-1.42651 2.34166,-2.87935 3.45873,-4.36073 1.13462,-1.50331 2.28899,-2.99347 3.45873,-4.46825 1.18729,-1.49454 2.34166,-3.01323 3.45873,-4.55824 1.13023,-1.56258 2.2846,-3.105397 3.45873,-4.632857 1.1851,-1.53624 2.33727,-3.09881 3.45873,-4.68333 1.12584,-1.58891 2.28021,-3.16026 3.45873,-4.70967 1.1829,-1.5516 2.33508,-3.12514 3.46092,-4.71625 1.12146,-1.58891 2.27364,-3.15806 3.45873,-4.70308 1.17413,-1.53404 2.3285,-3.08784 3.45873,-4.657 1.11707,-1.55379 2.27144,-3.08344 3.45873,-4.58676 1.16974,-1.48357 2.32192,-2.9803 3.45873,-4.4924 1.11487,-1.48357 2.26705,-2.938606 3.45873,-4.365113 1.16316,-1.395782 2.31533,-2.800342 3.45873,-4.213681 1.11268,-1.38042 2.26705,-2.725725 3.45873,-4.035917 1.15657,-1.275078 2.30875,-2.550155 3.45873,-3.829622 1.11049,-1.239964 2.26486,-2.440424 3.45874,-3.601381 1.14778,-1.117064 2.29996,-2.22974 3.45873,-3.338026 1.11267,-1.066588 2.26485,-2.087089 3.45873,-3.061503 1.1412,-0.932716 2.29557,-1.852264 3.45873,-2.75645 1.11267,-0.866877 2.26704,-1.678888 3.45873,-2.43384 1.13901,-0.722032 2.29119,-1.422117 3.45873,-2.095867 1.11706,-0.64522 2.27363,-1.224602 3.45873,-1.738144 1.13901,-0.489402 2.29119,-0.945884 3.45873,-1.369446 1.12803,-0.408201 2.2846,-0.737395 3.45873,-0.987582 1.14559,-0.241409 2.29777,-0.443314 3.45873,-0.599133 1.14559,-0.153624 2.30216,-0.223852 3.45873,-0.208489 1.15437,0.01527 2.30874,0.07681 3.45873,0.184348 1.16534,0.109732 2.32191,0.302859 3.45873,0.579381 1.16315,0.283107 2.31752,0.605717 3.45873,0.96783 1.18071,0.373087 2.33727,0.82079 3.45873,1.345306 1.16754,0.544267 2.31972,1.117065 3.45873,1.716197 1.18949,0.627663 2.34605,1.321165 3.45873,2.076116 1.16315,0.787871 2.31752,1.593299 3.45873,2.411894 1.19607,0.860293 2.35044,1.773258 3.45873,2.741088 1.15657,1.009528 2.31094,2.023445 3.45873,3.041751 1.19827,1.062199 2.35044,2.17268 3.45873,3.329247 1.14998,1.196071 2.30216,2.392142 3.45873,3.58163 1.19827,1.233379 2.35044,2.506262 3.45873,3.818648 1.14121,1.349695 2.29558,2.690612 3.45873,4.02275 1.19607,1.365057 2.35044,2.769617 3.45873,4.207097 1.13243,1.468205 2.2868,2.921051 3.45873,4.358531 1.19388,1.46381 2.34606,2.95616 3.45873,4.48142 1.12804,1.54721 2.28241,3.07467 3.45873,4.58458 1.18949,1.52526 2.34167,3.07467 3.45873,4.6526 1.12584,1.58891 2.27802,3.15587 3.45873,4.70089 1.1851,1.54721 2.33947,3.12076 3.45873,4.71845 1.12146,1.59329 2.27363,3.16465 3.45873,4.70966 1.18291,1.54063 2.33508,3.1032 3.45873,4.68553 1.11707,1.57355 2.27144,3.118557 3.45873,4.635047 1.17852,1.50332 2.33289,3.02419 3.45873,4.56263 1.11487,1.52307 2.26925,3.01322 3.46093,4.47484 1.17193,1.43967 2.3263,2.89471 3.45873,4.3673 1.11267,1.44846 2.26705,2.86399 3.45873,4.2488 1.16754,1.35847 2.31972,2.72792 3.45873,4.11053 1.11487,1.35628 2.26705,2.68183 3.45873,3.97008 1.16315,1.26191 2.31533,2.5326 3.45873,3.81207 1.11706,1.25093 2.26924,2.46895 3.45873,3.65405 1.15876,1.15437 2.31094,2.31533 3.45873,3.48287 1.11706,1.13681 2.27144,2.24291 3.45873,3.30949 1.15657,1.04245 2.30875,2.08929 3.45873,3.13832 1.11926,1.02489 2.27363,2.01247 3.45873,2.96274 l 3.45873,2.78498 c 1.12145,0.90858 2.27583,1.77985 3.45873,2.61161 l 3.45873,2.44042 c 1.12584,0.79885 2.28022,1.55599 3.45873,2.27363 l 3.45873,2.11123 c 1.13023,0.69131 2.28241,1.34312 3.45873,1.95322 l 3.45873,1.80398"
       style="fill:none;stroke:#000000;stroke-width:1.75570059;stroke-linecap:round;stroke-linejoin:round;stroke-miterlimit:10;stroke-opacity:1;stroke-dasharray:5.92548961, 5.92548961;stroke-dashoffset:0"
       id="path132" />
  </g>
</svg>
